<svg width="505" height="38" viewBox="0 0 505 38" fill="none" xmlns="http://www.w3.org/2000/svg">
<path d="M10.288 35L13.892 11.404H16.51L12.906 35H10.288ZM0.632 27.724V25.242H18.04V27.724H0.632ZM3.012 35L6.616 11.404H9.234L5.63 35H3.012ZM1.686 20.686V18.204H19.094V20.686H1.686ZM55.7683 9.84V12.22H51.2463V35H48.4243V21.91H42.8483V24.528C42.8483 26.7947 42.3156 28.54 41.2503 29.764C40.185 30.9653 38.6663 31.566 36.6943 31.566C34.813 31.566 33.2943 31.022 32.1383 29.934C30.9823 28.8233 30.4043 27.3613 30.4043 25.548C30.4043 23.6667 31.0163 22.2047 32.2403 21.162C33.487 20.0967 35.0736 19.564 37.0003 19.564H40.1963V16.368C40.1963 14.9853 39.9356 13.9087 39.4143 13.138C38.9156 12.3673 38.1336 11.982 37.0683 11.982C36.139 11.982 35.3796 12.2993 34.7903 12.934C34.2236 13.5687 33.9403 14.4413 33.9403 15.552C33.9403 15.9827 33.9856 16.4133 34.0763 16.844H31.2543C31.1636 16.2547 31.1183 15.79 31.1183 15.45C31.1183 13.6593 31.6283 12.2313 32.6483 11.166C33.691 10.078 35.1303 9.534 36.9663 9.534C39.0063 9.534 40.491 10.18 41.4203 11.472C42.3723 12.764 42.8483 14.5433 42.8483 16.81V19.564H48.4243V9.84H55.7683ZM40.1963 21.91H37.0683C35.867 21.91 34.8923 22.2387 34.1443 22.896C33.419 23.5307 33.0563 24.4147 33.0563 25.548C33.0563 26.636 33.3963 27.5087 34.0763 28.166C34.7563 28.8233 35.6176 29.152 36.6603 29.152C37.771 29.152 38.6323 28.7553 39.2443 27.962C39.879 27.1687 40.1963 26.0693 40.1963 24.664V21.91ZM58.4177 35V12.22H53.9297V9.84H65.7277V12.22H61.2737V35H58.4177ZM70.4518 23.474V28.132C70.4518 29.56 70.7805 30.7047 71.4378 31.566C72.0951 32.4273 73.0585 32.858 74.3278 32.858C75.5291 32.858 76.4698 32.4613 77.1498 31.668C77.8525 30.852 78.2038 29.7867 78.2038 28.472V27.826H80.9238V28.404C80.9238 30.512 80.3345 32.1893 79.1558 33.436C77.9998 34.6827 76.4131 35.306 74.3958 35.306C72.1971 35.306 70.5198 34.6373 69.3638 33.3C68.2305 31.9627 67.6638 30.1833 67.6638 27.962V21.162H71.2338C75.1098 21.162 77.0478 19.2693 77.0478 15.484V12.22H63.9238V9.84H83.9498V12.22H79.8698V15.484C79.8698 18.068 79.2351 20.0513 77.9658 21.434C76.6965 22.794 74.7698 23.474 72.1858 23.474H70.4518ZM107.551 12.22H103.063V35H100.207V20.516H95.2431C93.0671 20.516 91.3558 21.026 90.1091 22.046C88.8851 23.066 88.2731 24.5733 88.2731 26.568C88.2731 28.4947 88.8171 29.9907 89.9051 31.056C90.9931 32.1213 92.5684 32.654 94.6311 32.654H95.3791V34.932H94.2571C91.5598 34.932 89.4064 34.218 87.7971 32.79C86.2104 31.3393 85.4171 29.254 85.4171 26.534C85.4171 23.7007 86.2898 21.5813 88.0351 20.176C89.8031 18.7707 92.1604 18.068 95.1071 18.068H100.207V12.22H82.1191V9.84H107.551V12.22ZM134.171 12.22V19.598C134.67 18.51 135.418 17.6373 136.415 16.98C137.412 16.3227 138.625 15.994 140.053 15.994C141.413 15.994 142.637 16.3227 143.725 16.98C144.813 17.6373 145.652 18.5553 146.241 19.734C146.853 20.89 147.159 22.216 147.159 23.712C147.159 25.3213 146.853 26.7153 146.241 27.894C145.629 29.0727 144.779 29.9793 143.691 30.614C142.626 31.226 141.413 31.532 140.053 31.532C139.214 31.532 138.512 31.4527 137.945 31.294V29.05C138.308 29.1407 138.784 29.186 139.373 29.186C140.801 29.186 141.968 28.71 142.875 27.758C143.804 26.7833 144.269 25.4573 144.269 23.78C144.269 22.1707 143.793 20.8787 142.841 19.904C141.889 18.9293 140.699 18.442 139.271 18.442C137.594 18.442 136.324 18.9973 135.463 20.108C134.602 21.2187 134.171 22.5333 134.171 24.052V35H131.451V28.132C130.93 29.1973 130.148 30.0587 129.105 30.716C128.085 31.3507 126.827 31.668 125.331 31.668C123.926 31.668 122.668 31.3507 121.557 30.716C120.469 30.0587 119.619 29.1407 119.007 27.962C118.395 26.7607 118.089 25.3667 118.089 23.78C118.089 22.216 118.395 20.8447 119.007 19.666C119.642 18.4873 120.514 17.5807 121.625 16.946C122.736 16.3113 124.005 15.994 125.433 15.994C126.884 15.994 128.119 16.3113 129.139 16.946C130.159 17.5807 130.93 18.4193 131.451 19.462V12.22H114.791V9.84H150.423V12.22H134.171ZM126.215 29.288C127.371 29.288 128.334 29.016 129.105 28.472C129.898 27.928 130.488 27.248 130.873 26.432C131.258 25.5933 131.451 24.732 131.451 23.848C131.451 22.9413 131.258 22.08 130.873 21.264C130.51 20.4253 129.932 19.7453 129.139 19.224C128.346 18.7027 127.371 18.442 126.215 18.442C124.719 18.442 123.461 18.9293 122.441 19.904C121.444 20.8787 120.945 22.1707 120.945 23.78C120.945 25.48 121.432 26.8287 122.407 27.826C123.404 28.8007 124.674 29.288 126.215 29.288ZM160.423 9.84V12.22H155.969V35H153.113V12.22H148.625V9.84H153.181V9.534C153.181 7.58467 152.512 6.02067 151.175 4.842C149.86 3.66333 147.378 3.074 143.729 3.074C140.102 3.074 137.609 3.67466 136.249 4.876C134.889 6.05467 134.209 7.60733 134.209 9.534V10.52H131.489V9.364C131.489 6.712 132.441 4.604 134.345 3.04C136.226 1.476 139.354 0.693998 143.729 0.693998C148.172 0.693998 151.322 1.476 153.181 3.04C155.04 4.58133 155.969 6.68933 155.969 9.364V9.84H160.423ZM198.08 12.22H193.592V35H190.77V20.482H184.31V23.712C184.31 25.752 183.709 27.4067 182.508 28.676C181.329 29.9227 179.72 30.546 177.68 30.546C175.64 30.546 174.042 29.9227 172.886 28.676C171.73 27.4067 171.152 25.752 171.152 23.712V18.034H174.008V23.644C174.008 24.9587 174.336 26.024 174.994 26.84C175.674 27.656 176.58 28.064 177.714 28.064C178.892 28.064 179.822 27.656 180.502 26.84C181.204 26.024 181.556 24.9587 181.556 23.644V18.034H190.77V12.22H167.684V9.84H198.08V12.22ZM179.72 35.17C179.72 35.6913 179.538 36.1333 179.176 36.496C178.813 36.8587 178.36 37.04 177.816 37.04C177.272 37.04 176.818 36.8587 176.456 36.496C176.093 36.1333 175.912 35.6913 175.912 35.17C175.912 34.626 176.093 34.1727 176.456 33.81C176.818 33.4247 177.272 33.232 177.816 33.232C178.36 33.232 178.813 33.4247 179.176 33.81C179.538 34.1727 179.72 34.626 179.72 35.17ZM212.184 15.246C212.184 17.6487 211.516 19.5413 210.178 20.924H213.476C215.834 20.924 217.624 21.5133 218.848 22.692C220.095 23.848 220.718 25.5027 220.718 27.656V30.988H218.066V27.69C218.066 26.262 217.647 25.174 216.808 24.426C215.97 23.6553 214.768 23.27 213.204 23.27H202.766V28.132C202.766 29.56 203.095 30.7047 203.752 31.566C204.41 32.4273 205.373 32.858 206.642 32.858C207.844 32.858 208.784 32.4613 209.464 31.668C210.167 30.8747 210.518 29.8207 210.518 28.506V27.962H213.238V28.438C213.238 30.546 212.649 32.2233 211.47 33.47C210.314 34.694 208.728 35.306 206.71 35.306C204.512 35.306 202.834 34.6373 201.678 33.3C200.545 31.9627 199.978 30.1833 199.978 27.962V20.924H203.548C207.424 20.924 209.362 19.0313 209.362 15.246V12.22H196.238V9.84H223.676V12.22H212.184V15.246ZM202.766 23.168L203.004 23.032H202.766V23.168ZM228.366 23.474V28.132C228.366 29.56 228.695 30.7047 229.352 31.566C230.009 32.4273 230.973 32.858 232.242 32.858C233.443 32.858 234.384 32.4613 235.064 31.668C235.767 30.852 236.118 29.7867 236.118 28.472V27.826H238.838V28.404C238.838 30.512 238.249 32.1893 237.07 33.436C235.914 34.6827 234.327 35.306 232.31 35.306C230.111 35.306 228.434 34.6373 227.278 33.3C226.145 31.9627 225.578 30.1833 225.578 27.962V21.162H229.148C233.024 21.162 234.962 19.2693 234.962 15.484V12.22H221.838V9.84H241.864V12.22H237.784V15.484C237.784 18.068 237.149 20.0513 235.88 21.434C234.611 22.794 232.684 23.474 230.1 23.474H228.366ZM265.465 12.22H260.977V35H258.121V20.516H253.157C250.981 20.516 249.27 21.026 248.023 22.046C246.799 23.066 246.187 24.5733 246.187 26.568C246.187 28.4947 246.731 29.9907 247.819 31.056C248.907 32.1213 250.483 32.654 252.545 32.654H253.293V34.932H252.171C249.474 34.932 247.321 34.218 245.711 32.79C244.125 31.3393 243.331 29.254 243.331 26.534C243.331 23.7007 244.204 21.5813 245.949 20.176C247.717 18.7707 250.075 18.068 253.021 18.068H258.121V12.22H240.033V9.84H265.465V12.22ZM289.161 21.23V23.848H275.595V21.23H289.161ZM330.45 9.84V12.22H325.962V35H323.14V23.882L317.768 23.848C318.176 24.732 318.38 25.6613 318.38 26.636C318.38 28.6307 317.745 30.2287 316.476 31.43C315.229 32.6087 313.563 33.198 311.478 33.198C310.027 33.198 308.724 32.9147 307.568 32.348C306.435 31.7587 305.539 30.9427 304.882 29.9C304.247 28.8573 303.93 27.656 303.93 26.296H306.582C306.582 27.588 307.013 28.6533 307.874 29.492C308.758 30.3307 309.891 30.75 311.274 30.75C312.634 30.75 313.722 30.3533 314.538 29.56C315.354 28.744 315.762 27.69 315.762 26.398C315.762 25.4233 315.501 24.5733 314.98 23.848H314.878L314.844 23.644C314.005 22.6013 312.725 22.08 311.002 22.08H309.676V19.768H311.002C312.385 19.768 313.461 19.394 314.232 18.646C315.003 17.8753 315.388 16.98 315.388 15.96C315.388 14.736 314.991 13.7613 314.198 13.036C313.405 12.3107 312.407 11.948 311.206 11.948C309.959 11.948 308.917 12.3107 308.078 13.036C307.239 13.7387 306.82 14.6793 306.82 15.858H304.168C304.168 13.9313 304.825 12.4013 306.14 11.268C307.455 10.112 309.143 9.534 311.206 9.534C313.201 9.534 314.821 10.0893 316.068 11.2C317.315 12.288 317.938 13.75 317.938 15.586C317.938 16.9007 317.575 18.0227 316.85 18.952C316.147 19.8587 315.127 20.482 313.79 20.822V20.89C314.425 20.9807 315.037 21.196 315.626 21.536H323.14V9.84H330.45ZM352.724 12.22H348.27V35H345.448V25.378C344.882 26.3073 344.111 27.0327 343.136 27.554C342.184 28.0527 341.051 28.302 339.736 28.302C337.356 28.302 335.543 27.5427 334.296 26.024C333.072 24.5053 332.46 22.454 332.46 19.87V12.22H328.652V9.84H352.724V12.22ZM345.448 12.22H335.282V19.87C335.282 21.774 335.702 23.2587 336.54 24.324C337.402 25.3667 338.694 25.888 340.416 25.888C341.98 25.888 343.204 25.3893 344.088 24.392C344.995 23.372 345.448 22.114 345.448 20.618V12.22ZM379.594 12.22H375.106V35H372.284V20.244H365.654C366.22 20.788 366.662 21.4453 366.98 22.216C367.32 22.9867 367.49 23.8367 367.49 24.766C367.49 26.0353 367.195 27.146 366.606 28.098C366.039 29.05 365.257 29.7753 364.26 30.274C363.262 30.7727 362.14 31.022 360.894 31.022C359.602 31.022 358.423 30.75 357.358 30.206C356.315 29.662 355.488 28.9027 354.876 27.928C354.286 26.9307 353.992 25.7747 353.992 24.46C353.992 23.1 354.298 21.9213 354.91 20.924C355.544 19.9267 356.394 19.1673 357.46 18.646C358.548 18.1247 359.772 17.864 361.132 17.864H372.284V12.22H350.932V9.84H379.594V12.22ZM360.928 28.608C362.174 28.608 363.194 28.2227 363.988 27.452C364.804 26.6587 365.212 25.65 365.212 24.426C365.212 23.2247 364.804 22.2273 363.988 21.434C363.194 20.6407 362.174 20.244 360.928 20.244C359.658 20.244 358.616 20.6407 357.8 21.434C356.984 22.2047 356.576 23.2133 356.576 24.46C356.576 25.684 356.972 26.6813 357.766 27.452C358.582 28.2227 359.636 28.608 360.928 28.608ZM382.248 35V12.22H377.76V9.84H389.558V12.22H385.104V35H382.248ZM446.696 12.22V16.742C448.26 17.1273 449.496 17.9887 450.402 19.326C451.332 20.6407 451.796 22.3067 451.796 24.324C451.796 25.9333 451.49 27.3727 450.878 28.642C450.266 29.8887 449.348 30.8747 448.124 31.6C446.9 32.3027 445.427 32.654 443.704 32.654C443.523 32.654 443.138 32.6313 442.548 32.586V30.104C443.047 30.1493 443.376 30.172 443.534 30.172C445.234 30.172 446.56 29.6393 447.512 28.574C448.464 27.5087 448.94 26.1147 448.94 24.392C448.94 22.828 448.555 21.5473 447.784 20.55C447.036 19.5527 445.948 19.054 444.52 19.054C443.047 19.054 441.925 19.6207 441.154 20.754C440.384 21.8647 439.998 23.372 439.998 25.276V25.786H437.584V25.276C437.584 23.3947 437.21 21.8873 436.462 20.754C435.737 19.6207 434.672 19.054 433.266 19.054C431.793 19.054 430.66 19.5527 429.866 20.55C429.073 21.5247 428.676 22.8053 428.676 24.392C428.676 26.1147 429.152 27.5087 430.104 28.574C431.056 29.6393 432.382 30.172 434.082 30.172C434.286 30.172 434.615 30.1493 435.068 30.104V32.586C434.479 32.6313 434.094 32.654 433.912 32.654C432.19 32.654 430.716 32.3027 429.492 31.6C428.268 30.8747 427.35 29.8887 426.738 28.642C426.126 27.3727 425.82 25.9333 425.82 24.324C425.82 23.9613 425.832 23.6893 425.854 23.508C425.809 21.9667 425.344 20.7427 424.46 19.836C423.576 18.9067 422.443 18.442 421.06 18.442C419.406 18.442 418.182 18.9973 417.388 20.108C416.595 21.196 416.198 22.5107 416.198 24.052V35H413.478V28.132C412.957 29.1973 412.175 30.0587 411.132 30.716C410.112 31.3507 408.854 31.668 407.358 31.668C405.953 31.668 404.695 31.3507 403.584 30.716C402.496 30.0587 401.646 29.1407 401.034 27.962C400.422 26.7607 400.116 25.3667 400.116 23.78C400.116 22.216 400.422 20.8447 401.034 19.666C401.669 18.4873 402.542 17.5807 403.652 16.946C404.763 16.3113 406.032 15.994 407.46 15.994C408.911 15.994 410.146 16.3113 411.166 16.946C412.186 17.5807 412.957 18.4193 413.478 19.462V12.22H396.818V9.84H455.06V12.22H446.696ZM438.876 21.468C439.194 20.2213 439.76 19.1447 440.576 18.238C441.392 17.3313 442.503 16.7873 443.908 16.606V12.22H416.198V19.496C416.674 18.476 417.377 17.66 418.306 17.048C419.258 16.436 420.448 16.13 421.876 16.13C423.055 16.13 424.109 16.402 425.038 16.946C425.968 17.49 426.716 18.2607 427.282 19.258C427.917 18.374 428.71 17.7053 429.662 17.252C430.614 16.776 431.691 16.538 432.892 16.538C434.547 16.538 435.85 17.014 436.802 17.966C437.754 18.918 438.412 20.0853 438.774 21.468H438.876ZM408.242 29.288C409.398 29.288 410.362 29.016 411.132 28.472C411.926 27.928 412.515 27.248 412.9 26.432C413.286 25.5933 413.478 24.732 413.478 23.848C413.478 22.9413 413.286 22.08 412.9 21.264C412.538 20.4253 411.96 19.7453 411.166 19.224C410.373 18.7027 409.398 18.442 408.242 18.442C406.746 18.442 405.488 18.9293 404.468 19.904C403.471 20.8787 402.972 22.1707 402.972 23.78C402.972 25.48 403.46 26.8287 404.434 27.826C405.432 28.8007 406.701 29.288 408.242 29.288ZM457.752 35V12.22H453.264V9.84H465.062V12.22H460.608V35H457.752ZM480.496 15.756C480.496 17.1387 480.144 18.306 479.442 19.258C478.739 20.1873 477.832 20.7427 476.722 20.924V20.992C478.172 21.3093 479.328 22.08 480.19 23.304C481.074 24.528 481.516 25.956 481.516 27.588C481.516 29.016 481.221 30.2853 480.632 31.396C480.042 32.484 479.181 33.3453 478.048 33.98C476.937 34.592 475.611 34.898 474.07 34.898C472.506 34.898 471.1 34.5807 469.854 33.946C468.607 33.2887 467.632 32.382 466.93 31.226C466.25 30.07 465.91 28.7553 465.91 27.282H468.63C468.63 28.234 468.856 29.0953 469.31 29.866C469.786 30.6367 470.42 31.2487 471.214 31.702C472.03 32.1327 472.936 32.348 473.934 32.348C475.407 32.348 476.586 31.8947 477.47 30.988C478.376 30.0587 478.83 28.8573 478.83 27.384C478.83 26.024 478.399 24.8453 477.538 23.848C476.699 22.828 475.418 22.318 473.696 22.318H472.132V19.802H473.356C474.761 19.802 475.838 19.4167 476.586 18.646C477.356 17.8527 477.742 16.8327 477.742 15.586V12.22H463.258V9.84H484.644V12.22H480.496V15.756ZM493.592 18.374C492.459 18.374 491.496 18.5893 490.702 19.02C489.909 19.428 489.512 20.1533 489.512 21.196C489.512 22.1707 489.841 22.8847 490.498 23.338C491.178 23.7913 492.051 24.018 493.116 24.018H494.646C496.618 24.018 498.273 24.4713 499.61 25.378C500.948 26.2847 501.616 27.7467 501.616 29.764C501.616 31.4867 500.993 32.8693 499.746 33.912C498.5 34.9547 496.732 35.476 494.442 35.476C491.904 35.476 489.898 34.8867 488.424 33.708C486.951 32.5067 486.192 30.9087 486.146 28.914H488.934C488.957 30.2287 489.433 31.294 490.362 32.11C491.314 32.9033 492.652 33.3 494.374 33.3C495.848 33.3 496.97 32.9713 497.74 32.314C498.534 31.6567 498.93 30.7953 498.93 29.73C498.93 28.4153 498.477 27.4747 497.57 26.908C496.686 26.3413 495.553 26.058 494.17 26.058H492.776C491.076 26.058 489.626 25.6727 488.424 24.902C487.246 24.1313 486.656 22.8733 486.656 21.128C486.656 19.4733 487.246 18.2607 488.424 17.49C489.603 16.7193 491.065 16.334 492.81 16.334H496.686V12.22H482.814V9.84H504.132V12.22H499.406V18.374H493.592Z" fill="url(#paint0_linear_2518_10441)"/>
<defs>
<linearGradient id="paint0_linear_2518_10441" x1="-1" y1="23" x2="504" y2="23" gradientUnits="userSpaceOnUse">
<stop stop-color="#FFA800"/>
<stop offset="0.485" stop-color="white"/>
<stop offset="1" stop-color="#2F9200"/>
</linearGradient>
</defs>
</svg>
