<svg width="552" height="356" viewBox="0 0 552 356" fill="none" xmlns="http://www.w3.org/2000/svg">
<path d="M422.954 91.9867C414.858 92.0193 406.783 92.8045 398.833 94.3323C375.237 70.0153 343.829 54.7824 310.121 51.3063C292.815 29.4264 269.123 13.4777 242.335 5.67538C215.548 -2.12693 186.995 -1.39555 160.643 7.76798C134.29 16.9315 111.446 34.0723 95.2834 56.8095C79.1207 79.5468 70.4417 106.752 70.4519 134.646C70.4519 135.526 70.4519 136.405 70.4519 137.285C48.5894 142.704 29.4634 155.928 16.6762 174.466C3.88899 193.004 -1.67682 215.577 1.0271 237.933C3.73102 260.289 14.5181 280.885 31.3564 295.842C48.1948 310.799 69.9223 319.084 92.4465 319.137C98.5011 319.133 104.541 318.544 110.482 317.378C118.062 327.795 127.739 336.511 138.89 342.963C150.042 349.416 162.422 353.463 175.232 354.844C188.043 356.225 201.001 354.909 213.272 350.981C225.544 347.053 236.856 340.6 246.483 332.038C281.655 344.574 320.306 343.077 354.403 327.86C374.911 341.041 398.793 348.016 423.173 347.943C457.085 347.943 489.607 334.475 513.586 310.502C537.565 286.529 551.036 254.015 551.036 220.112C551.036 186.209 537.565 153.694 513.586 129.721C489.607 105.748 457.085 92.2799 423.173 92.2799L422.954 91.9867Z" fill="white"/>
</svg>
