<svg width="600" height="404" viewBox="0 0 600 404" fill="none" xmlns="http://www.w3.org/2000/svg">
<path fill-rule="evenodd" clip-rule="evenodd" d="M162.737 394.002C177.265 400.301 192.918 403.593 208.753 403.682C232.601 403.677 255.87 396.332 275.397 382.645C308.708 391.617 343.97 390.159 376.426 378.467C396.865 389.227 419.487 395.193 442.576 395.911C465.665 396.63 488.614 392.082 509.683 382.613C530.752 373.144 549.387 359.003 564.175 341.262C578.964 323.521 589.517 302.645 595.035 280.22C600.552 257.794 600.889 234.406 596.02 211.831C591.15 189.256 581.203 168.085 566.931 149.926C552.66 131.766 534.439 117.094 513.652 107.023C492.864 96.9516 470.056 91.7452 446.956 91.7986C441.617 91.7747 436.282 92.0439 430.973 92.6049C407.203 71.5731 377.979 57.6756 346.66 52.5109C326.079 29.6378 299.286 13.2457 269.547 5.3331C239.809 -2.57951 208.41 -1.67069 179.18 7.94879C149.949 17.5683 124.149 35.4827 104.926 59.508C85.7033 83.5332 73.8876 112.631 70.9199 143.254C46.1977 153.774 25.8693 172.508 13.3738 196.288C0.878268 220.068 -3.01711 247.434 2.34668 273.755C7.71046 300.076 22.0041 323.736 42.8093 340.734C63.6145 357.731 89.654 367.021 116.522 367.033H124.22C135.107 378.529 148.209 387.704 162.737 394.002ZM422.833 118.332C430.783 116.805 438.858 116.019 446.954 115.987L447.173 116.28C481.085 116.28 513.607 129.748 537.586 153.721C561.565 177.694 575.036 210.209 575.036 244.112C575.036 278.015 561.565 310.529 537.586 334.502C513.607 358.475 481.085 371.943 447.173 371.943C422.793 372.016 398.911 365.041 378.403 351.86C344.306 367.077 305.655 368.574 270.483 356.038C260.856 364.6 249.544 371.053 237.272 374.981C225.001 378.909 212.043 380.225 199.232 378.844C186.422 377.463 174.042 373.416 162.89 366.963C151.739 360.511 142.062 351.795 134.482 341.378C128.541 342.544 122.501 343.133 116.447 343.137C93.9223 343.084 72.1948 334.799 55.3564 319.842C38.5181 304.885 27.731 284.289 25.0271 261.933C22.3232 239.577 27.889 217.004 40.6762 198.466C53.4634 179.928 72.5894 166.704 94.4519 161.285V158.646C94.4417 130.752 103.121 103.547 119.283 80.8095C135.446 58.0723 158.29 40.9315 184.643 31.768C210.995 22.6045 239.548 21.8731 266.335 29.6754C293.123 37.4777 316.815 53.4264 334.121 75.3063C367.829 78.7824 399.237 94.0153 422.833 118.332Z" fill="url(#paint0_linear_2022_24)"/>
<path d="M94.5286 179.096C94.5286 178.217 94.5286 177.337 94.5286 176.457C94.5225 148.575 103.198 121.382 119.351 98.6524C135.505 75.9229 158.335 58.7842 184.673 49.6148C211.011 40.4455 239.551 39.7003 266.332 47.4826C293.112 55.2649 316.806 71.1888 334.124 93.0444C367.841 96.5464 399.248 111.805 422.836 136.144C430.781 134.58 438.86 133.795 446.957 133.798C479.31 133.831 510.447 146.125 534.093 168.201C557.739 190.277 572.135 220.494 574.38 252.761C574.38 249.829 574.38 246.824 574.38 243.818C574.399 209.985 560.995 177.526 537.107 153.561C513.219 129.597 480.798 116.084 446.957 115.987C438.861 116.019 430.786 116.804 422.836 118.332C399.24 94.0152 367.833 78.7823 334.124 75.3062C316.818 53.4263 293.126 37.4776 266.339 29.6753C239.551 21.8729 210.999 22.6043 184.646 31.7679C158.294 40.9314 135.45 58.0722 119.287 80.8094C103.124 103.547 94.4452 130.752 94.4553 158.646C94.4553 159.526 94.4553 160.405 94.4553 161.285C74.4727 166.273 56.7329 177.8 44.0586 194.031C31.3844 210.261 24.504 230.264 24.5122 250.855C24.5122 253.86 24.5122 256.865 24.9521 259.797C26.7713 240.802 34.4405 222.838 46.9023 208.384C59.364 193.929 76.0044 183.697 94.5286 179.096Z" fill="url(#paint1_linear_2022_24)"/>
<defs>
<linearGradient id="paint0_linear_2022_24" x1="299.478" y1="-37.1592" x2="299.478" y2="393.841" gradientUnits="userSpaceOnUse">
<stop stop-color="#00B3FF"/>
<stop offset="1" stop-color="#001BA8"/>
</linearGradient>
<linearGradient id="paint1_linear_2022_24" x1="277.938" y1="-134.659" x2="299.519" y2="120.678" gradientUnits="userSpaceOnUse">
<stop stop-color="#0702FF"/>
<stop offset="1" stop-color="#001767"/>
</linearGradient>
</defs>
</svg>
