<svg width="600" height="405" viewBox="0 0 600 405" fill="none" xmlns="http://www.w3.org/2000/svg">
<path d="M209.316 404.342C193.481 404.253 177.828 400.961 163.299 394.662C148.771 388.364 135.669 379.19 124.783 367.693C122.217 367.693 119.651 367.693 117.085 367.693C90.2165 367.681 64.177 358.391 43.3718 341.394C22.5666 324.397 8.27296 300.736 2.90918 274.415C-2.45461 248.094 1.44077 220.728 13.9363 196.948C26.4318 173.168 46.7602 154.434 71.4824 143.914C74.4501 113.291 86.2658 84.1933 105.489 60.1681C124.712 36.1429 150.511 18.2284 179.742 8.60894C208.973 -1.01053 240.371 -1.91935 270.11 5.99325C299.848 13.9059 326.641 30.298 347.223 53.1711C378.541 58.3358 407.766 72.2332 431.536 93.2651C436.844 92.704 442.18 92.4349 447.518 92.4588C470.618 92.4053 493.427 97.6117 514.214 107.683C535.002 117.755 553.222 132.426 567.494 150.586C581.765 168.745 591.713 189.916 596.582 212.491C601.451 235.066 601.115 258.454 595.597 280.88C590.08 303.306 579.526 324.181 564.738 341.922C549.949 359.663 531.314 373.804 510.245 383.273C489.176 392.742 466.227 397.29 443.138 396.571C420.05 395.853 397.428 389.887 376.989 379.127C344.533 390.819 309.271 392.277 275.96 383.305C256.433 396.992 233.164 404.337 209.316 404.342Z" fill="url(#paint0_linear_3135_10430)"/>
<path d="M209.316 404.342C193.481 404.253 177.828 400.961 163.299 394.662C148.771 388.364 135.669 379.19 124.783 367.693C122.217 367.693 119.651 367.693 117.085 367.693C90.2165 367.681 64.177 358.391 43.3718 341.394C22.5666 324.397 8.27296 300.736 2.90918 274.415C-2.45461 248.094 1.44077 220.728 13.9363 196.948C26.4318 173.168 46.7602 154.434 71.4824 143.914C74.4501 113.291 86.2658 84.1933 105.489 60.1681C124.712 36.1429 150.511 18.2284 179.742 8.60894C208.973 -1.01053 240.371 -1.91935 270.11 5.99325C299.848 13.9059 326.641 30.298 347.223 53.1711C378.541 58.3358 407.766 72.2332 431.536 93.2651C436.844 92.704 442.18 92.4349 447.518 92.4588C470.618 92.4053 493.427 97.6117 514.214 107.683C535.002 117.755 553.222 132.426 567.494 150.586C581.765 168.745 591.713 189.916 596.582 212.491C601.451 235.066 601.115 258.454 595.597 280.88C590.08 303.306 579.526 324.181 564.738 341.922C549.949 359.663 531.314 373.804 510.245 383.273C489.176 392.742 466.227 397.29 443.138 396.571C420.05 395.853 397.428 389.887 376.989 379.127C344.533 390.819 309.271 392.277 275.96 383.305C256.433 396.992 233.164 404.337 209.316 404.342Z" fill="url(#paint1_linear_3135_10430)"/>
<path d="M95.0907 179.755C95.0907 178.876 95.0907 177.996 95.0907 177.117C95.0845 149.234 103.76 122.041 119.914 99.3118C136.067 76.5822 158.897 59.4435 185.235 50.2741C211.573 41.1048 240.113 40.3596 266.894 48.1419C293.674 55.9242 317.368 71.8481 334.686 93.7037C368.403 97.2057 399.81 112.464 423.398 136.803C431.343 135.24 439.422 134.454 447.519 134.457C479.872 134.491 511.009 146.784 534.655 168.86C558.301 190.936 572.697 221.153 574.942 253.42C574.942 250.488 574.942 247.483 574.942 244.478C574.961 210.645 561.557 178.185 537.669 154.221C513.781 130.256 481.36 116.743 447.519 116.646C439.423 116.679 431.348 117.464 423.398 118.991C399.802 94.6745 368.395 79.4416 334.686 75.9655C317.38 54.0856 293.688 38.1369 266.901 30.3346C240.113 22.5322 211.561 23.2636 185.208 32.4272C158.856 41.5907 136.012 58.7315 119.849 81.4687C103.686 104.206 95.0072 131.411 95.0174 159.305C95.0174 160.185 95.0174 161.064 95.0174 161.944C75.0347 166.932 57.2949 178.459 44.6206 194.69C31.9464 210.921 25.066 230.923 25.0742 251.514C25.0742 254.519 25.0742 257.525 25.5141 260.457C27.3333 241.461 35.0025 223.497 47.4643 209.043C59.9261 194.589 76.5664 184.356 95.0907 179.755Z" fill="url(#paint2_linear_3135_10430)"/>
<defs>
<linearGradient id="paint0_linear_3135_10430" x1="300.081" y1="-103.833" x2="300.081" y2="365.274" gradientUnits="userSpaceOnUse">
<stop stop-color="#FFFF00"/>
<stop offset="1" stop-color="#006700"/>
</linearGradient>
<linearGradient id="paint1_linear_3135_10430" x1="300.04" y1="-36.499" x2="300.04" y2="394.501" gradientUnits="userSpaceOnUse">
<stop stop-color="#00B3FF"/>
<stop offset="1" stop-color="#001BA8"/>
</linearGradient>
<linearGradient id="paint2_linear_3135_10430" x1="278.5" y1="-134" x2="300.081" y2="121.337" gradientUnits="userSpaceOnUse">
<stop stop-color="#0702FF"/>
<stop offset="1" stop-color="#001767"/>
</linearGradient>
</defs>
</svg>
