<svg width="1417" height="266" viewBox="0 0 1417 266" fill="none" xmlns="http://www.w3.org/2000/svg">
<path d="M696.382 16.1525C708.793 16.1525 720.251 17.7226 730.423 20.8152C740.405 23.8603 749.028 28.2138 756.079 33.7805C762.988 39.2283 768.395 45.9132 772.183 53.621C775.971 61.3288 777.877 70.0833 777.877 79.6229C777.877 86.3791 776.638 92.3979 774.184 97.4651C771.564 102.913 768.229 107.909 764.298 112.262C760.224 116.806 755.77 120.898 751.101 124.419C746.074 128.225 741.31 131.746 736.974 134.91C732.305 138.312 728.327 141.666 725.135 144.83C720.823 149.136 718.631 153.846 718.631 158.842V166.407H673.751V148.922C673.751 146.019 674.513 143.355 676.061 140.714C677.967 137.503 680.445 134.315 683.422 131.246C686.686 127.892 690.188 124.561 693.856 121.326C697.858 117.781 701.694 114.07 705.196 110.264C708.936 106.22 712.104 101.914 714.558 97.4888C717.345 92.493 718.75 86.9501 718.75 81.0027C718.75 77.0774 718.107 73.2235 716.845 69.5362C715.511 65.7298 713.533 62.3279 710.937 59.4256C708.34 56.5471 705.172 54.1919 701.527 52.4315C697.739 50.6235 693.451 49.6957 688.782 49.6957C682.803 49.6957 677.729 50.8614 673.703 53.1928C669.725 55.4766 666.556 58.5454 664.317 62.2804C662.221 65.7536 660.791 69.7503 660.077 74.1275C659.457 77.9814 659.148 81.9305 659.148 85.9034V88.0682H609.288C609.288 88.0206 609.288 87.973 609.264 87.9255C609.074 86.1175 608.979 84.1905 608.979 82.1922C608.979 72.153 611.099 63.0416 615.268 55.0959C619.484 47.0551 625.44 40.1085 632.967 34.399C640.638 28.5944 649.929 24.0744 660.601 20.958C671.416 17.7702 683.47 16.1525 696.382 16.1525ZM696.382 9.01562C682.732 9.01562 670.13 10.7047 658.576 14.0828C647.022 17.4609 637.041 22.3378 628.632 28.6896C620.223 35.0652 613.648 42.7492 608.931 51.7416C604.19 60.7578 601.832 70.8922 601.832 82.1446C601.832 84.4046 601.951 86.5695 602.166 88.6391C602.38 90.7326 602.618 92.8975 602.833 95.1337H666.604C666.366 93.5636 666.271 92.0173 666.271 90.4947C666.271 88.9722 666.271 87.4259 666.271 85.8558C666.271 82.2636 666.556 78.6951 667.128 75.2219C667.7 71.7248 668.796 68.6322 670.439 65.9202C672.083 63.2081 674.346 61.0195 677.3 59.3305C680.23 57.6414 684.066 56.785 688.806 56.785C692.403 56.785 695.619 57.4511 698.454 58.8071C701.265 60.1631 703.671 61.9235 705.648 64.1359C707.625 66.3246 709.126 68.8939 710.127 71.82C711.151 74.7461 711.651 77.7911 711.651 80.9313C711.651 85.6655 710.556 89.9952 708.364 93.9442C706.172 97.8933 703.361 101.7 699.979 105.339C696.596 109.003 692.975 112.524 689.14 115.902C685.304 119.28 681.683 122.73 678.301 126.203C674.918 129.7 672.131 133.292 669.915 137.027C667.724 140.738 666.604 144.687 666.604 148.85V173.52H725.825V158.818C725.825 155.773 727.279 152.799 730.233 149.873C733.163 146.947 736.831 143.878 741.238 140.667C745.645 137.455 750.362 133.934 755.46 130.104C760.534 126.274 765.275 121.921 769.682 117.02C774.089 112.119 777.734 106.624 780.688 100.558C783.618 94.4676 785.095 87.4972 785.095 79.5991C785.095 68.8938 782.951 59.1877 778.663 50.457C774.375 41.7262 768.348 34.3039 760.558 28.1662C752.768 22.0285 743.43 17.2944 732.567 13.9638C721.609 10.6809 709.579 9.01562 696.382 9.01562Z" fill="url(#paint0_linear_160_14563)"/>
<path d="M719.492 207.445V248.982H673.92V207.445H719.492ZM726.638 200.309H666.773V256.119H726.638V200.309Z" fill="url(#paint1_linear_160_14563)"/>
<path d="M1416.98 182.608H732.477V158.89C732.477 157.391 733.811 155.75 734.931 154.632C737.623 151.944 741.053 149.089 745.151 146.091C749.582 142.856 754.346 139.311 759.444 135.458C764.828 131.39 769.926 126.703 774.595 121.493C779.383 116.164 783.433 110.098 786.625 103.461C789.984 96.4903 791.675 88.4732 791.675 79.6235C791.675 67.9667 789.293 57.1662 784.576 47.5552C779.859 37.9681 773.165 29.6893 764.613 22.9569C756.204 16.3434 746.056 11.1811 734.431 7.63644C722.996 4.16317 710.18 2.37895 696.387 2.37895C682.165 2.37895 668.825 4.16317 656.7 7.7078C644.407 11.3 633.616 16.5813 624.611 23.4089C615.464 30.3316 608.198 38.8483 603.029 48.6734C597.812 58.6174 595.167 69.8698 595.167 82.169C595.167 84.6669 595.287 87.0934 595.549 89.3772C595.763 91.4469 596.001 93.6118 596.216 95.848L596.811 101.819H674.28L673.184 94.2303C672.994 92.9932 672.922 91.7562 672.922 90.5191V85.8802C672.922 82.6448 673.184 79.4094 673.685 76.293C674.113 73.6524 674.923 71.321 676.115 69.3702C677.163 67.6336 678.64 66.23 680.593 65.1119C682.451 64.0414 685.286 63.4704 688.764 63.4704C691.384 63.4704 693.6 63.9224 695.529 64.8502C697.578 65.8256 699.246 67.0627 700.651 68.609C702.033 70.1553 703.081 71.9395 703.796 74.033C704.582 76.2692 704.963 78.553 704.963 80.9795C704.963 84.5955 704.153 87.7833 702.509 90.757C700.58 94.2303 698.055 97.6322 695.053 100.891C691.837 104.365 688.359 107.743 684.714 110.978C680.784 114.428 677.02 118.02 673.518 121.636C669.778 125.49 666.657 129.534 664.204 133.697C661.393 138.431 659.987 143.546 659.987 148.899V182.608H0V180.229H657.557V148.922C657.557 143.142 659.082 137.622 662.107 132.508C664.656 128.202 667.896 123.991 671.779 120.018C675.328 116.355 679.14 112.715 683.118 109.218C686.715 106.054 690.122 102.723 693.29 99.2975C696.173 96.181 698.555 92.9219 700.413 89.6151C701.866 87.0221 702.557 84.1911 702.557 81.0033C702.557 78.8385 702.223 76.8164 701.533 74.8418C700.913 73.0338 700.032 71.5351 698.865 70.2267C697.673 68.9182 696.244 67.8477 694.481 67.0151C692.885 66.2538 691.003 65.8732 688.74 65.8732C685.667 65.8732 683.261 66.3252 681.76 67.2054C680.164 68.1332 678.973 69.2513 678.139 70.6311C677.115 72.3201 676.4 74.366 676.019 76.6974C675.543 79.6949 675.281 82.7875 675.281 85.904V90.5429C675.281 91.6372 675.352 92.7791 675.519 93.8972L676.996 104.198H594.667L593.857 96.0859C593.643 93.8497 593.405 91.7086 593.19 89.6389C592.928 87.26 592.809 84.7621 592.809 82.169C592.809 69.4892 595.549 57.8323 600.956 47.5552C606.292 37.3971 613.772 28.6426 623.206 21.5057C632.449 14.5116 643.502 9.0876 656.08 5.42401C668.349 1.83179 681.927 0 696.387 0C710.418 0 723.449 1.808 735.146 5.37643C747.057 9.01623 757.467 14.2975 766.114 21.1251C774.928 28.0716 781.86 36.6359 786.72 46.5323C791.604 56.4763 794.081 67.6098 794.081 79.6473C794.081 88.8539 792.294 97.2278 788.793 104.507C785.505 111.335 781.313 117.592 776.381 123.087C771.617 128.392 766.4 133.198 760.897 137.361C755.775 141.215 751.011 144.759 746.58 148.018C742.578 150.945 739.243 153.728 736.646 156.321C735.217 157.748 734.883 158.676 734.883 158.89V180.229H1417.01V182.608H1416.98Z" fill="url(#paint2_linear_160_14563)"/>
<path d="M735.687 265.136H657.766V191.293H735.687V265.136ZM660.148 262.757H733.305V193.672H660.148V262.757Z" fill="url(#paint3_linear_160_14563)"/>
<path d="M469.111 257.44V220.312C469.111 219.192 468.943 218.492 468.607 218.212C468.327 217.876 467.627 217.708 466.507 217.708H446.431V260.044H466.507C467.627 260.044 468.327 259.904 468.607 259.624C468.943 259.288 469.111 258.56 469.111 257.44ZM435.175 212.752H473.731C478.155 212.752 480.367 214.964 480.367 219.388V258.364C480.367 262.788 478.155 265 473.731 265H435.175V212.752ZM505.318 265H494.398V224.26H505.318V265ZM494.23 216.868V208.72H505.57V216.868H494.23ZM532.09 260.044H546.034C547.098 260.044 547.854 259.848 548.302 259.456C548.75 259.008 548.974 258.28 548.974 257.272V231.988C548.974 230.98 548.75 230.28 548.302 229.888C547.854 229.44 547.098 229.216 546.034 229.216H532.09C530.97 229.216 530.242 229.384 529.906 229.72C529.626 230.056 529.486 230.756 529.486 231.82V257.44C529.486 258.56 529.626 259.288 529.906 259.624C530.242 259.904 530.97 260.044 532.09 260.044ZM548.974 208.804H559.81V265H548.974V262.396C548.302 264.132 546.734 265 544.27 265H525.286C520.862 265 518.65 262.788 518.65 258.364V230.896C518.65 226.472 520.862 224.26 525.286 224.26H544.27C546.734 224.26 548.302 225.128 548.974 226.864V208.804ZM623.399 265H612.143V248.032L590.135 212.752H601.391L617.687 240.724L633.227 212.752H644.399L623.399 247.948V265Z" fill="url(#paint4_linear_160_14563)"/>
<path d="M774.976 212.752V257.44C774.976 258.56 775.144 259.288 775.48 259.624C775.816 259.904 776.516 260.044 777.58 260.044H795.052C796.116 260.044 796.816 259.904 797.152 259.624C797.488 259.288 797.656 258.56 797.656 257.44V212.752H808.828V258.364C808.828 262.788 806.616 265 802.192 265H770.356C765.932 265 763.72 262.788 763.72 258.364V212.752H774.976ZM881.461 212.752H894.229L871.297 238.288L895.069 265H882.133L858.781 238.288L881.461 212.752ZM846.097 212.752H857.101V265H846.097V212.752ZM919.207 224.26H938.191C942.615 224.26 944.827 226.472 944.827 230.896V265H933.991V231.82C933.991 230.756 933.823 230.056 933.487 229.72C933.151 229.384 932.451 229.216 931.387 229.216H917.443C915.483 229.216 914.503 230.14 914.503 231.988V234.592H914.419V265H903.583V224.26H914.419V227.116C915.091 225.212 916.687 224.26 919.207 224.26ZM987.466 257.44V231.82C987.466 230.756 987.298 230.056 986.962 229.72C986.682 229.384 985.982 229.216 984.862 229.216H970.162C969.098 229.216 968.398 229.384 968.062 229.72C967.726 230.056 967.558 230.756 967.558 231.82V257.44C967.558 258.56 967.726 259.288 968.062 259.624C968.398 259.904 969.098 260.044 970.162 260.044H984.862C985.982 260.044 986.682 259.904 986.962 259.624C987.298 259.288 987.466 258.56 987.466 257.44ZM963.442 224.26H991.582C996.006 224.26 998.218 226.472 998.218 230.896V258.364C998.218 262.788 996.006 265 991.582 265H963.442C959.018 265 956.806 262.788 956.806 258.364V230.896C956.806 226.472 959.018 224.26 963.442 224.26ZM1067.91 224.26H1078.16L1064.47 265H1051.11L1042.13 232.324L1033.31 265H1019.95L1006.09 224.26H1016.42L1027.01 258.028L1036.67 224.26H1047.75L1057.25 258.028L1067.91 224.26Z" fill="url(#paint5_linear_160_14563)"/>
<defs>
<linearGradient id="paint0_linear_160_14563" x1="693.464" y1="173.52" x2="693.464" y2="9.01538" gradientUnits="userSpaceOnUse">
<stop stop-color="#FFE684"/>
<stop offset="0.0036" stop-color="#FEE482"/>
<stop offset="0.0751" stop-color="#ECC75D"/>
<stop offset="0.1465" stop-color="#DFB040"/>
<stop offset="0.217" stop-color="#D59F2B"/>
<stop offset="0.2863" stop-color="#CF951E"/>
<stop offset="0.3528" stop-color="#CD921A"/>
<stop offset="0.4928" stop-color="#C98D14"/>
<stop offset="0.6774" stop-color="#BD8003"/>
<stop offset="0.7055" stop-color="#C08509"/>
<stop offset="0.7432" stop-color="#C9921A"/>
<stop offset="0.7863" stop-color="#D7A836"/>
<stop offset="0.8331" stop-color="#EBC75D"/>
<stop offset="0.8733" stop-color="#FFE684"/>
<stop offset="0.9162" stop-color="#FFE684"/>
<stop offset="0.9659" stop-color="#CD921A"/>
<stop offset="1" stop-color="#DDAA36"/>
</linearGradient>
<linearGradient id="paint1_linear_160_14563" x1="696.706" y1="256.119" x2="696.706" y2="200.309" gradientUnits="userSpaceOnUse">
<stop stop-color="#FFE684"/>
<stop offset="0.0036" stop-color="#FEE482"/>
<stop offset="0.0751" stop-color="#ECC75D"/>
<stop offset="0.1465" stop-color="#DFB040"/>
<stop offset="0.217" stop-color="#D59F2B"/>
<stop offset="0.2863" stop-color="#CF951E"/>
<stop offset="0.3528" stop-color="#CD921A"/>
<stop offset="0.4928" stop-color="#C98D14"/>
<stop offset="0.6774" stop-color="#BD8003"/>
<stop offset="0.7055" stop-color="#C08509"/>
<stop offset="0.7432" stop-color="#C9921A"/>
<stop offset="0.7863" stop-color="#D7A836"/>
<stop offset="0.8331" stop-color="#EBC75D"/>
<stop offset="0.8733" stop-color="#FFE684"/>
<stop offset="0.9162" stop-color="#FFE684"/>
<stop offset="0.9659" stop-color="#CD921A"/>
<stop offset="1" stop-color="#DDAA36"/>
</linearGradient>
<linearGradient id="paint2_linear_160_14563" x1="713.509" y1="182.609" x2="713.509" y2="-0.000272108" gradientUnits="userSpaceOnUse">
<stop stop-color="#FFE684"/>
<stop offset="0.0036" stop-color="#FEE482"/>
<stop offset="0.0751" stop-color="#ECC75D"/>
<stop offset="0.1465" stop-color="#DFB040"/>
<stop offset="0.217" stop-color="#D59F2B"/>
<stop offset="0.2863" stop-color="#CF951E"/>
<stop offset="0.3528" stop-color="#CD921A"/>
<stop offset="0.4928" stop-color="#C98D14"/>
<stop offset="0.6774" stop-color="#BD8003"/>
<stop offset="0.7055" stop-color="#C08509"/>
<stop offset="0.7432" stop-color="#C9921A"/>
<stop offset="0.7863" stop-color="#D7A836"/>
<stop offset="0.8331" stop-color="#EBC75D"/>
<stop offset="0.8733" stop-color="#FFE684"/>
<stop offset="0.9162" stop-color="#FFE684"/>
<stop offset="0.9659" stop-color="#CD921A"/>
<stop offset="1" stop-color="#DDAA36"/>
</linearGradient>
<linearGradient id="paint3_linear_160_14563" x1="696.727" y1="265.136" x2="696.727" y2="191.293" gradientUnits="userSpaceOnUse">
<stop stop-color="#FFE684"/>
<stop offset="0.0036" stop-color="#FEE482"/>
<stop offset="0.0751" stop-color="#ECC75D"/>
<stop offset="0.1465" stop-color="#DFB040"/>
<stop offset="0.217" stop-color="#D59F2B"/>
<stop offset="0.2863" stop-color="#CF951E"/>
<stop offset="0.3528" stop-color="#CD921A"/>
<stop offset="0.4928" stop-color="#C98D14"/>
<stop offset="0.6774" stop-color="#BD8003"/>
<stop offset="0.7055" stop-color="#C08509"/>
<stop offset="0.7432" stop-color="#C9921A"/>
<stop offset="0.7863" stop-color="#D7A836"/>
<stop offset="0.8331" stop-color="#EBC75D"/>
<stop offset="0.8733" stop-color="#FFE684"/>
<stop offset="0.9162" stop-color="#FFE684"/>
<stop offset="0.9659" stop-color="#CD921A"/>
<stop offset="1" stop-color="#DDAA36"/>
</linearGradient>
<linearGradient id="paint4_linear_160_14563" x1="416.275" y1="239.001" x2="642.987" y2="239.001" gradientUnits="userSpaceOnUse">
<stop stop-color="#DDAA36"/>
<stop offset="0.0385" stop-color="#CD921A"/>
<stop offset="0.0758" stop-color="#FFE684"/>
<stop offset="0.1047" stop-color="#FFE684"/>
<stop offset="0.1247" stop-color="#F2D16A"/>
<stop offset="0.1582" stop-color="#DFB445"/>
<stop offset="0.1916" stop-color="#D09D28"/>
<stop offset="0.2246" stop-color="#C58C13"/>
<stop offset="0.257" stop-color="#BF8206"/>
<stop offset="0.2881" stop-color="#BD7F02"/>
<stop offset="0.3349" stop-color="#C3860A"/>
<stop offset="0.4325" stop-color="#CA8F16"/>
<stop offset="0.5331" stop-color="#CD921A"/>
<stop offset="0.6292" stop-color="#CB9018"/>
<stop offset="0.6851" stop-color="#C68A0F"/>
<stop offset="0.7289" stop-color="#BD7F02"/>
<stop offset="0.7514" stop-color="#BF8307"/>
<stop offset="0.7775" stop-color="#C78E15"/>
<stop offset="0.8053" stop-color="#D2A02C"/>
<stop offset="0.8344" stop-color="#E3BA4D"/>
<stop offset="0.8642" stop-color="#F8DB76"/>
<stop offset="0.8733" stop-color="#FFE684"/>
<stop offset="0.9162" stop-color="#FFE684"/>
<stop offset="0.9659" stop-color="#CD921A"/>
<stop offset="1" stop-color="#DDAA36"/>
</linearGradient>
<linearGradient id="paint5_linear_160_14563" x1="755.957" y1="239.001" x2="1082.1" y2="239.001" gradientUnits="userSpaceOnUse">
<stop stop-color="#DDAA36"/>
<stop offset="0.0341" stop-color="#CD921A"/>
<stop offset="0.0838" stop-color="#FFE684"/>
<stop offset="0.1267" stop-color="#FFE684"/>
<stop offset="0.1358" stop-color="#F8DB76"/>
<stop offset="0.1656" stop-color="#E3BA4D"/>
<stop offset="0.1947" stop-color="#D2A02C"/>
<stop offset="0.2225" stop-color="#C78E15"/>
<stop offset="0.2486" stop-color="#BF8307"/>
<stop offset="0.2711" stop-color="#BD7F02"/>
<stop offset="0.3149" stop-color="#C68A0F"/>
<stop offset="0.3708" stop-color="#CB9018"/>
<stop offset="0.4669" stop-color="#CD921A"/>
<stop offset="0.5675" stop-color="#CA8F16"/>
<stop offset="0.6651" stop-color="#C3860A"/>
<stop offset="0.7119" stop-color="#BD7F02"/>
<stop offset="0.743" stop-color="#BF8206"/>
<stop offset="0.7754" stop-color="#C58C13"/>
<stop offset="0.8084" stop-color="#D09D28"/>
<stop offset="0.8418" stop-color="#DFB445"/>
<stop offset="0.8753" stop-color="#F2D16A"/>
<stop offset="0.8953" stop-color="#FFE684"/>
<stop offset="0.9242" stop-color="#FFE684"/>
<stop offset="0.9615" stop-color="#CD921A"/>
<stop offset="1" stop-color="#DDAA36"/>
</linearGradient>
</defs>
</svg>
