<svg width="427" height="598" viewBox="0 0 427 598" fill="none" xmlns="http://www.w3.org/2000/svg">
<path fill-rule="evenodd" clip-rule="evenodd" d="M319.549 206.309C320.323 206.309 320.95 205.344 320.95 204.155C320.95 202.965 320.323 202 319.549 202C318.882 202 318.324 202.717 318.183 203.677H246.754L231.544 227.068H142.265L107.757 280.148C107.216 279.621 106.49 279.721 106.018 280.447C105.471 281.288 105.471 282.653 106.018 283.494C106.565 284.335 107.452 284.335 107.999 283.494C108.47 282.769 108.536 281.656 108.195 280.824L142.523 228.024H231.801L237.608 219.093V219.378H334.292L337.056 215.126C337.597 215.653 338.322 215.553 338.794 214.827C339.341 213.986 339.341 212.621 338.794 211.78C338.247 210.939 337.36 210.939 336.813 211.78C336.342 212.505 336.276 213.619 336.617 214.451L334.035 218.423H238.044L247.012 204.632H318.183C318.324 205.592 318.882 206.309 319.549 206.309ZM323.261 224.497C323.808 225.338 323.808 226.702 323.261 227.544C322.79 228.269 322.066 228.369 321.525 227.844L320.416 229.549H284.372L275.445 243.287H143.178L110.443 293.638H27.7671C27.6259 294.598 27.0677 295.316 26.4008 295.316C25.6272 295.316 25 294.351 25 293.161C25 291.971 25.6272 291.007 26.4008 291.007C27.0675 291.007 27.6256 291.723 27.767 292.683H110.185L142.921 242.332H275.187L284.115 228.594H320.159L321.085 227.169C320.743 226.336 320.808 225.222 321.28 224.497C321.827 223.655 322.714 223.655 323.261 224.497ZM37.3612 304.393C37.2198 303.433 36.6618 302.716 35.9951 302.716C35.2216 302.716 34.5942 303.681 34.5942 304.871C34.5942 306.061 35.2216 307.026 35.9951 307.026C36.662 307.026 37.2202 306.308 37.3614 305.348H117.39L149.796 255.5H282.06L289.833 243.545H335.628L341.782 234.074C342.323 234.599 343.047 234.499 343.518 233.773C344.065 232.932 344.065 231.567 343.518 230.726C342.971 229.885 342.084 229.885 341.537 230.727C341.065 231.453 341.001 232.567 341.343 233.4L335.37 242.59H289.575L281.803 254.545H149.539L117.133 304.393H37.3612ZM28.3948 317.966C29.0615 317.966 29.6196 318.683 29.7609 319.643H121.763L151.028 274.629H269.827L273.625 280.47H310.564L322.22 262.545H369.588L379.319 247.579C378.976 246.746 379.04 245.629 379.512 244.903C380.059 244.062 380.946 244.062 381.493 244.903C382.04 245.744 382.04 247.109 381.493 247.95C381.023 248.674 380.3 248.775 379.759 248.252L369.845 263.5H322.478L310.821 281.425H274.246L280.574 291.159H332.396L338.101 282.383H374.557L380.137 273.802H392.753C392.894 272.841 393.452 272.125 394.119 272.125C394.893 272.125 395.52 273.089 395.52 274.279C395.52 275.469 394.893 276.434 394.119 276.434C393.453 276.434 392.894 275.717 392.753 274.757H380.394L374.814 283.338H338.359L332.654 292.115H280.316L273.367 281.425H272.998V280.857L269.57 275.584H151.285L132.733 304.121H190.798L201.215 320.147H282.558L291.981 334.635H335.372L340.516 326.731C340.176 325.899 340.241 324.786 340.713 324.061C341.26 323.221 342.147 323.221 342.694 324.063C343.24 324.905 343.24 326.27 342.693 327.11C342.221 327.835 341.496 327.935 340.955 327.408L335.629 335.59H291.724L282.3 321.102H200.958L190.541 305.077H132.639V304.266L124.961 316.075H181.199L181.289 316.216L193.104 334.388H275.439L275.529 334.529L285.157 349.329H285.402V349.707L288.83 354.976H360.173C360.314 354.017 360.873 353.3 361.539 353.3C362.313 353.3 362.94 354.265 362.94 355.454C362.94 356.644 362.313 357.609 361.539 357.609C360.872 357.609 360.314 356.892 360.173 355.932H333.157L333.268 356.102L320.003 376.507H287.826L281.564 386.136H221.167L213.851 374.892H203.682L203.592 374.751L186.976 349.188L187.381 348.565H170.045L161.447 335.344H90.5667L101.024 351.423H146.234C146.375 350.463 146.933 349.746 147.6 349.746C148.373 349.746 149.001 350.711 149.001 351.901C149.001 353.09 148.373 354.055 147.6 354.055C146.933 354.055 146.375 353.338 146.234 352.378H100.766L100.676 352.238L89.6889 335.344H67.2603L85.1542 362.874H177.41L177.501 363.014L198.737 395.674H293.55C293.691 394.714 294.249 393.997 294.916 393.997C295.69 393.997 296.317 394.962 296.317 396.152C296.317 397.341 295.69 398.306 294.916 398.306C294.25 398.306 293.692 397.59 293.55 396.63H198.48L198.389 396.49L192.035 386.717H130.52L130.43 386.577L116.047 364.451L116.452 363.829H84.8968L84.8061 363.689L57.2781 321.337L57.7169 320.662L67.0058 334.953V334.389H161.705L170.302 347.61H213.95L225.522 365.419H257.015C257.157 364.459 257.715 363.742 258.381 363.742C259.155 363.742 259.782 364.707 259.782 365.897C259.782 367.087 259.155 368.051 258.381 368.051C257.715 368.051 257.156 367.334 257.015 366.375H225.265L213.693 348.565H187.448L203.94 373.936H214.109L221.425 385.18H281.307L287.569 375.552H319.745L332.501 355.932H288.573L288.482 355.792L284.9 350.285H235.549L225.911 335.45L225.98 335.344H192.847L192.756 335.203L180.941 317.031H124.34L122.02 320.599H29.761C29.6196 321.558 29.0616 322.275 28.3948 322.275C27.6212 322.275 26.9939 321.311 26.9939 320.121C26.9939 318.931 27.6212 317.966 28.3948 317.966ZM116.52 363.829L130.778 385.761H191.413L177.153 363.829H116.52ZM275.181 335.344L284.278 349.329H235.806L226.719 335.344H275.181ZM291.844 317.096H327.69L340.277 297.736H379.769L382.957 292.837C383.498 293.362 384.222 293.262 384.693 292.538C385.241 291.697 385.241 290.332 384.694 289.491C384.147 288.649 383.26 288.649 382.713 289.49C382.241 290.215 382.176 291.329 382.518 292.162L379.512 296.781H340.019L327.433 316.141H292.102L283.05 302.22H217.332L208.652 288.871H143.051V289.827H208.395L217.075 303.176H282.793L291.844 317.096Z" fill="url(#paint0_linear_3424_10594)"/>
<path fill-rule="evenodd" clip-rule="evenodd" d="M123.447 206.309C122.673 206.309 122.046 205.344 122.046 204.155C122.046 202.965 122.673 202 123.447 202C124.114 202 124.672 202.717 124.813 203.677H196.242L211.452 227.068H300.731L335.239 280.148C335.781 279.621 336.506 279.721 336.978 280.447C337.525 281.288 337.525 282.653 336.978 283.494C336.431 284.335 335.544 284.335 334.997 283.494C334.526 282.769 334.46 281.656 334.801 280.824L300.474 228.024H211.195L205.388 219.093V219.378H108.704L105.94 215.126C105.399 215.653 104.674 215.553 104.202 214.827C103.655 213.986 103.655 212.621 104.202 211.78C104.749 210.939 105.636 210.939 106.183 211.78C106.654 212.505 106.72 213.619 106.379 214.451L108.961 218.423H204.952L195.984 204.632H124.813C124.672 205.592 124.114 206.309 123.447 206.309ZM119.735 224.497C119.188 225.338 119.188 226.702 119.735 227.544C120.206 228.269 120.93 228.369 121.472 227.844L122.58 229.549H158.624L167.551 243.287H299.818L332.553 293.638H415.229C415.37 294.598 415.928 295.316 416.595 295.316C417.369 295.316 417.996 294.351 417.996 293.161C417.996 291.971 417.369 291.007 416.595 291.007C415.929 291.007 415.37 291.723 415.229 292.683H332.811L300.076 242.332H167.809L158.881 228.594H122.837L121.911 227.169C122.253 226.336 122.188 225.222 121.716 224.497C121.169 223.655 120.282 223.655 119.735 224.497ZM405.635 304.393C405.776 303.433 406.334 302.716 407.001 302.716C407.775 302.716 408.402 303.681 408.402 304.871C408.402 306.061 407.775 307.026 407.001 307.026C406.334 307.026 405.776 306.308 405.635 305.348H325.606L293.2 255.5H160.936L153.163 243.545H107.368L101.214 234.074C100.673 234.599 99.9488 234.499 99.4776 233.773C98.9307 232.932 98.931 231.567 99.4781 230.726C100.025 229.885 100.912 229.885 101.459 230.727C101.931 231.453 101.995 232.567 101.653 233.4L107.626 242.59H153.421L161.193 254.545H293.458L325.864 304.393H405.635ZM414.601 317.966C413.935 317.966 413.377 318.683 413.235 319.643H321.233L291.968 274.629H173.169L169.371 280.47H132.432L120.776 262.545H73.408L63.6772 247.579C64.0203 246.746 63.9557 245.629 63.4836 244.903C62.9367 244.062 62.0497 244.062 61.5026 244.903C60.9557 245.744 60.9557 247.109 61.5026 247.95C61.9736 248.674 62.6966 248.775 63.2375 248.252L73.1506 263.5H120.518L132.175 281.425H168.75L162.422 291.159H110.6L104.895 282.383H68.4394L62.8596 273.802H50.2431C50.1018 272.841 49.5436 272.125 48.8769 272.125C48.1032 272.125 47.476 273.089 47.476 274.279C47.476 275.469 48.1033 276.434 48.8769 276.434C49.5435 276.434 50.1017 275.717 50.243 274.757H62.6022L68.182 283.338H104.637L110.342 292.115H162.68L169.629 281.425H169.998V280.857L173.426 275.584H291.711L310.264 304.121H252.198L241.781 320.147H160.438L151.015 334.635H107.624L102.48 326.731C102.821 325.899 102.755 324.786 102.283 324.061C101.736 323.221 100.849 323.221 100.302 324.063C99.7557 324.905 99.7562 326.27 100.304 327.11C100.775 327.835 101.5 327.935 102.041 327.408L107.367 335.59H151.273L160.696 321.102H242.039L252.455 305.077H310.358V304.266L318.035 316.075H261.798L261.707 316.216L249.892 334.388H167.558L167.467 334.529L157.84 349.329H157.594V349.707L154.166 354.976H82.8231C82.6817 354.017 82.1235 353.3 81.4568 353.3C80.6834 353.3 80.0562 354.265 80.0562 355.454C80.0562 356.644 80.6834 357.609 81.4568 357.609C82.1237 357.609 82.6819 356.892 82.8232 355.932H109.839L109.728 356.102L122.993 376.507H155.17L161.432 386.136H221.829L229.145 374.892H239.314L239.404 374.751L256.02 349.188L255.615 348.565H272.951L281.549 335.344H352.429L341.972 351.423H296.763C296.621 350.463 296.063 349.746 295.396 349.746C294.623 349.746 293.995 350.711 293.995 351.901C293.995 353.09 294.623 354.055 295.396 354.055C296.063 354.055 296.621 353.338 296.763 352.378H342.23L342.32 352.238L353.307 335.344H375.736L357.842 362.874H265.586L265.495 363.014L244.259 395.674H149.446C149.305 394.714 148.747 393.997 148.08 393.997C147.306 393.997 146.679 394.962 146.679 396.152C146.679 397.341 147.306 398.306 148.08 398.306C148.746 398.306 149.304 397.59 149.446 396.63H244.516L244.607 396.49L250.961 386.717H312.476L312.566 386.577L326.949 364.451L326.544 363.829H358.099L358.19 363.689L385.718 321.337L385.279 320.662L375.99 334.953V334.389H281.291L272.694 347.61H229.046L217.474 365.419H185.981C185.84 364.459 185.281 363.742 184.615 363.742C183.841 363.742 183.214 364.707 183.214 365.897C183.214 367.087 183.841 368.051 184.615 368.051C185.281 368.051 185.84 367.334 185.981 366.375H217.731L229.303 348.565H255.548L239.056 373.936H228.887L221.571 385.18H161.689L155.427 375.552H123.251L110.495 355.932H154.424L154.514 355.792L158.096 350.285H207.447L217.085 335.45L217.016 335.344H250.149L250.24 335.203L262.055 317.031H318.656L320.976 320.599H413.235C413.376 321.558 413.935 322.275 414.601 322.275C415.375 322.275 416.002 321.311 416.002 320.121C416.002 318.931 415.375 317.966 414.601 317.966ZM326.476 363.829L312.218 385.761H251.583L265.843 363.829H326.476ZM167.815 335.344L158.718 349.329H207.19L216.277 335.344H167.815ZM151.152 317.096H115.306L102.72 297.736H63.2268L60.0392 292.837C59.4982 293.362 58.7742 293.262 58.3029 292.538C57.7555 291.697 57.7552 290.332 58.3019 289.491C58.8488 288.649 59.7357 288.649 60.2829 289.49C60.7548 290.215 60.82 291.329 60.4784 292.162L63.4842 296.781H102.977L115.563 316.141H150.894L159.946 302.22H225.664L234.344 288.871H299.945V289.827H234.601L225.922 303.176H160.203L151.152 317.096Z" fill="url(#paint1_linear_3424_10594)"/>
<g opacity="0.5" filter="url(#filter0_f_3424_10594)">
<ellipse cx="213.5" cy="299" rx="59.5" ry="145" fill="url(#paint2_linear_3424_10594)"/>
</g>
<path d="M329.816 144.965H116.805V185.469H192.023C220.012 190.05 240.934 201.422 249.482 216.409H116.805V256.913H246.745C245.299 258.89 243.639 260.721 241.741 262.442C218.772 283.246 170.973 284.202 128.012 283.482L124.204 283.418V311.286L266.432 454.262H323.673L192.069 321.94C216.765 319.148 247.694 311.654 268.862 292.521C279.726 282.705 287.215 270.738 291.151 256.913H329.816V216.409H292.539C290.012 205.108 284.915 194.742 277.334 185.469H329.816L329.816 144.965Z" fill="url(#paint3_linear_3424_10594)"/>
<defs>
<filter id="filter0_f_3424_10594" x="0" y="0" width="427" height="598" filterUnits="userSpaceOnUse" color-interpolation-filters="sRGB">
<feFlood flood-opacity="0" result="BackgroundImageFix"/>
<feBlend mode="normal" in="SourceGraphic" in2="BackgroundImageFix" result="shape"/>
<feGaussianBlur stdDeviation="77" result="effect1_foregroundBlur_3424_10594"/>
</filter>
<linearGradient id="paint0_linear_3424_10594" x1="231.033" y1="292.926" x2="344.092" y2="292.797" gradientUnits="userSpaceOnUse">
<stop stop-color="#00000B"/>
<stop offset="0.531" stop-color="#05D1ED"/>
<stop offset="1" stop-color="#0047FF"/>
</linearGradient>
<linearGradient id="paint1_linear_3424_10594" x1="211.963" y1="292.926" x2="98.9045" y2="292.797" gradientUnits="userSpaceOnUse">
<stop stop-color="#00000B"/>
<stop offset="0.531" stop-color="#05D1ED"/>
<stop offset="1" stop-color="#0047FF"/>
</linearGradient>
<linearGradient id="paint2_linear_3424_10594" x1="224.547" y1="164.603" x2="275.021" y2="437.901" gradientUnits="userSpaceOnUse">
<stop stop-color="#00A3FF"/>
<stop offset="1" stop-color="#9C9F12"/>
</linearGradient>
<linearGradient id="paint3_linear_3424_10594" x1="243.084" y1="156.274" x2="275.857" y2="454.094" gradientUnits="userSpaceOnUse">
<stop stop-color="#00A3FF"/>
<stop offset="1" stop-color="#9C9F12"/>
</linearGradient>
</defs>
</svg>
