<svg width="50" height="50" viewBox="0 0 50 50" fill="none" xmlns="http://www.w3.org/2000/svg">
<path d="M20.4545 30.7292C20.5182 30.8583 20.4545 30.5771 20.4545 30.7292ZM48.8636 6.25C48.2364 6.25 47.7273 6.71667 47.7273 7.29167V14.2229C43.5545 7.28542 35.2045 2.50417 26.1886 2.11042C25.5773 2.03333 25.0318 2.525 25.0023 3.10208C24.9705 3.675 25.4545 4.16458 26.0841 4.18958C34.9295 4.57917 43.0545 9.57917 46.5023 16.6667H37.5C36.8727 16.6667 36.3636 17.1333 36.3636 17.7083C36.3636 18.2833 36.8727 18.75 37.5 18.75H46.5909C48.4705 18.75 50 17.3479 50 15.625V7.29167C50 6.71667 49.4909 6.25 48.8636 6.25ZM5.68182 22.9167C2.54773 22.9167 0 20.5812 0 17.7083V5.20833C0 2.33542 2.54773 0 5.68182 0H10.6182C12.1364 0 13.5614 0.541667 14.6364 1.525L18.7909 5.33333C19.8659 6.31875 20.4545 7.625 20.4545 9.01667V17.7083C20.4545 20.5812 17.9068 22.9167 14.7727 22.9167H5.68182ZM13.6364 6.25H16.575L13.6364 3.55625V6.25ZM5.68182 20.8333H14.7727C16.6523 20.8333 18.1818 19.4312 18.1818 17.7083V9.01667C18.1818 8.78542 18.1455 8.55625 18.0909 8.33333H13.6364C12.3818 8.33333 11.3636 7.4 11.3636 6.25V2.16667C11.1182 2.11667 10.8705 2.08333 10.6182 2.08333H5.68182C3.80227 2.08333 2.27273 3.48542 2.27273 5.20833V17.7083C2.27273 19.4312 3.80227 20.8333 5.68182 20.8333ZM20.4545 30.7292V46.5271C20.4545 48.925 15.8886 50 11.3636 50C6.83864 50 2.27273 48.925 2.27273 46.5271V30.7292C2.27273 27.9917 7.00909 27.1396 11.3636 27.0833C15.4773 27.0833 20.4545 28.0458 20.4545 30.7292ZM4.55 30.7292C4.75 31.1792 7.05682 32.2917 11.3636 32.2917C15.7318 32.2917 18.0409 31.1458 18.1841 30.7104C18.0432 30.3125 15.7318 29.1667 11.3636 29.1667C7.05455 29.1667 4.75 30.2792 4.55 30.7292ZM4.54545 36.0667C4.81136 36.4917 7.14091 37.5 11.3636 37.5C15.6273 37.5 17.9591 36.4729 18.1864 36.0542V33.2187C16.4068 33.9937 13.8477 34.375 11.3636 34.375C8.87955 34.375 6.32273 33.9937 4.54545 33.2208V36.0667ZM4.54545 41.275C4.81136 41.7 7.14091 42.7083 11.3636 42.7083C15.6386 42.7083 17.9727 41.675 18.1886 41.2604V38.5062C16.4364 39.2292 13.9068 39.5833 11.3636 39.5833C8.82045 39.5833 6.29545 39.2312 4.54545 38.5083V41.275ZM18.1932 46.4646V43.7125C16.4409 44.4375 13.9114 44.7917 11.3636 44.7917C8.81591 44.7917 6.29545 44.4396 4.54545 43.7167V46.5271C4.74091 46.8771 7.07727 47.9167 11.3636 47.9167C15.65 47.9167 17.9864 46.8771 18.1932 46.4646ZM47.7273 30.7292C47.7909 30.8583 47.7273 30.5771 47.7273 30.7292ZM47.7273 30.7292V46.5271C47.7273 48.925 43.1614 50 38.6364 50C34.1114 50 29.5455 48.925 29.5455 46.5271V30.7292C29.5455 28.0979 34.2818 27.1396 38.6364 27.0833C42.75 27.0833 47.7273 28.0979 47.7273 30.7292ZM31.8227 30.7292C32.0227 31.1792 34.3295 32.2917 38.6364 32.2917C43.0045 32.2917 45.3136 31.1458 45.4568 30.7104C45.3159 30.3125 43.0045 29.1667 38.6364 29.1667C34.3273 29.1667 32.0227 30.2792 31.8227 30.7292ZM31.8182 36.0667C32.0841 36.4917 34.4136 37.5 38.6364 37.5C42.9 37.5 45.2318 36.4729 45.4591 36.0542V33.2187C43.6795 33.9937 41.1205 34.375 38.6364 34.375C36.1523 34.375 33.5955 33.9937 31.8182 33.2208V36.0667ZM31.8182 41.275C32.0841 41.7 34.4136 42.7083 38.6364 42.7083C42.9114 42.7083 45.2455 41.675 45.4614 41.2604V38.5062C43.7091 39.2292 41.1795 39.5833 38.6364 39.5833C36.0932 39.5833 33.5682 39.2312 31.8182 38.5083V41.275ZM45.4659 46.4646V43.7125C43.7136 44.4375 41.1841 44.7917 38.6364 44.7917C36.0886 44.7917 33.5682 44.4396 31.8182 43.7167V46.5271C32.0136 46.8771 34.35 47.9167 38.6364 47.9167C42.9227 47.9167 45.2591 46.8771 45.4659 46.4646Z" fill="black"/>
<path d="M20.4545 30.7292C20.5182 30.8583 20.4545 30.5771 20.4545 30.7292ZM48.8636 6.25C48.2364 6.25 47.7273 6.71667 47.7273 7.29167V14.2229C43.5545 7.28542 35.2045 2.50417 26.1886 2.11042C25.5773 2.03333 25.0318 2.525 25.0023 3.10208C24.9705 3.675 25.4545 4.16458 26.0841 4.18958C34.9295 4.57917 43.0545 9.57917 46.5023 16.6667H37.5C36.8727 16.6667 36.3636 17.1333 36.3636 17.7083C36.3636 18.2833 36.8727 18.75 37.5 18.75H46.5909C48.4705 18.75 50 17.3479 50 15.625V7.29167C50 6.71667 49.4909 6.25 48.8636 6.25ZM5.68182 22.9167C2.54773 22.9167 0 20.5812 0 17.7083V5.20833C0 2.33542 2.54773 0 5.68182 0H10.6182C12.1364 0 13.5614 0.541667 14.6364 1.525L18.7909 5.33333C19.8659 6.31875 20.4545 7.625 20.4545 9.01667V17.7083C20.4545 20.5812 17.9068 22.9167 14.7727 22.9167H5.68182ZM13.6364 6.25H16.575L13.6364 3.55625V6.25ZM5.68182 20.8333H14.7727C16.6523 20.8333 18.1818 19.4312 18.1818 17.7083V9.01667C18.1818 8.78542 18.1455 8.55625 18.0909 8.33333H13.6364C12.3818 8.33333 11.3636 7.4 11.3636 6.25V2.16667C11.1182 2.11667 10.8705 2.08333 10.6182 2.08333H5.68182C3.80227 2.08333 2.27273 3.48542 2.27273 5.20833V17.7083C2.27273 19.4312 3.80227 20.8333 5.68182 20.8333ZM20.4545 30.7292V46.5271C20.4545 48.925 15.8886 50 11.3636 50C6.83864 50 2.27273 48.925 2.27273 46.5271V30.7292C2.27273 27.9917 7.00909 27.1396 11.3636 27.0833C15.4773 27.0833 20.4545 28.0458 20.4545 30.7292ZM4.55 30.7292C4.75 31.1792 7.05682 32.2917 11.3636 32.2917C15.7318 32.2917 18.0409 31.1458 18.1841 30.7104C18.0432 30.3125 15.7318 29.1667 11.3636 29.1667C7.05455 29.1667 4.75 30.2792 4.55 30.7292ZM4.54545 36.0667C4.81136 36.4917 7.14091 37.5 11.3636 37.5C15.6273 37.5 17.9591 36.4729 18.1864 36.0542V33.2187C16.4068 33.9937 13.8477 34.375 11.3636 34.375C8.87955 34.375 6.32273 33.9937 4.54545 33.2208V36.0667ZM4.54545 41.275C4.81136 41.7 7.14091 42.7083 11.3636 42.7083C15.6386 42.7083 17.9727 41.675 18.1886 41.2604V38.5062C16.4364 39.2292 13.9068 39.5833 11.3636 39.5833C8.82045 39.5833 6.29545 39.2312 4.54545 38.5083V41.275ZM18.1932 46.4646V43.7125C16.4409 44.4375 13.9114 44.7917 11.3636 44.7917C8.81591 44.7917 6.29545 44.4396 4.54545 43.7167V46.5271C4.74091 46.8771 7.07727 47.9167 11.3636 47.9167C15.65 47.9167 17.9864 46.8771 18.1932 46.4646ZM47.7273 30.7292C47.7909 30.8583 47.7273 30.5771 47.7273 30.7292ZM47.7273 30.7292V46.5271C47.7273 48.925 43.1614 50 38.6364 50C34.1114 50 29.5455 48.925 29.5455 46.5271V30.7292C29.5455 28.0979 34.2818 27.1396 38.6364 27.0833C42.75 27.0833 47.7273 28.0979 47.7273 30.7292ZM31.8227 30.7292C32.0227 31.1792 34.3295 32.2917 38.6364 32.2917C43.0045 32.2917 45.3136 31.1458 45.4568 30.7104C45.3159 30.3125 43.0045 29.1667 38.6364 29.1667C34.3273 29.1667 32.0227 30.2792 31.8227 30.7292ZM31.8182 36.0667C32.0841 36.4917 34.4136 37.5 38.6364 37.5C42.9 37.5 45.2318 36.4729 45.4591 36.0542V33.2187C43.6795 33.9937 41.1205 34.375 38.6364 34.375C36.1523 34.375 33.5955 33.9937 31.8182 33.2208V36.0667ZM31.8182 41.275C32.0841 41.7 34.4136 42.7083 38.6364 42.7083C42.9114 42.7083 45.2455 41.675 45.4614 41.2604V38.5062C43.7091 39.2292 41.1795 39.5833 38.6364 39.5833C36.0932 39.5833 33.5682 39.2312 31.8182 38.5083V41.275ZM45.4659 46.4646V43.7125C43.7136 44.4375 41.1841 44.7917 38.6364 44.7917C36.0886 44.7917 33.5682 44.4396 31.8182 43.7167V46.5271C32.0136 46.8771 34.35 47.9167 38.6364 47.9167C42.9227 47.9167 45.2591 46.8771 45.4659 46.4646Z" fill="url(#paint0_linear_2116_13)"/>
<defs>
<linearGradient id="paint0_linear_2116_13" x1="25" y1="0" x2="25" y2="50" gradientUnits="userSpaceOnUse">
<stop stop-color="#00C2FF"/>
<stop offset="1" stop-color="#0596FF"/>
</linearGradient>
</defs>
</svg>
