<svg width="50" height="50" viewBox="0 0 50 50" fill="none" xmlns="http://www.w3.org/2000/svg">
<path d="M5.84375 38.6708C3.52292 37.3854 2.08333 34.9396 2.08333 32.2917V16.6667H41.6667V34.375C41.6667 34.95 42.1333 35.4167 42.7083 35.4167C43.2833 35.4167 43.75 34.95 43.75 34.375V13.5417C43.75 8.37292 39.5437 4.16667 34.375 4.16667H33.3333V1.04167C33.3333 0.466667 32.8667 0 32.2917 0C31.7167 0 31.25 0.466667 31.25 1.04167V4.16667H12.5V1.04167C12.5 0.466667 12.0333 0 11.4583 0C10.8833 0 10.4167 0.466667 10.4167 1.04167V4.16667H9.375C4.20625 4.16667 0 8.37292 0 13.5417V32.2917C0 35.6979 1.85208 38.8417 4.83333 40.4958C4.99375 40.5833 5.16667 40.625 5.3375 40.625C5.70417 40.625 6.05833 40.4312 6.25 40.0896C6.52917 39.5854 6.34583 38.95 5.84375 38.6708ZM9.375 6.25H34.375C38.3958 6.25 41.6667 9.52083 41.6667 13.5417V14.5833H2.08333V13.5417C2.08333 9.52083 5.35417 6.25 9.375 6.25ZM50 48.9583C50 49.5333 49.5333 50 48.9583 50C48.3833 50 47.9167 49.5333 47.9167 48.9583C47.9167 45.5479 45.8458 42.6542 42.5083 41.4021L31.925 37.4333C31.5187 37.2813 31.25 36.8917 31.25 36.4583V26.2646C31.25 24.6208 30.1354 23.2 28.6583 22.9604C27.7187 22.8062 26.8125 23.0542 26.1021 23.6604C25.4021 24.2562 25 25.125 25 26.0417V41.5083C25 42.3833 24.5104 43.1646 23.7208 43.5458C22.9333 43.925 22.0167 43.8229 21.3312 43.2792C21.3312 43.2792 17.7583 40.4292 17.75 40.4208C16.4875 39.25 14.5146 39.3187 13.3438 40.5729C12.1667 41.8312 12.2312 43.8167 13.4771 44.9854L16.8792 48.2167C17.5562 48.8604 17.1021 50 16.1667 50C15.9021 50 15.6479 49.9 15.4563 49.7187L12.0396 46.4937C9.95625 44.5417 9.85625 41.2479 11.8187 39.1521C13.7521 37.0812 16.9875 36.9562 19.0875 38.8396C19.0937 38.8458 22.625 41.65 22.625 41.65L22.9125 41.5104V26.0438C22.9125 24.5146 23.5812 23.0667 24.7479 22.075C25.9146 21.0833 27.4687 20.6625 28.9875 20.9042C31.4625 21.3083 33.3292 23.6125 33.3292 26.2646V35.7354L43.2375 39.45C47.4062 41.0146 49.9958 44.6583 49.9958 48.9562L50 48.9583Z" fill="black"/>
<path d="M5.84375 38.6708C3.52292 37.3854 2.08333 34.9396 2.08333 32.2917V16.6667H41.6667V34.375C41.6667 34.95 42.1333 35.4167 42.7083 35.4167C43.2833 35.4167 43.75 34.95 43.75 34.375V13.5417C43.75 8.37292 39.5437 4.16667 34.375 4.16667H33.3333V1.04167C33.3333 0.466667 32.8667 0 32.2917 0C31.7167 0 31.25 0.466667 31.25 1.04167V4.16667H12.5V1.04167C12.5 0.466667 12.0333 0 11.4583 0C10.8833 0 10.4167 0.466667 10.4167 1.04167V4.16667H9.375C4.20625 4.16667 0 8.37292 0 13.5417V32.2917C0 35.6979 1.85208 38.8417 4.83333 40.4958C4.99375 40.5833 5.16667 40.625 5.3375 40.625C5.70417 40.625 6.05833 40.4312 6.25 40.0896C6.52917 39.5854 6.34583 38.95 5.84375 38.6708ZM9.375 6.25H34.375C38.3958 6.25 41.6667 9.52083 41.6667 13.5417V14.5833H2.08333V13.5417C2.08333 9.52083 5.35417 6.25 9.375 6.25ZM50 48.9583C50 49.5333 49.5333 50 48.9583 50C48.3833 50 47.9167 49.5333 47.9167 48.9583C47.9167 45.5479 45.8458 42.6542 42.5083 41.4021L31.925 37.4333C31.5187 37.2813 31.25 36.8917 31.25 36.4583V26.2646C31.25 24.6208 30.1354 23.2 28.6583 22.9604C27.7187 22.8062 26.8125 23.0542 26.1021 23.6604C25.4021 24.2562 25 25.125 25 26.0417V41.5083C25 42.3833 24.5104 43.1646 23.7208 43.5458C22.9333 43.925 22.0167 43.8229 21.3312 43.2792C21.3312 43.2792 17.7583 40.4292 17.75 40.4208C16.4875 39.25 14.5146 39.3187 13.3438 40.5729C12.1667 41.8312 12.2312 43.8167 13.4771 44.9854L16.8792 48.2167C17.5562 48.8604 17.1021 50 16.1667 50C15.9021 50 15.6479 49.9 15.4563 49.7187L12.0396 46.4937C9.95625 44.5417 9.85625 41.2479 11.8187 39.1521C13.7521 37.0812 16.9875 36.9562 19.0875 38.8396C19.0937 38.8458 22.625 41.65 22.625 41.65L22.9125 41.5104V26.0438C22.9125 24.5146 23.5812 23.0667 24.7479 22.075C25.9146 21.0833 27.4687 20.6625 28.9875 20.9042C31.4625 21.3083 33.3292 23.6125 33.3292 26.2646V35.7354L43.2375 39.45C47.4062 41.0146 49.9958 44.6583 49.9958 48.9562L50 48.9583Z" fill="url(#paint0_linear_2116_12)"/>
<defs>
<linearGradient id="paint0_linear_2116_12" x1="25" y1="0" x2="25" y2="50" gradientUnits="userSpaceOnUse">
<stop stop-color="#00C2FF"/>
<stop offset="1" stop-color="#0596FF"/>
</linearGradient>
</defs>
</svg>
