<svg width="56" height="56" viewBox="0 0 56 56" fill="none" xmlns="http://www.w3.org/2000/svg">
<path d="M54.2937 20.377C52.0933 18.172 48.2455 18.172 46.0451 20.377L30.3949 36.0267C28.8526 37.5667 28.0032 39.6177 28.0032 41.8017V45.5023C28.0032 46.1463 28.5259 46.669 29.1699 46.669H31.9023C34.7071 46.669 37.3438 45.577 39.3272 43.5937L54.2937 28.6277C56.5688 26.3527 56.5688 22.6497 54.2937 20.377ZM52.644 26.9757L37.6775 41.9417C36.1351 43.484 34.0817 44.3333 31.9023 44.3333H30.3366V41.7993C30.3366 40.2407 30.9433 38.7753 32.0447 37.674L47.6948 22.0243C49.0155 20.7037 51.3233 20.7037 52.644 22.0243C54.009 23.3893 54.009 25.6083 52.644 26.9733V26.9757ZM30.3343 15.1667C30.3343 6.804 23.5301 0 15.1671 0C6.80421 0 0 6.80633 0 15.169C0 23.5317 6.80421 30.3357 15.1671 30.3357C23.5301 30.3357 30.3343 23.5293 30.3343 15.1667ZM2.33341 15.1667C2.33341 8.09433 8.08992 2.33567 15.1671 2.33567C22.2444 2.33567 28.0009 8.09433 28.0009 15.169C28.0009 22.2437 22.2444 28.0023 15.1671 28.0023C8.08992 28.0023 2.33341 22.2413 2.33341 15.1667ZM16.6489 19.7493C15.8088 20.5777 14.7005 20.993 13.5898 20.993C12.4791 20.993 11.3754 20.58 10.5283 19.754L7.34556 16.611C6.88588 16.1607 6.88121 15.421 7.3339 14.9613C7.78658 14.504 8.52627 14.4993 8.98361 14.952L12.164 18.0903C12.9504 18.858 14.2314 18.8533 15.0178 18.081L21.332 11.9723C21.7987 11.5267 22.536 11.536 22.9817 12.0003C23.4297 12.4623 23.4181 13.202 22.9537 13.65L16.6465 19.7493H16.6489ZM35.0011 15.1667C35.0011 14.5227 35.5238 14 36.1678 14H38.5012C40.3493 14 42.1646 14.4853 43.7514 15.407C44.3091 15.7313 44.5004 16.443 44.176 17.003C43.959 17.3763 43.567 17.584 43.1657 17.584C42.9673 17.584 42.7667 17.535 42.5823 17.4277C41.3503 16.7137 39.9386 16.3357 38.4989 16.3357H36.1655C35.5214 16.3357 34.9988 15.813 34.9988 15.169L35.0011 15.1667ZM49.0015 42V45.5C49.0015 51.289 44.2904 56 38.5012 56H17.5005C11.7114 56 7.00022 51.289 7.00022 45.5V35C7.00022 34.356 7.5229 33.8333 8.16692 33.8333C8.81094 33.8333 9.33362 34.356 9.33362 35V45.5C9.33362 50.0033 12.9971 53.6667 17.5005 53.6667H38.5012C43.0047 53.6667 46.6681 50.0033 46.6681 45.5V42C46.6681 41.356 47.1908 40.8333 47.8348 40.8333C48.4788 40.8333 49.0015 41.356 49.0015 42Z" fill="url(#paint0_linear_489_47)"/>
<defs>
<linearGradient id="paint0_linear_489_47" x1="28" y1="0" x2="28" y2="56" gradientUnits="userSpaceOnUse">
<stop stop-color="#00C2FF"/>
<stop offset="1" stop-color="#0596FF"/>
</linearGradient>
</defs>
</svg>
