<svg width="56" height="56" viewBox="0 0 56 56" fill="none" xmlns="http://www.w3.org/2000/svg">
<path d="M4.081 37.3333C4.31667 37.933 4.02033 38.6097 3.41833 38.843C2.83267 39.074 2.142 38.787 1.90867 38.1803C0.641667 34.9393 3.25045e-07 31.5163 3.25045e-07 28C-0.00233301 12.5603 12.558 0 27.9977 0C34.979 0 41.524 2.54567 46.6643 7.168V1.16667C46.6643 0.522667 47.187 0 47.831 0C48.475 0 48.9977 0.522667 48.9977 1.16667V8.16667C48.9977 10.0963 47.4273 11.6667 45.4977 11.6667H38.4977C37.8537 11.6667 37.331 11.144 37.331 10.5C37.331 9.856 37.8537 9.33333 38.4977 9.33333H45.4977C45.5187 9.33333 45.535 9.32167 45.556 9.32167C40.782 4.82533 34.6033 2.33333 27.9977 2.33333C13.846 2.33333 2.331 13.8483 2.331 28C2.331 31.2247 2.919 34.3653 4.081 37.3333ZM54.089 17.8197C53.8533 17.2177 53.1767 16.9213 52.5793 17.157C51.9773 17.3927 51.681 18.0693 51.9167 18.6667C53.0787 21.6347 53.6667 24.7753 53.6667 28C53.6667 42.1517 42.1517 53.6667 28 53.6667C21.3943 53.6667 15.2157 51.177 10.4417 46.6783C10.4627 46.6783 10.479 46.6667 10.5 46.6667H17.5C18.144 46.6667 18.6667 46.144 18.6667 45.5C18.6667 44.856 18.144 44.3333 17.5 44.3333H10.5C8.57033 44.3333 7 45.9037 7 47.8333V54.8333C7 55.4773 7.52267 56 8.16667 56C8.81067 56 9.33333 55.4773 9.33333 54.8333V48.832C14.4713 53.4543 21.0163 56 28 56C43.4397 56 56 43.4397 56 28C56 24.4837 55.3583 21.0583 54.0913 17.8197H54.089ZM24.4977 43.1667V41.5473C21.9473 40.8917 19.6303 39.5267 17.8243 37.6157L16.4127 38.3927C14.721 39.3283 12.5883 38.7077 11.6573 37.023C10.7263 35.329 11.3423 33.194 13.0317 32.2653L14.4457 31.4837C14.1493 30.338 14 29.1713 14 28C14 26.8287 14.1493 25.662 14.4457 24.5163L13.0317 23.7347C11.3423 22.8013 10.7287 20.6687 11.655 18.9793C12.5907 17.29 14.728 16.6717 16.4127 17.6073L17.8243 18.3843C19.6303 16.4757 21.9497 15.1107 24.4977 14.4527V12.8333C24.4977 10.9037 26.068 9.33333 27.9977 9.33333C29.9273 9.33333 31.4977 10.9037 31.4977 12.8333V14.4527C34.048 15.1083 36.365 16.4733 38.171 18.3843L39.5827 17.6073C41.2697 16.667 43.4047 17.29 44.338 18.977C45.2667 20.6687 44.653 22.8013 42.966 23.7347L41.5497 24.5163C41.846 25.662 41.9953 26.831 41.9953 28C41.9953 29.169 41.846 30.338 41.5497 31.4837L42.966 32.2653C44.6553 33.1963 45.269 35.329 44.3403 37.0207C43.4023 38.7123 41.2697 39.3283 39.5827 38.3927L38.171 37.6157C36.365 39.5243 34.0457 40.8893 31.4977 41.5473V43.1667C31.4977 45.0963 29.9273 46.6667 27.9977 46.6667C26.068 46.6667 24.4977 45.0963 24.4977 43.1667ZM25.8767 39.4613C26.4297 39.564 26.831 40.047 26.831 40.6093V43.1667C26.831 43.8083 27.356 44.3333 27.9977 44.3333C28.6393 44.3333 29.1643 43.8083 29.1643 43.1667V40.6093C29.1643 40.047 29.5657 39.564 30.1187 39.4613C32.823 38.9643 35.273 37.5223 37.0137 35.4013C37.3683 34.965 37.982 34.8507 38.479 35.1213L40.7097 36.351C41.2813 36.6637 41.9907 36.456 42.2987 35.8937C42.609 35.3313 42.4037 34.6197 41.8413 34.307L39.606 33.0727C39.1137 32.802 38.885 32.2163 39.0647 31.682C39.466 30.478 39.669 29.239 39.669 28C39.669 26.761 39.466 25.522 39.0647 24.3133C38.8873 23.779 39.116 23.1957 39.6083 22.925L41.8437 21.693C42.4037 21.3803 42.6113 20.6687 42.2987 20.104C41.9907 19.5463 41.2837 19.3387 40.712 19.649L38.4813 20.8787C37.989 21.1517 37.373 21.0327 37.016 20.5987C35.2753 18.4777 32.8253 17.0357 30.121 16.5387C29.568 16.436 29.1667 15.953 29.1667 15.3907V12.8333C29.1667 12.1917 28.6417 11.6667 28 11.6667C27.3583 11.6667 26.8333 12.1917 26.8333 12.8333V15.3907C26.8333 15.953 26.432 16.436 25.879 16.5387C23.1747 17.0357 20.7247 18.4777 18.984 20.5987C18.627 21.0327 18.011 21.147 17.5187 20.8787L15.288 19.649C14.7163 19.3387 14.0093 19.544 13.699 20.1063C13.3887 20.6663 13.5963 21.3803 14.1587 21.693L16.3917 22.925C16.884 23.1957 17.115 23.779 16.9353 24.3133C16.534 25.522 16.331 26.761 16.331 28C16.331 29.239 16.534 30.478 16.9353 31.682C17.1127 32.2163 16.8863 32.7997 16.394 33.0727L14.1587 34.307C13.594 34.6197 13.3887 35.329 13.699 35.8937C14.014 36.456 14.721 36.659 15.288 36.351L17.5187 35.1213C18.0063 34.8507 18.6247 34.965 18.984 35.4013C20.7247 37.5223 23.1747 38.9643 25.879 39.4613H25.8767ZM27.9977 35C28.6417 35 29.1643 34.4773 29.1643 33.8333V22.1667C29.1643 21.5227 28.6417 21 27.9977 21C27.3537 21 26.831 21.5227 26.831 22.1667V33.8333C26.831 34.4773 27.3537 35 27.9977 35ZM32.6643 35C33.3083 35 33.831 34.4773 33.831 33.8333V26.8333C33.831 26.1893 33.3083 25.6667 32.6643 25.6667C32.0203 25.6667 31.4977 26.1893 31.4977 26.8333V33.8333C31.4977 34.4773 32.0203 35 32.6643 35ZM23.331 28C22.687 28 22.1643 28.5227 22.1643 29.1667V33.8333C22.1643 34.4773 22.687 35 23.331 35C23.975 35 24.4977 34.4773 24.4977 33.8333V29.1667C24.4977 28.5227 23.975 28 23.331 28Z" fill="black"/>
<path d="M4.081 37.3333C4.31667 37.933 4.02033 38.6097 3.41833 38.843C2.83267 39.074 2.142 38.787 1.90867 38.1803C0.641667 34.9393 3.25045e-07 31.5163 3.25045e-07 28C-0.00233301 12.5603 12.558 0 27.9977 0C34.979 0 41.524 2.54567 46.6643 7.168V1.16667C46.6643 0.522667 47.187 0 47.831 0C48.475 0 48.9977 0.522667 48.9977 1.16667V8.16667C48.9977 10.0963 47.4273 11.6667 45.4977 11.6667H38.4977C37.8537 11.6667 37.331 11.144 37.331 10.5C37.331 9.856 37.8537 9.33333 38.4977 9.33333H45.4977C45.5187 9.33333 45.535 9.32167 45.556 9.32167C40.782 4.82533 34.6033 2.33333 27.9977 2.33333C13.846 2.33333 2.331 13.8483 2.331 28C2.331 31.2247 2.919 34.3653 4.081 37.3333ZM54.089 17.8197C53.8533 17.2177 53.1767 16.9213 52.5793 17.157C51.9773 17.3927 51.681 18.0693 51.9167 18.6667C53.0787 21.6347 53.6667 24.7753 53.6667 28C53.6667 42.1517 42.1517 53.6667 28 53.6667C21.3943 53.6667 15.2157 51.177 10.4417 46.6783C10.4627 46.6783 10.479 46.6667 10.5 46.6667H17.5C18.144 46.6667 18.6667 46.144 18.6667 45.5C18.6667 44.856 18.144 44.3333 17.5 44.3333H10.5C8.57033 44.3333 7 45.9037 7 47.8333V54.8333C7 55.4773 7.52267 56 8.16667 56C8.81067 56 9.33333 55.4773 9.33333 54.8333V48.832C14.4713 53.4543 21.0163 56 28 56C43.4397 56 56 43.4397 56 28C56 24.4837 55.3583 21.0583 54.0913 17.8197H54.089ZM24.4977 43.1667V41.5473C21.9473 40.8917 19.6303 39.5267 17.8243 37.6157L16.4127 38.3927C14.721 39.3283 12.5883 38.7077 11.6573 37.023C10.7263 35.329 11.3423 33.194 13.0317 32.2653L14.4457 31.4837C14.1493 30.338 14 29.1713 14 28C14 26.8287 14.1493 25.662 14.4457 24.5163L13.0317 23.7347C11.3423 22.8013 10.7287 20.6687 11.655 18.9793C12.5907 17.29 14.728 16.6717 16.4127 17.6073L17.8243 18.3843C19.6303 16.4757 21.9497 15.1107 24.4977 14.4527V12.8333C24.4977 10.9037 26.068 9.33333 27.9977 9.33333C29.9273 9.33333 31.4977 10.9037 31.4977 12.8333V14.4527C34.048 15.1083 36.365 16.4733 38.171 18.3843L39.5827 17.6073C41.2697 16.667 43.4047 17.29 44.338 18.977C45.2667 20.6687 44.653 22.8013 42.966 23.7347L41.5497 24.5163C41.846 25.662 41.9953 26.831 41.9953 28C41.9953 29.169 41.846 30.338 41.5497 31.4837L42.966 32.2653C44.6553 33.1963 45.269 35.329 44.3403 37.0207C43.4023 38.7123 41.2697 39.3283 39.5827 38.3927L38.171 37.6157C36.365 39.5243 34.0457 40.8893 31.4977 41.5473V43.1667C31.4977 45.0963 29.9273 46.6667 27.9977 46.6667C26.068 46.6667 24.4977 45.0963 24.4977 43.1667ZM25.8767 39.4613C26.4297 39.564 26.831 40.047 26.831 40.6093V43.1667C26.831 43.8083 27.356 44.3333 27.9977 44.3333C28.6393 44.3333 29.1643 43.8083 29.1643 43.1667V40.6093C29.1643 40.047 29.5657 39.564 30.1187 39.4613C32.823 38.9643 35.273 37.5223 37.0137 35.4013C37.3683 34.965 37.982 34.8507 38.479 35.1213L40.7097 36.351C41.2813 36.6637 41.9907 36.456 42.2987 35.8937C42.609 35.3313 42.4037 34.6197 41.8413 34.307L39.606 33.0727C39.1137 32.802 38.885 32.2163 39.0647 31.682C39.466 30.478 39.669 29.239 39.669 28C39.669 26.761 39.466 25.522 39.0647 24.3133C38.8873 23.779 39.116 23.1957 39.6083 22.925L41.8437 21.693C42.4037 21.3803 42.6113 20.6687 42.2987 20.104C41.9907 19.5463 41.2837 19.3387 40.712 19.649L38.4813 20.8787C37.989 21.1517 37.373 21.0327 37.016 20.5987C35.2753 18.4777 32.8253 17.0357 30.121 16.5387C29.568 16.436 29.1667 15.953 29.1667 15.3907V12.8333C29.1667 12.1917 28.6417 11.6667 28 11.6667C27.3583 11.6667 26.8333 12.1917 26.8333 12.8333V15.3907C26.8333 15.953 26.432 16.436 25.879 16.5387C23.1747 17.0357 20.7247 18.4777 18.984 20.5987C18.627 21.0327 18.011 21.147 17.5187 20.8787L15.288 19.649C14.7163 19.3387 14.0093 19.544 13.699 20.1063C13.3887 20.6663 13.5963 21.3803 14.1587 21.693L16.3917 22.925C16.884 23.1957 17.115 23.779 16.9353 24.3133C16.534 25.522 16.331 26.761 16.331 28C16.331 29.239 16.534 30.478 16.9353 31.682C17.1127 32.2163 16.8863 32.7997 16.394 33.0727L14.1587 34.307C13.594 34.6197 13.3887 35.329 13.699 35.8937C14.014 36.456 14.721 36.659 15.288 36.351L17.5187 35.1213C18.0063 34.8507 18.6247 34.965 18.984 35.4013C20.7247 37.5223 23.1747 38.9643 25.879 39.4613H25.8767ZM27.9977 35C28.6417 35 29.1643 34.4773 29.1643 33.8333V22.1667C29.1643 21.5227 28.6417 21 27.9977 21C27.3537 21 26.831 21.5227 26.831 22.1667V33.8333C26.831 34.4773 27.3537 35 27.9977 35ZM32.6643 35C33.3083 35 33.831 34.4773 33.831 33.8333V26.8333C33.831 26.1893 33.3083 25.6667 32.6643 25.6667C32.0203 25.6667 31.4977 26.1893 31.4977 26.8333V33.8333C31.4977 34.4773 32.0203 35 32.6643 35ZM23.331 28C22.687 28 22.1643 28.5227 22.1643 29.1667V33.8333C22.1643 34.4773 22.687 35 23.331 35C23.975 35 24.4977 34.4773 24.4977 33.8333V29.1667C24.4977 28.5227 23.975 28 23.331 28Z" fill="url(#paint0_linear_2116_15)"/>
<defs>
<linearGradient id="paint0_linear_2116_15" x1="28" y1="0" x2="28" y2="56" gradientUnits="userSpaceOnUse">
<stop stop-color="#00C2FF"/>
<stop offset="1" stop-color="#0596FF"/>
</linearGradient>
</defs>
</svg>
