<svg width="56" height="56" viewBox="0 0 56 56" fill="none" xmlns="http://www.w3.org/2000/svg">
<path d="M47.8333 28H46.6667V9.8C46.6667 4.396 43.0033 0 38.5 0H17.5C12.9967 0 9.33333 4.396 9.33333 9.8V28H8.16667C3.66333 28 0 32.396 0 37.8V46.2C0 51.604 3.66333 56 8.16667 56H47.8333C52.3367 56 56 51.604 56 46.2V37.8C56 32.396 52.3367 28 47.8333 28ZM11.6667 9.8C11.6667 5.936 14.28 2.8 17.5 2.8H38.5C41.72 2.8 44.3333 5.936 44.3333 9.8V42H11.6667V9.8ZM53.6667 46.2C53.6667 50.064 51.0533 53.2 47.8333 53.2H8.16667C4.94667 53.2 2.33333 50.064 2.33333 46.2V37.8C2.33333 33.936 4.94667 30.8 8.16667 30.8H9.33333V43.4C9.33333 44.184 9.84667 44.8 10.5 44.8H45.5C46.1533 44.8 46.6667 44.184 46.6667 43.4V30.8H47.8333C51.0533 30.8 53.6667 33.936 53.6667 37.8V46.2ZM19.1333 24.64C18.6667 24.08 18.6667 23.212 19.1333 22.652C19.6 22.092 20.3233 22.092 20.79 22.652L24.57 27.188C25.48 28.28 26.9733 28.28 27.86 27.188L36.33 17.024C36.7967 16.464 37.52 16.464 37.9867 17.024C38.4533 17.584 38.4533 18.452 37.9867 19.012L29.5167 29.176C28.63 30.24 27.4633 30.828 26.2267 30.828C24.99 30.828 23.8 30.24 22.9367 29.176L19.1567 24.64H19.1333Z" fill="black"/>
<path d="M47.8333 28H46.6667V9.8C46.6667 4.396 43.0033 0 38.5 0H17.5C12.9967 0 9.33333 4.396 9.33333 9.8V28H8.16667C3.66333 28 0 32.396 0 37.8V46.2C0 51.604 3.66333 56 8.16667 56H47.8333C52.3367 56 56 51.604 56 46.2V37.8C56 32.396 52.3367 28 47.8333 28ZM11.6667 9.8C11.6667 5.936 14.28 2.8 17.5 2.8H38.5C41.72 2.8 44.3333 5.936 44.3333 9.8V42H11.6667V9.8ZM53.6667 46.2C53.6667 50.064 51.0533 53.2 47.8333 53.2H8.16667C4.94667 53.2 2.33333 50.064 2.33333 46.2V37.8C2.33333 33.936 4.94667 30.8 8.16667 30.8H9.33333V43.4C9.33333 44.184 9.84667 44.8 10.5 44.8H45.5C46.1533 44.8 46.6667 44.184 46.6667 43.4V30.8H47.8333C51.0533 30.8 53.6667 33.936 53.6667 37.8V46.2ZM19.1333 24.64C18.6667 24.08 18.6667 23.212 19.1333 22.652C19.6 22.092 20.3233 22.092 20.79 22.652L24.57 27.188C25.48 28.28 26.9733 28.28 27.86 27.188L36.33 17.024C36.7967 16.464 37.52 16.464 37.9867 17.024C38.4533 17.584 38.4533 18.452 37.9867 19.012L29.5167 29.176C28.63 30.24 27.4633 30.828 26.2267 30.828C24.99 30.828 23.8 30.24 22.9367 29.176L19.1567 24.64H19.1333Z" fill="url(#paint0_linear_2116_14)"/>
<defs>
<linearGradient id="paint0_linear_2116_14" x1="28" y1="0" x2="28" y2="56" gradientUnits="userSpaceOnUse">
<stop stop-color="#00C2FF"/>
<stop offset="1" stop-color="#0596FF"/>
</linearGradient>
</defs>
</svg>
