<svg width="40" height="53" viewBox="0 0 40 53" fill="none" xmlns="http://www.w3.org/2000/svg">
<path d="M40 46.3742V53H37.7778V46.3742C37.7778 42.7211 34.7867 39.7484 31.1111 39.7484H8.88889C5.21333 39.7484 2.22222 42.7211 2.22222 46.3742V53H0V46.3742C0 41.502 3.98667 37.5397 8.88889 37.5397H31.1111C36.0133 37.5397 40 41.502 40 46.3742ZM2.22222 19.8709H0C0 14.2124 2.44 8.80355 6.69111 5.03125C10.94 1.26778 16.6467 -0.512359 22.3556 0.128137C31.2378 1.13968 38.5756 8.24698 39.8022 17.0284C40.2822 20.465 39.8778 23.9502 38.6356 27.1107C37.2178 30.7063 33.5222 33.1225 29.4422 33.1225H20.0022C17.5511 33.1225 15.5578 31.1414 15.5578 28.7053C15.5578 26.2692 17.5511 24.2881 20.0022 24.2881C22.4533 24.2881 24.4467 26.2692 24.4467 28.7053C24.4467 29.5092 24.2289 30.2646 23.8489 30.9139H29.4422C32.6178 30.9139 35.48 29.0609 36.5644 26.3046C37.6711 23.4974 38.0289 20.3921 37.6022 17.331C36.5133 9.53239 29.9933 3.22019 22.1044 2.32349C16.9511 1.736 12.0044 3.28645 8.17111 6.68329C4.39111 10.036 2.22222 14.8419 2.22222 19.8731V19.8709ZM20 30.9139C21.2244 30.9139 22.2222 29.9245 22.2222 28.7053C22.2222 27.4862 21.2244 26.4967 20 26.4967C18.7756 26.4967 17.7778 27.4862 17.7778 28.7053C17.7778 29.9245 18.7756 30.9139 20 30.9139ZM20 8.82784C26.1267 8.82784 31.1111 13.7818 31.1111 19.8709C31.1111 22.3732 30.22 24.6437 28.8 26.4967H31.5267C32.6711 24.5465 33.3356 22.2871 33.3356 19.8709C33.3356 12.5626 27.3556 6.61924 20.0022 6.61924C12.6489 6.61924 6.66889 12.5626 6.66889 19.8709C6.66889 23.8375 8.44 27.3912 11.2267 29.8229C11.18 29.454 11.1133 29.0874 11.1133 28.7053C11.1133 28.0206 11.2089 27.3625 11.3578 26.722C9.83778 24.8336 8.89111 22.4704 8.89111 19.8709C8.89111 13.7818 13.8756 8.82784 20.0022 8.82784H20Z" fill="black"/>
<path d="M40 46.3742V53H37.7778V46.3742C37.7778 42.7211 34.7867 39.7484 31.1111 39.7484H8.88889C5.21333 39.7484 2.22222 42.7211 2.22222 46.3742V53H0V46.3742C0 41.502 3.98667 37.5397 8.88889 37.5397H31.1111C36.0133 37.5397 40 41.502 40 46.3742ZM2.22222 19.8709H0C0 14.2124 2.44 8.80355 6.69111 5.03125C10.94 1.26778 16.6467 -0.512359 22.3556 0.128137C31.2378 1.13968 38.5756 8.24698 39.8022 17.0284C40.2822 20.465 39.8778 23.9502 38.6356 27.1107C37.2178 30.7063 33.5222 33.1225 29.4422 33.1225H20.0022C17.5511 33.1225 15.5578 31.1414 15.5578 28.7053C15.5578 26.2692 17.5511 24.2881 20.0022 24.2881C22.4533 24.2881 24.4467 26.2692 24.4467 28.7053C24.4467 29.5092 24.2289 30.2646 23.8489 30.9139H29.4422C32.6178 30.9139 35.48 29.0609 36.5644 26.3046C37.6711 23.4974 38.0289 20.3921 37.6022 17.331C36.5133 9.53239 29.9933 3.22019 22.1044 2.32349C16.9511 1.736 12.0044 3.28645 8.17111 6.68329C4.39111 10.036 2.22222 14.8419 2.22222 19.8731V19.8709ZM20 30.9139C21.2244 30.9139 22.2222 29.9245 22.2222 28.7053C22.2222 27.4862 21.2244 26.4967 20 26.4967C18.7756 26.4967 17.7778 27.4862 17.7778 28.7053C17.7778 29.9245 18.7756 30.9139 20 30.9139ZM20 8.82784C26.1267 8.82784 31.1111 13.7818 31.1111 19.8709C31.1111 22.3732 30.22 24.6437 28.8 26.4967H31.5267C32.6711 24.5465 33.3356 22.2871 33.3356 19.8709C33.3356 12.5626 27.3556 6.61924 20.0022 6.61924C12.6489 6.61924 6.66889 12.5626 6.66889 19.8709C6.66889 23.8375 8.44 27.3912 11.2267 29.8229C11.18 29.454 11.1133 29.0874 11.1133 28.7053C11.1133 28.0206 11.2089 27.3625 11.3578 26.722C9.83778 24.8336 8.89111 22.4704 8.89111 19.8709C8.89111 13.7818 13.8756 8.82784 20.0022 8.82784H20Z" fill="url(#paint0_linear_2116_16)"/>
<defs>
<linearGradient id="paint0_linear_2116_16" x1="20" y1="0" x2="20" y2="53" gradientUnits="userSpaceOnUse">
<stop stop-color="#00C2FF"/>
<stop offset="1" stop-color="#0596FF"/>
</linearGradient>
</defs>
</svg>
