<svg width="47" height="41" viewBox="0 0 47 41" fill="none" xmlns="http://www.w3.org/2000/svg">
<path d="M32.1311 39.816L29.6438 39.3549L6.5926 25.9781L4.1847 23.7656L1.77681 20.2296L0.490378 16.5852L0.171387 13.5264L0.757076 11.1837L2.12385 9.34008L4.07631 8.87371L14.0402 3.44702C14.0402 3.44702 25.6818 11.4442 26.1586 11.6177C26.6359 11.7912 34.1415 27.236 34.1415 27.236L35.7902 37.6482L33.939 39.3473L32.1311 39.816Z" fill="#0E9179"/>
<path d="M46.0452 29.6382C46.0452 25.6491 43.2447 20.7986 39.79 18.8039C38.949 18.3185 38.1474 18.0484 37.4153 17.9729C37.0597 14.385 34.5658 10.3242 31.5408 8.57754C31.1244 8.33699 30.7179 8.15254 30.3257 8.02085C29.4087 5.08669 27.3278 2.20576 24.9062 0.807614C23.1999 -0.177413 21.6635 -0.230184 20.5833 0.479588L20.5829 0.477687L16.1878 2.88226C15.0397 2.59939 14.0081 2.6978 13.1624 3.12947L13.1652 3.12186L13.0735 3.17225C13.0701 3.17415 13.0668 3.17605 13.0635 3.17748L2.21582 9.04724L4.98549 8.98496L8.35512 10.2576L8.60091 8.07409L9.94581 6.55567L11.0887 6.06601L11.5075 6.02037L13.2403 6.61985C13.2807 6.38262 13.6511 6.49767 13.7923 6.49767C14.6599 7.01823 15.1804 7.88583 15.8745 8.40639C17.9568 9.79456 17.9568 12.9726 19.6924 14.1873C22.4688 16.2695 25.0721 19.1656 26.4602 22.289C26.5482 22.4654 26.4574 22.5966 26.3233 22.7064L26.6048 24.2705L29.0488 24.9356L31.3625 26.801L33.4738 29.4766L34.1969 31.1105L35.016 33.352L35.2095 35.6078L35.016 37.3287L33.48 39.8146L44.069 33.7594L44.0733 33.7571L43.9782 33.8032C45.2461 33.2146 46.0452 31.7661 46.0452 29.6382Z" fill="url(#paint0_linear_3025_11045)"/>
<path d="M14.4554 2.75244C13.9896 2.80426 13.555 2.92977 13.1624 3.12991L13.1652 3.1223L13.0735 3.1727C13.0701 3.1746 13.0668 3.17602 13.0635 3.17793L2.21582 9.04768L2.82338 9.03389C3.05823 8.85324 3.29307 8.6279 3.52792 8.64359L14.1783 2.8808C14.1816 2.8789 14.1849 2.877 14.1883 2.87557L14.28 2.82518L14.2772 2.83279C14.3347 2.80331 14.3955 2.77906 14.4554 2.75244Z" fill="#0C08D4"/>
<path d="M46.0472 29.638C46.0472 25.6489 43.2466 20.7984 39.7919 18.8036C39.6231 18.7062 39.4568 18.6201 39.2918 18.5398C42.7945 20.5774 45.6298 25.4968 45.6298 29.5448C45.6298 31.7093 44.8169 33.1826 43.5271 33.782L43.6236 33.735L43.6194 33.7374L33.7501 39.3808L33.4819 39.8149L44.071 33.7597L44.0748 33.7573L43.9797 33.8034C45.2481 33.2144 46.0472 31.7659 46.0472 29.638Z" fill="#0024FB"/>
<path d="M26.464 22.2897C25.0759 19.1659 22.8776 15.2324 19.4067 14.1623C18.8862 12.6006 17.9606 9.79482 15.8783 8.40666C15.1842 7.88609 14.6637 7.01849 13.7961 6.49793C13.6549 6.49793 13.2845 6.38336 13.2441 6.62011L13.2955 6.6377C13.3174 11.3432 16.618 17.0451 20.687 19.3946L26.3162 22.6444L26.3271 22.7067C26.4612 22.5978 26.552 22.4661 26.464 22.2897Z" fill="#04427C"/>
<path d="M29.1486 24.7659C28.3019 24.2772 27.4952 24.0052 26.7579 23.9296C26.3999 20.318 23.8893 16.2301 20.8439 14.4716C20.4246 14.2296 20.0157 14.0437 19.6207 13.9111C18.6975 10.9574 16.6028 8.05701 14.165 6.64935C10.8781 4.75156 8.21252 6.28567 8.20587 10.0756C7.95486 9.90108 7.70004 9.73898 7.44238 9.59018C3.33207 7.21698 0 9.14093 0 13.8868C0 18.6328 3.33207 24.4036 7.44238 26.7768L29.1486 39.3088C32.6267 41.3169 35.4458 39.6891 35.4458 35.6734C35.4458 31.6568 32.6267 26.7735 29.1486 24.7659Z" fill="url(#paint1_linear_3025_11045)"/>
<path d="M29.1514 24.7656C28.9569 24.6534 28.7654 24.5554 28.5752 24.4661C32.0466 26.4803 35.0026 31.6627 35.0026 35.6727C35.0026 38.4019 33.6981 40.0245 31.7718 40.1557C33.9396 40.2583 35.448 38.6073 35.448 35.6727C35.4485 31.6565 32.6294 26.7732 29.1514 24.7656Z" fill="#6EE8FC"/>
<path d="M0.288093 14.0243C0.288093 10.2082 2.41883 8.20395 5.37914 8.73925C2.27384 7.98003 0 9.96672 0 13.885C0 18.1336 2.67269 23.1957 6.18067 25.9145C2.81008 23.1011 0.288093 18.1773 0.288093 14.0243Z" fill="#0C08D4"/>
<defs>
<linearGradient id="paint0_linear_3025_11045" x1="17.5314" y1="4.78666" x2="34.7656" y2="39.4787" gradientUnits="userSpaceOnUse">
<stop stop-color="#00B3FF"/>
<stop offset="1" stop-color="#2C33E4"/>
</linearGradient>
<linearGradient id="paint1_linear_3025_11045" x1="-15.5221" y1="5.21412" x2="45.591" y2="34.4157" gradientUnits="userSpaceOnUse">
<stop stop-color="#002ABD"/>
<stop offset="1" stop-color="#2C75E4"/>
</linearGradient>
</defs>
</svg>
