<svg width="146" height="89" viewBox="0 0 146 89" fill="none" xmlns="http://www.w3.org/2000/svg">
<path d="M77.5459 8.88072C69.8674 8.87702 62.3835 11.2368 56.1592 15.6242C49.9349 20.0115 45.2874 26.2029 42.8783 33.3171C42.7083 33.8923 42.4211 34.4282 42.0339 34.8926C41.6467 35.3571 41.1675 35.7405 40.6249 36.02C40.0823 36.2995 39.4875 36.4693 38.8761 36.5193C38.2647 36.5693 37.6493 36.4984 37.0666 36.3109C36.4839 36.1233 35.946 35.823 35.485 35.4279C35.0241 35.0328 34.6495 34.551 34.3838 34.0114C34.1181 33.4718 33.9667 32.8854 33.9386 32.2873C33.9106 31.6892 34.0065 31.0918 34.2205 30.5307C37.3872 21.1995 43.629 13.153 51.9728 7.64563C60.3166 2.13829 70.2934 -0.520305 80.3478 0.0843648C90.4021 0.689035 99.9689 4.52298 107.556 10.9884C115.144 17.4539 120.326 26.1875 122.294 35.8275C129.176 36.7345 135.446 40.1596 139.836 45.4092C144.226 50.6588 146.407 57.3403 145.937 64.1003C145.468 70.8602 142.382 77.1933 137.306 81.8166C132.23 86.4399 125.543 89.0077 118.6 89H4.56152C3.35173 89 2.19149 88.531 1.33604 87.6963C0.480588 86.8616 0 85.7294 0 84.5489C0 83.3684 0.480588 82.2363 1.33604 81.4015C2.19149 80.5668 3.35173 80.0978 4.56152 80.0978H118.6C123.439 80.099 128.08 78.2243 131.503 74.8862C134.925 71.5481 136.849 67.02 136.85 62.298C136.851 57.576 134.93 53.047 131.509 49.7072C128.088 46.3674 123.448 44.4905 118.609 44.4893H118.371C117.244 44.496 116.154 44.0948 115.311 43.3632C114.469 42.6317 113.934 41.6215 113.81 40.5278C112.811 31.8244 108.561 23.7853 101.871 17.9471C95.1812 12.1089 86.521 8.88109 77.5459 8.88072Z" fill="white"/>
</svg>
