<svg width="85" height="57" viewBox="0 0 85 57" fill="none" xmlns="http://www.w3.org/2000/svg">
<path d="M67.704 15.9814C77.46 17.2896 85 25.4179 85 35.3571C85 46.2039 76.044 55 65 55H21C12.164 55 5 47.9639 5 39.2857C5 30.6075 12.164 23.5714 21 23.5714C21 10.5521 31.744 0 45 0C55.548 0 64.484 6.69036 67.704 15.9814Z" fill="url(#paint0_linear_5186_12348)"/>
<g filter="url(#filter0_bi_5186_12348)">
<path d="M14.2692 21.6569C6.2205 22.7748 0 29.7207 0 38.2143C0 47.4834 7.3887 55 16.5 55H52.8C60.0897 55 66 48.9874 66 41.5714C66 34.1555 60.0897 28.1429 52.8 28.1429C52.8 17.0173 43.9362 8 33 8C24.2979 8 16.9257 13.7172 14.2692 21.6569Z" fill="white" fill-opacity="0.08"/>
<path d="M14.3036 21.9045L14.4571 21.8832L14.5063 21.7362C17.1306 13.8928 24.4113 8.25 33 8.25C43.7941 8.25 52.55 17.1513 52.55 28.1429V28.3929H52.8C59.9476 28.3929 65.75 34.2895 65.75 41.5714C65.75 48.8534 59.9476 54.75 52.8 54.75H16.5C7.5308 54.75 0.25 47.3493 0.25 38.2143C0.25 29.8458 6.37822 23.0053 14.3036 21.9045Z" stroke="url(#paint1_linear_5186_12348)" stroke-width="0.5"/>
<path d="M14.3036 21.9045L14.4571 21.8832L14.5063 21.7362C17.1306 13.8928 24.4113 8.25 33 8.25C43.7941 8.25 52.55 17.1513 52.55 28.1429V28.3929H52.8C59.9476 28.3929 65.75 34.2895 65.75 41.5714C65.75 48.8534 59.9476 54.75 52.8 54.75H16.5C7.5308 54.75 0.25 47.3493 0.25 38.2143C0.25 29.8458 6.37822 23.0053 14.3036 21.9045Z" stroke="url(#paint2_linear_5186_12348)" stroke-width="0.5"/>
</g>
<defs>
<filter id="filter0_bi_5186_12348" x="-24" y="-16" width="114" height="95" filterUnits="userSpaceOnUse" color-interpolation-filters="sRGB">
<feFlood flood-opacity="0" result="BackgroundImageFix"/>
<feGaussianBlur in="BackgroundImageFix" stdDeviation="12"/>
<feComposite in2="SourceAlpha" operator="in" result="effect1_backgroundBlur_5186_12348"/>
<feBlend mode="normal" in="SourceGraphic" in2="effect1_backgroundBlur_5186_12348" result="shape"/>
<feColorMatrix in="SourceAlpha" type="matrix" values="0 0 0 0 0 0 0 0 0 0 0 0 0 0 0 0 0 0 127 0" result="hardAlpha"/>
<feOffset dx="-0.5" dy="-0.5"/>
<feComposite in2="hardAlpha" operator="arithmetic" k2="-1" k3="1"/>
<feColorMatrix type="matrix" values="0 0 0 0 0 0 0 0 0 0 0 0 0 0 0 0 0 0 0.08 0"/>
<feBlend mode="normal" in2="shape" result="effect2_innerShadow_5186_12348"/>
</filter>
<linearGradient id="paint0_linear_5186_12348" x1="65" y1="10" x2="9.24291" y2="56.1285" gradientUnits="userSpaceOnUse">
<stop stop-color="#00AEFF"/>
<stop offset="1" stop-color="#39C2FD"/>
</linearGradient>
<linearGradient id="paint1_linear_5186_12348" x1="0" y1="8" x2="15.3867" y2="29.5436" gradientUnits="userSpaceOnUse">
<stop stop-color="#82DD68" stop-opacity="0.1"/>
<stop offset="1" stop-color="white" stop-opacity="0"/>
</linearGradient>
<linearGradient id="paint2_linear_5186_12348" x1="11.6471" y1="50.5074" x2="44.2666" y2="1.86401" gradientUnits="userSpaceOnUse">
<stop stop-color="white" stop-opacity="0"/>
<stop offset="1" stop-color="white" stop-opacity="0.04"/>
</linearGradient>
</defs>
</svg>
