<svg width="35" height="54" viewBox="0 0 35 54" fill="none" xmlns="http://www.w3.org/2000/svg">
<path d="M34.2084 23.011H27.0003L18.9763 18.3784C17.9431 17.7817 16.1378 17.8566 14.9444 18.5456L7.20971 23.011H0.0051885V43.8673H0.00740895C-0.0218723 44.271 0.203063 44.6605 0.699957 44.9476L15.2346 53.3389C16.2678 53.9356 18.0731 53.8606 19.2665 53.1716L33.2212 45.1148C33.841 44.7568 34.1711 44.3038 34.2031 43.8673H34.2084V23.011Z" fill="url(#paint0_linear_3007_10918)"/>
<path d="M33.2212 44.7808L19.2665 52.8376C18.0731 53.5266 16.2683 53.6011 15.2346 53.0048L0.699957 44.6135C0.203507 44.3269 -0.0218723 43.9369 0.00740895 43.5332H0.0051885V43.8668H0.00740895C-0.0218723 44.2706 0.203063 44.6601 0.699957 44.9471L15.2346 53.3384C16.2678 53.9352 18.0731 53.8602 19.2665 53.1712L33.2212 45.1144C33.841 44.7564 34.1711 44.3034 34.2031 43.8668H34.2084V43.5332H34.2031C34.1711 43.9698 33.841 44.4227 33.2212 44.7808Z" fill="url(#paint1_linear_3007_10918)"/>
<path d="M0.462167 44.2009H0.459946V23.3447H7.66446L15.3992 18.8793C16.5926 18.1903 18.3974 18.1157 19.4311 18.712L27.4551 23.3447H34.2084V23.011H27.0003L18.9764 18.3784C17.9431 17.7817 16.1378 17.8566 14.9444 18.5456L7.20972 23.011H0.00520204V43.8677H0.00740895C-0.0218723 44.2714 0.203063 44.661 0.699957 44.948L0.781599 44.9951C0.548237 44.7568 0.441759 44.4826 0.462167 44.2009Z" fill="#00A3FF"/>
<path d="M33.7989 23.3988V44.2311H33.7935C33.7753 44.4787 33.6582 44.7311 33.4497 44.9689C33.9218 44.6379 34.1751 44.2466 34.203 43.8673H34.2084V23.0603C34.0602 23.157 33.9209 23.2666 33.7989 23.3988Z" fill="#6EE8FC"/>
<path d="M15.2322 32.4818L0.697598 24.0905C-0.335676 23.4938 -0.206139 22.4516 0.986851 21.7626L14.9416 13.7059C16.135 13.0169 17.9398 12.9423 18.9736 13.5386L33.5081 21.9299C34.5414 22.5266 34.4119 23.5688 33.2189 24.2578L19.2641 32.3145C18.0707 33.004 16.2655 33.0785 15.2322 32.4818Z" fill="url(#paint2_linear_3007_10918)"/>
<path d="M33.5099 21.9308L18.9753 13.5395C18.4402 13.2307 17.6975 13.103 16.9407 13.1464C17.4912 13.1797 18.0068 13.3088 18.4065 13.5395L32.9411 21.9308C33.9744 22.5275 33.8448 23.5697 32.6518 24.2587L18.6971 32.3155C18.1217 32.6478 17.4047 32.8354 16.7002 32.8758C17.5729 32.9282 18.5343 32.7378 19.2659 32.3155L33.2206 24.2587C34.414 23.5697 34.5436 22.5275 33.5099 21.9308Z" fill="#6EE8FC"/>
<path d="M15.7113 30.0627L4.89051 23.8151C4.12121 23.371 4.21748 22.5951 5.10612 22.0822L15.4956 16.084C16.3838 15.5711 17.7277 15.5152 18.4974 15.9598L29.3182 22.2073C30.0875 22.6514 29.9912 23.4274 29.1026 23.9402L18.713 29.9385C17.8244 30.4513 16.4806 30.5068 15.7113 30.0627Z" fill="url(#paint3_linear_3007_10918)"/>
<path d="M16.0955 28.1199L8.25565 23.5937C7.69842 23.2721 7.76807 22.71 8.41182 22.3382L15.9389 17.9926C16.5826 17.6208 17.556 17.5804 18.1137 17.9025L25.9535 22.4287C26.5107 22.7504 26.4411 23.3125 25.7974 23.6842L18.2703 28.0299C17.6265 28.4012 16.6532 28.4416 16.0955 28.1199Z" fill="#6DE0F6"/>
<path d="M15.8843 32.482L1.34965 24.0907C0.316381 23.4939 0.445919 22.4518 1.63891 21.7628L15.5937 13.706C16.1602 13.379 16.8647 13.1923 17.559 13.1479C16.6731 13.0844 15.6877 13.2752 14.9419 13.706L0.987181 21.7628C-0.206253 22.4518 -0.33579 23.4939 0.697927 24.0907L15.2325 32.482C15.7751 32.7952 16.5311 32.9216 17.2991 32.8728C16.7676 32.8351 16.2716 32.706 15.8843 32.482Z" fill="#00E9FF"/>
<mask id="mask0_3007_10918" style="mask-type:luminance" maskUnits="userSpaceOnUse" x="7" y="17" width="20" height="12">
<path d="M16.0974 28.1199L8.25761 23.5937C7.70038 23.2721 7.77003 22.71 8.41377 22.3382L15.9408 17.9926C16.5846 17.6208 17.558 17.5804 18.1156 17.9025L25.9555 22.4287C26.5127 22.7504 26.4431 23.3125 25.7993 23.6842L18.2722 28.0299C17.6285 28.4012 16.6551 28.4416 16.0974 28.1199Z" fill="white"/>
</mask>
<g mask="url(#mask0_3007_10918)">
<path d="M8.41006 22.9505L15.9402 18.6031C16.584 18.2313 17.5582 18.1909 18.1159 18.513L25.9584 23.041C26.0822 23.1124 26.17 23.1971 26.2326 23.2872C26.4207 22.9802 26.34 22.6483 25.9584 22.4283L18.1159 17.9003C17.5582 17.5782 16.5844 17.6186 15.9402 17.9904L8.41006 22.3378C7.90917 22.627 7.76055 23.0303 7.97971 23.3475C8.06711 23.2056 8.20642 23.068 8.41006 22.9505Z" fill="#267FE5"/>
</g>
<mask id="mask1_3007_10918" style="mask-type:luminance" maskUnits="userSpaceOnUse" x="7" y="17" width="20" height="12">
<path d="M16.0974 28.1199L8.25761 23.5937C7.70038 23.2721 7.77003 22.71 8.41377 22.3382L15.9408 17.9926C16.5846 17.6208 17.558 17.5804 18.1156 17.9025L25.9555 22.4287C26.5127 22.7504 26.4431 23.3125 25.7993 23.6842L18.2722 28.0299C17.6285 28.4012 16.6551 28.4416 16.0974 28.1199Z" fill="white"/>
</mask>
<g mask="url(#mask1_3007_10918)">
<path d="M8.41136 23.689L15.9415 19.3416C16.5853 18.9698 17.5595 18.9295 18.1172 19.2516L25.9597 23.7795C26.0578 23.8363 26.1296 23.902 26.1891 23.9712C26.438 23.6455 26.3706 23.2782 25.9597 23.0408L18.1172 18.5129C17.5595 18.1908 16.5857 18.2312 15.9415 18.6029L8.41136 22.9503C7.88075 23.2564 7.74677 23.6903 8.02583 24.0147C8.11456 23.898 8.24189 23.7866 8.41136 23.689Z" fill="#25BFEC"/>
</g>
<mask id="mask2_3007_10918" style="mask-type:luminance" maskUnits="userSpaceOnUse" x="7" y="17" width="20" height="12">
<path d="M16.0974 28.1199L8.25761 23.5937C7.70038 23.2721 7.77003 22.71 8.41377 22.3382L15.9408 17.9926C16.5846 17.6208 17.558 17.5804 18.1156 17.9025L25.9555 22.4287C26.5127 22.7504 26.4431 23.3125 25.7993 23.6842L18.2722 28.0299C17.6285 28.4012 16.6551 28.4416 16.0974 28.1199Z" fill="white"/>
</mask>
<g mask="url(#mask2_3007_10918)">
<path d="M8.1019 24.8326C8.18442 24.7469 8.28335 24.664 8.41157 24.5899L15.9417 20.2425C16.5855 19.8707 17.5598 19.8303 18.1174 20.1524L25.9599 24.6804C26.0194 24.7145 26.0682 24.7531 26.1134 24.7922C26.4439 24.4475 26.4067 24.0366 25.9599 23.7789L18.1174 19.2509C17.5598 18.9288 16.5859 18.9692 15.9417 19.341L8.41157 23.6884C7.83615 24.0207 7.72302 24.5038 8.1019 24.8326Z" fill="#18D0F7"/>
</g>
<path d="M22.1155 47.848L21.3099 48.3129C21.1022 48.4327 20.9341 48.3054 20.9341 48.029V36.7735C20.9341 36.4966 21.1022 36.1754 21.3099 36.0556L22.1155 35.5902C22.3232 35.4704 22.4913 35.5978 22.4913 35.8742V47.1297C22.4909 47.407 22.3227 47.7282 22.1155 47.848Z" fill="#6DE0F6"/>
<path d="M22.1155 35.5903L21.9225 35.7016V46.754C21.9225 47.0304 21.7544 47.352 21.5468 47.4718L20.9341 47.8254V48.0286C20.9341 48.3055 21.1022 48.4323 21.3099 48.3126L22.1155 47.8476C22.3232 47.7278 22.4913 47.4066 22.4913 47.1298V35.8742C22.4909 35.5974 22.3227 35.4705 22.1155 35.5903Z" fill="#267FE5"/>
<path d="M25.0872 46.1335L24.2815 46.5989C24.0739 46.7187 23.9058 46.5913 23.9058 46.3149V35.0594C23.9058 34.7825 24.0739 34.4613 24.2815 34.3416L25.0872 33.8766C25.2948 33.7568 25.463 33.8841 25.463 34.1605V45.4161C25.4625 45.6925 25.2944 46.0137 25.0872 46.1335Z" fill="#6DE0F6"/>
<path d="M28.055 44.4183L27.2493 44.8833C27.0417 45.0031 26.8735 44.8757 26.8735 44.5994V33.3438C26.8735 33.0674 27.0417 32.7458 27.2493 32.626L28.055 32.161C28.2626 32.0412 28.4308 32.1686 28.4308 32.445V43.7005C28.4303 43.9773 28.2622 44.2986 28.055 44.4183Z" fill="#6DE0F6"/>
<path d="M31.0232 42.7039L30.2176 43.1689C30.0099 43.2887 29.8418 43.1614 29.8418 42.885V31.6294C29.8418 31.3526 30.0099 31.0314 30.2176 30.9116L31.0232 30.4462C31.2309 30.3264 31.399 30.4537 31.399 30.7301V41.9857C31.399 42.2625 31.2309 42.5842 31.0232 42.7039Z" fill="#6DE0F6"/>
<path d="M25.0872 33.8761L24.8942 33.9875V45.0398C24.8942 45.3167 24.7261 45.6379 24.5184 45.7577L23.9058 46.1113V46.3145C23.9058 46.5913 24.0739 46.7182 24.2815 46.5984L25.0872 46.133C25.2948 46.0132 25.463 45.692 25.463 45.4152V34.1596C25.4625 33.8837 25.2944 33.7563 25.0872 33.8761Z" fill="#267FE5"/>
<path d="M28.055 32.161L27.862 32.2724V43.3247C27.862 43.6016 27.6939 43.9228 27.4862 44.0426L26.8735 44.3962V44.5993C26.8735 44.8762 27.0417 45.0031 27.2493 44.8833L28.055 44.4183C28.2626 44.2985 28.4308 43.9773 28.4308 43.7005V32.445C28.4308 32.1686 28.2626 32.0412 28.055 32.161Z" fill="#267FE5"/>
<path d="M31.0232 30.4467L30.8303 30.5581V41.6104C30.8303 41.8868 30.6621 42.2085 30.4545 42.3283L29.8418 42.6819V42.8851C29.8418 43.1619 30.0099 43.2888 30.2176 43.169L31.0232 42.704C31.2309 42.5843 31.399 42.2631 31.399 41.9862V30.7307C31.399 30.4538 31.2309 30.3269 31.0232 30.4467Z" fill="#267FE5"/>
<path d="M14.0357 49.2301C13.9412 49.2301 13.8409 49.2013 13.7402 49.1432L3.24375 43.0828C2.8795 42.8725 2.59424 42.3331 2.59424 41.8535V29.9431C2.59424 29.6702 2.69096 29.4577 2.85911 29.3606C3.00684 29.2767 3.18564 29.2874 3.36754 29.3916L13.864 35.4515C14.2282 35.6623 14.5135 36.2022 14.5135 36.6813V48.5917C14.5135 48.8646 14.4168 49.0766 14.2482 49.1738C14.183 49.2115 14.1115 49.2301 14.0357 49.2301ZM3.07205 29.5509C3.04144 29.5509 3.01083 29.558 2.98244 29.5744C2.89415 29.625 2.84136 29.763 2.84136 29.9426V41.853C2.84136 42.239 3.08182 42.7044 3.36709 42.8686L13.8644 48.9289C13.9363 48.971 14.0401 49.0101 14.1253 48.9599C14.2136 48.9089 14.2664 48.7709 14.2664 48.5917V36.6813C14.2664 36.2954 14.0255 35.83 13.7402 35.6654L3.24375 29.6055C3.19539 29.578 3.13372 29.5509 3.07205 29.5509Z" fill="#00B3FF"/>
<path d="M4.64522 32.2756C4.64522 32.6012 4.41631 32.7334 4.13414 32.5706C3.85198 32.4078 3.62305 32.0116 3.62305 31.6855C3.62305 31.3599 3.85198 31.2277 4.13414 31.3905C4.41631 31.5538 4.64522 31.9499 4.64522 32.2756Z" fill="#6DE0F6"/>
<path d="M4.64522 33.9331C4.64522 34.2587 4.41631 34.3909 4.13414 34.2281C3.85198 34.0653 3.62305 33.6691 3.62305 33.343C3.62305 33.0174 3.85198 32.8851 4.13414 33.048C4.41631 33.2112 4.64522 33.6074 4.64522 33.9331Z" fill="#6DE0F6"/>
<path d="M4.64522 35.5905C4.64522 35.9162 4.41631 36.0484 4.13414 35.8856C3.85198 35.7227 3.62305 35.3266 3.62305 35.0005C3.62305 34.6748 3.85198 34.5426 4.13414 34.7054C4.41631 34.8683 4.64522 35.2644 4.64522 35.5905Z" fill="#6DE0F6"/>
<path d="M4.39013 35.6832C4.10796 35.5204 3.87903 35.1242 3.87903 34.7981C3.87903 34.7369 3.88924 34.685 3.90433 34.6379C3.73795 34.6393 3.62305 34.7702 3.62305 35C3.62305 35.3256 3.85198 35.7218 4.13414 35.8851C4.36351 36.0173 4.55472 35.9525 4.6195 35.7502C4.55029 35.7506 4.47309 35.7311 4.39013 35.6832Z" fill="#267FE5"/>
<path d="M4.39013 34.0252C4.10796 33.8624 3.87903 33.4662 3.87903 33.1401C3.87903 33.0789 3.88924 33.027 3.90433 32.98C3.73795 32.9813 3.62305 33.1122 3.62305 33.342C3.62305 33.6676 3.85198 34.0643 4.13414 34.2271C4.36351 34.3593 4.55472 34.2945 4.6195 34.0918C4.55029 34.0927 4.47309 34.0731 4.39013 34.0252Z" fill="#267FE5"/>
<path d="M4.39013 32.3668C4.10796 32.204 3.87903 31.8078 3.87903 31.4817C3.87903 31.4205 3.88924 31.3686 3.90433 31.3215C3.73795 31.3229 3.62305 31.4537 3.62305 31.6836C3.62305 32.0092 3.85198 32.4058 4.13414 32.5687C4.36351 32.7009 4.55472 32.6361 4.6195 32.4333C4.55029 32.4342 4.47309 32.4147 4.39013 32.3668Z" fill="#267FE5"/>
<path d="M13.0904 43.2835L12.7523 43.0883C12.6472 43.0275 12.562 42.8647 12.562 42.7249V41.1002C12.562 40.9601 12.6472 40.8957 12.7523 40.9565L13.0904 41.1517C13.1955 41.2125 13.2807 41.3753 13.2807 41.5151V43.1397C13.2807 43.2795 13.1955 43.3443 13.0904 43.2835Z" fill="#480689"/>
<path opacity="0.2" d="M26.3086 0H7.73779V23.1912L7.73913 23.1918C7.74047 23.3117 7.86381 23.4261 8.11675 23.5117L16.0074 27.7281C16.5683 27.9179 17.5483 27.894 18.1963 27.6749L25.7723 23.5651C26.1084 23.4515 26.2876 23.3075 26.3054 23.169L26.3086 23.1679V0Z" fill="url(#paint4_linear_3007_10918)"/>
<path opacity="0.25" d="M25.5349 2.32153H8.51172V22.7848L8.51307 22.785C8.51398 22.8907 8.62714 22.9917 8.85935 23.0673L16.0925 27.7433C16.6067 27.9107 17.5052 27.8898 18.099 27.6964L25.0438 23.114C25.3521 23.0137 25.5164 22.8869 25.5322 22.7643L25.5349 22.7636V2.32153Z" fill="url(#paint5_linear_3007_10918)"/>
<path d="M14.6146 12.6525C14.9936 12.6525 15.3009 12.3452 15.3009 11.9661C15.3009 11.5871 14.9936 11.2798 14.6146 11.2798C14.2355 11.2798 13.9282 11.5871 13.9282 11.9661C13.9282 12.3452 14.2355 12.6525 14.6146 12.6525Z" fill="#6DE0F6"/>
<path d="M19.7898 8.53559C20.4374 8.53559 20.9624 8.01061 20.9624 7.36301C20.9624 6.71541 20.4374 6.19043 19.7898 6.19043C19.1422 6.19043 18.6172 6.71541 18.6172 7.36301C18.6172 8.01061 19.1422 8.53559 19.7898 8.53559Z" fill="#6DE0F6"/>
<path d="M18.3471 6.91645C18.5135 6.91645 18.6484 6.78158 18.6484 6.61521C18.6484 6.44884 18.5135 6.31396 18.3471 6.31396C18.1808 6.31396 18.0459 6.44884 18.0459 6.61521C18.0459 6.78158 18.1808 6.91645 18.3471 6.91645Z" fill="#6DE0F6"/>
<defs>
<linearGradient id="paint0_linear_3007_10918" x1="-3.23145" y1="35.8585" x2="38.4414" y2="35.8585" gradientUnits="userSpaceOnUse">
<stop stop-color="#1F25A9"/>
<stop offset="1" stop-color="#2C75E4"/>
</linearGradient>
<linearGradient id="paint1_linear_3007_10918" x1="-3.23145" y1="48.6372" x2="38.4414" y2="48.6372" gradientUnits="userSpaceOnUse">
<stop stop-color="#00A3FF"/>
<stop offset="1" stop-color="#6EE8FC"/>
</linearGradient>
<linearGradient id="paint2_linear_3007_10918" x1="-0.278909" y1="23.0109" x2="31.8033" y2="30.9494" gradientUnits="userSpaceOnUse">
<stop stop-color="#16139B"/>
<stop offset="1" stop-color="#2979E4"/>
</linearGradient>
<linearGradient id="paint3_linear_3007_10918" x1="4.16341" y1="23.0113" x2="28.0486" y2="28.9215" gradientUnits="userSpaceOnUse">
<stop stop-color="#007DC3"/>
<stop offset="1" stop-color="#2142A1"/>
</linearGradient>
<linearGradient id="paint4_linear_3007_10918" x1="17.0233" y1="26.3084" x2="17.0233" y2="5.33153e-05" gradientUnits="userSpaceOnUse">
<stop offset="0.0108" stop-color="#25BFEC"/>
<stop offset="0.0453" stop-color="#24B4E1"/>
<stop offset="0.2186" stop-color="#1F83B0"/>
<stop offset="0.3902" stop-color="#1B5A86"/>
<stop offset="0.5567" stop-color="#173A66"/>
<stop offset="0.7168" stop-color="#152350"/>
<stop offset="0.8678" stop-color="#131642"/>
<stop offset="1" stop-color="#13113D"/>
</linearGradient>
<linearGradient id="paint5_linear_3007_10918" x1="17.0232" y1="25.5351" x2="17.0232" y2="2.32156" gradientUnits="userSpaceOnUse">
<stop offset="0.0108" stop-color="#70E8FC"/>
<stop offset="0.1484" stop-color="#5AB5CF"/>
<stop offset="0.3028" stop-color="#4584A3"/>
<stop offset="0.4559" stop-color="#335A7E"/>
<stop offset="0.6045" stop-color="#253A62"/>
<stop offset="0.7474" stop-color="#1B244D"/>
<stop offset="0.882" stop-color="#151641"/>
<stop offset="1" stop-color="#13113D"/>
</linearGradient>
</defs>
</svg>
