<svg width="48" height="48" viewBox="0 0 48 48" fill="none" xmlns="http://www.w3.org/2000/svg">
<g clip-path="url(#clip0_4678_12275)">
<path d="M24 0.0576172C14.3945 0.0576172 6.29908 6.71485 3.69231 15.8072C1.36246 17.2102 0 19.913 0 23.0773C0 27.665 2.79692 31.385 7.38462 31.385C7.87425 31.385 8.34382 31.1905 8.69004 30.8443C9.03626 30.4981 9.23077 30.0285 9.23077 29.5388V16.6158C9.23077 15.7665 8.62708 15.1001 7.84615 14.8841C10.5415 8.27116 16.7631 3.63731 24 3.63731C31.2369 3.63731 37.4585 8.27116 40.1538 14.8859C39.3729 15.1019 38.7692 15.7665 38.7692 16.6158V29.5388C38.7692 30.0285 38.9637 30.4981 39.31 30.8443C39.6562 31.1905 40.1258 31.385 40.6154 31.385C41.0455 31.385 41.4295 31.3333 41.8265 31.2687C41.2302 34.7136 39.7828 37.2816 38.3077 39.0595C37.5531 39.9778 36.6803 40.7922 35.712 41.4816C35.4378 41.6775 35.1482 41.851 34.8462 42.0004C34.7391 42.0521 34.6505 42.1001 34.6154 42.1167H31.1538C30.4892 40.1856 28.3735 38.7696 25.8462 38.7696C22.7871 38.7696 20.3077 40.8373 20.3077 43.385C20.3077 45.9327 22.7871 48.0004 25.8462 48.0004C28.3735 48.0004 30.4892 46.5825 31.1538 44.6533H34.7889C35.4129 44.6533 35.5717 44.4872 35.9428 44.3081C36.312 44.1272 36.7495 43.8816 37.2111 43.5585C38.1342 42.9124 39.2511 41.9709 40.3274 40.673C42.2732 38.3284 44.0862 34.8484 44.5385 30.1739C46.7169 28.7265 48 26.1272 48 23.0773C48 19.913 46.6375 17.2121 44.3077 15.8072C41.7009 6.71485 33.6055 0.0594633 24 0.0594633V0.0576172Z" fill="url(#paint0_linear_4678_12275)"/>
<g filter="url(#filter0_b_4678_12275)">
<path d="M13.3752 27.6768C13.5512 26.9724 13.6393 26.6202 13.6609 26.3282C13.6865 25.9837 13.6828 25.8927 13.6298 25.5514C13.5849 25.262 13.3967 24.7033 13.0202 23.586C12.6295 22.4266 12.4164 21.1856 12.4164 19.8939C12.4164 13.4769 17.6174 8.27588 24.0344 8.27588C30.4514 8.27588 35.6523 13.4769 35.6523 19.8939C35.6523 26.3109 30.4514 31.5118 24.0344 31.5118C22.7427 31.5118 21.5016 31.2987 20.3422 30.9081C19.2249 30.5316 18.6662 30.3433 18.3768 30.2984C18.0355 30.2454 17.9445 30.2418 17.6 30.2673C17.308 30.2889 16.9558 30.377 16.2515 30.5531L14.1844 31.0698C13.6012 31.2156 13.3097 31.2885 13.1064 31.2089C12.9291 31.1395 12.7887 30.9991 12.7193 30.8218C12.6397 30.6186 12.7126 30.327 12.8584 29.7438L13.3752 27.6768Z" fill="white"/>
<path d="M13.3752 27.6768C13.5512 26.9724 13.6393 26.6202 13.6609 26.3282C13.6865 25.9837 13.6828 25.8927 13.6298 25.5514C13.5849 25.262 13.3967 24.7033 13.0202 23.586C12.6295 22.4266 12.4164 21.1856 12.4164 19.8939C12.4164 13.4769 17.6174 8.27588 24.0344 8.27588C30.4514 8.27588 35.6523 13.4769 35.6523 19.8939C35.6523 26.3109 30.4514 31.5118 24.0344 31.5118C22.7427 31.5118 21.5016 31.2987 20.3422 30.9081C19.2249 30.5316 18.6662 30.3433 18.3768 30.2984C18.0355 30.2454 17.9445 30.2418 17.6 30.2673C17.308 30.2889 16.9558 30.377 16.2515 30.5531L14.1844 31.0698C13.6012 31.2156 13.3097 31.2885 13.1064 31.2089C12.9291 31.1395 12.7887 30.9991 12.7193 30.8218C12.6397 30.6186 12.7126 30.327 12.8584 29.7438L13.3752 27.6768Z" stroke="url(#paint1_linear_4678_12275)" stroke-width="0.170853" stroke-linecap="round" stroke-linejoin="round"/>
<path d="M13.3752 27.6768C13.5512 26.9724 13.6393 26.6202 13.6609 26.3282C13.6865 25.9837 13.6828 25.8927 13.6298 25.5514C13.5849 25.262 13.3967 24.7033 13.0202 23.586C12.6295 22.4266 12.4164 21.1856 12.4164 19.8939C12.4164 13.4769 17.6174 8.27588 24.0344 8.27588C30.4514 8.27588 35.6523 13.4769 35.6523 19.8939C35.6523 26.3109 30.4514 31.5118 24.0344 31.5118C22.7427 31.5118 21.5016 31.2987 20.3422 30.9081C19.2249 30.5316 18.6662 30.3433 18.3768 30.2984C18.0355 30.2454 17.9445 30.2418 17.6 30.2673C17.308 30.2889 16.9558 30.377 16.2515 30.5531L14.1844 31.0698C13.6012 31.2156 13.3097 31.2885 13.1064 31.2089C12.9291 31.1395 12.7887 30.9991 12.7193 30.8218C12.6397 30.6186 12.7126 30.327 12.8584 29.7438L13.3752 27.6768Z" stroke="url(#paint2_linear_4678_12275)" stroke-width="0.170853" stroke-linecap="round" stroke-linejoin="round"/>
</g>
<g filter="url(#filter1_bdii_4678_12275)">
<path fill-rule="evenodd" clip-rule="evenodd" d="M20.2729 19.8943C20.2729 20.4604 19.8139 20.9194 19.2478 20.9194C18.6816 20.9194 18.2227 20.4604 18.2227 19.8943C18.2227 19.3281 18.6816 18.8691 19.2478 18.8691C19.8139 18.8691 20.2729 19.3281 20.2729 19.8943ZM25.0574 19.8943C25.0574 20.4604 24.5984 20.9194 24.0323 20.9194C23.4661 20.9194 23.0071 20.4604 23.0071 19.8943C23.0071 19.3281 23.4661 18.8691 24.0323 18.8691C24.5984 18.8691 25.0574 19.3281 25.0574 19.8943ZM28.8135 20.9194C29.3797 20.9194 29.8386 20.4604 29.8386 19.8943C29.8386 19.3281 29.3797 18.8691 28.8135 18.8691C28.2473 18.8691 27.7884 19.3281 27.7884 19.8943C27.7884 20.4604 28.2473 20.9194 28.8135 20.9194Z" fill="#003CFF"/>
</g>
</g>
<defs>
<filter id="filter0_b_4678_12275" x="4.13111" y="-0.0104961" width="39.8081" height="39.8086" filterUnits="userSpaceOnUse" color-interpolation-filters="sRGB">
<feFlood flood-opacity="0" result="BackgroundImageFix"/>
<feGaussianBlur in="BackgroundImageFix" stdDeviation="4.10046"/>
<feComposite in2="SourceAlpha" operator="in" result="effect1_backgroundBlur_4678_12275"/>
<feBlend mode="normal" in="SourceGraphic" in2="effect1_backgroundBlur_4678_12275" result="shape"/>
</filter>
<filter id="filter1_bdii_4678_12275" x="13.4388" y="14.0853" width="21.5266" height="11.9597" filterUnits="userSpaceOnUse" color-interpolation-filters="sRGB">
<feFlood flood-opacity="0" result="BackgroundImageFix"/>
<feGaussianBlur in="BackgroundImageFix" stdDeviation="2.39194"/>
<feComposite in2="SourceAlpha" operator="in" result="effect1_backgroundBlur_4678_12275"/>
<feColorMatrix in="SourceAlpha" type="matrix" values="0 0 0 0 0 0 0 0 0 0 0 0 0 0 0 0 0 0 127 0" result="hardAlpha"/>
<feOffset dx="1.70853" dy="1.70853"/>
<feGaussianBlur stdDeviation="1.70853"/>
<feColorMatrix type="matrix" values="0 0 0 0 0.258824 0 0 0 0 0.631373 0 0 0 0 0.996078 0 0 0 0.12 0"/>
<feBlend mode="normal" in2="effect1_backgroundBlur_4678_12275" result="effect2_dropShadow_4678_12275"/>
<feBlend mode="normal" in="SourceGraphic" in2="effect2_dropShadow_4678_12275" result="shape"/>
<feColorMatrix in="SourceAlpha" type="matrix" values="0 0 0 0 0 0 0 0 0 0 0 0 0 0 0 0 0 0 127 0" result="hardAlpha"/>
<feOffset dy="0.068341"/>
<feComposite in2="hardAlpha" operator="arithmetic" k2="-1" k3="1"/>
<feColorMatrix type="matrix" values="0 0 0 0 1 0 0 0 0 1 0 0 0 0 1 0 0 0 0.25 0"/>
<feBlend mode="normal" in2="shape" result="effect3_innerShadow_4678_12275"/>
<feColorMatrix in="SourceAlpha" type="matrix" values="0 0 0 0 0 0 0 0 0 0 0 0 0 0 0 0 0 0 127 0" result="hardAlpha"/>
<feOffset dy="-0.068341"/>
<feComposite in2="hardAlpha" operator="arithmetic" k2="-1" k3="1"/>
<feColorMatrix type="matrix" values="0 0 0 0 0 0 0 0 0 0 0 0 0 0 0 0 0 0 0.25 0"/>
<feBlend mode="normal" in2="effect3_innerShadow_4678_12275" result="effect4_innerShadow_4678_12275"/>
</filter>
<linearGradient id="paint0_linear_4678_12275" x1="24" y1="0.0576172" x2="24" y2="48.0004" gradientUnits="userSpaceOnUse">
<stop stop-color="#00D0FF"/>
<stop offset="1" stop-color="#3600FB"/>
</linearGradient>
<linearGradient id="paint1_linear_4678_12275" x1="9.17019" y1="33.0495" x2="25.5931" y2="18.722" gradientUnits="userSpaceOnUse">
<stop stop-color="#3ABFFD" stop-opacity="0.16"/>
<stop offset="1" stop-color="white" stop-opacity="0"/>
</linearGradient>
<linearGradient id="paint2_linear_4678_12275" x1="32.577" y1="14.0849" x2="22.0832" y2="24.1814" gradientUnits="userSpaceOnUse">
<stop stop-color="white" stop-opacity="0.16"/>
<stop offset="1" stop-color="white" stop-opacity="0"/>
</linearGradient>
<clipPath id="clip0_4678_12275">
<rect width="48" height="48" fill="white"/>
</clipPath>
</defs>
</svg>
