<svg id="circle-stoke" width="537" height="205" viewBox="0 0 537 205" fill="none" xmlns="http://www.w3.org/2000/svg">
<path d="M277.932 203.476C195.828 205.683 95.5855 205.72 25.2019 170.786C-16.9738 147.061 0.0545844 110.845 33.3741 86.9061C97.8834 38.9177 271.555 -9.9955 353.626 26.9903C363.227 30.7183 371.014 45.7556 354.337 45.5697C350.663 45.0252 348.015 42.5558 347.869 39.8009C336.875 31.3673 319.864 29.3476 304.937 27.4675C224.148 20.8694 106.494 52.3028 46.3954 94.379C-63.2983 178.23 159.745 192.902 230.313 192.266C288.029 191.447 346.097 188.076 402.392 177.277C585.248 141.259 535.751 52.7624 385.785 20.1614C291.443 1.76136 193.542 20.2538 98.6082 29.0582C84.1243 30.7611 69.5908 32.7469 55.2985 35.0605C116.171 19.6491 179.429 10.0369 242.655 2.73883C537.841 -26.0367 705.47 184.977 277.932 203.476Z" fill="url(#paint0_linear_807_435)" fill-opacity="0.3"/>
<defs>
<linearGradient id="paint0_linear_807_435" x1="265.361" y1="0.673733" x2="270.41" y2="203.67" gradientUnits="userSpaceOnUse">
<stop stop-color="#DAE9FF"/>
<stop offset="1" stop-color="#74ABFF"/>
</linearGradient>
</defs>
</svg>
