<svg width="81" height="71" viewBox="0 0 81 71" fill="none" xmlns="http://www.w3.org/2000/svg">
<path d="M56.5372 70.1139L52.1745 69.305L11.7432 45.8424L7.51976 41.9617L3.29635 35.7596L1.03998 29.3673L0.480469 24.0024L1.50776 19.8932L3.90506 16.6596L7.32965 15.8416L24.8062 6.32324C24.8062 6.32324 45.2253 20.3502 46.0616 20.6545C46.8988 20.9589 60.0635 48.0487 60.0635 48.0487L62.9553 66.3115L59.7083 69.2917L56.5372 70.1139Z" fill="#4A0E91"/>
<path d="M80.9425 52.2623C80.9425 45.2655 76.0303 36.7578 69.9708 33.259C68.4958 32.4076 67.0899 31.934 65.8058 31.8014C65.1821 25.5084 60.8077 18.3857 55.502 15.3222C54.7715 14.9003 54.0586 14.5768 53.3707 14.3458C51.7622 9.19931 48.1125 4.14622 43.8649 1.69389C40.8722 -0.0338358 38.1772 -0.126394 36.2827 1.11853L36.2819 1.1152L28.573 5.33277C26.5593 4.83664 24.7499 5.00925 23.2665 5.76638L23.2715 5.75303L23.1105 5.84142C23.1047 5.84475 23.0989 5.84809 23.093 5.85059L4.06641 16.146L8.92437 16.0368L14.8346 18.269L15.2657 14.4392L17.6247 11.7759L19.6292 10.917L20.3639 10.837L23.4032 11.8884C23.4741 11.4724 24.1237 11.6741 24.3713 11.6741C25.8931 12.5872 26.8061 14.109 28.0235 15.022C31.6758 17.4568 31.6758 23.0311 34.7201 25.1616C39.5898 28.8138 44.1559 33.8936 46.5907 39.3719C46.745 39.6813 46.5857 39.9114 46.3506 40.104L46.8442 42.8474L51.131 44.0139L55.1893 47.2859L58.8924 51.9788L60.1607 54.8447L61.5974 58.7763L61.9367 62.7328L61.5974 65.7514L58.9032 70.1115L77.4762 59.4909L77.4837 59.4867L77.317 59.5676C79.5408 58.5353 80.9425 55.9946 80.9425 52.2623Z" fill="url(#paint0_linear_4587_12237)"/>
<path d="M25.5345 5.10547C24.7173 5.19636 23.9552 5.4165 23.2665 5.76755L23.2715 5.7542L23.1105 5.84259C23.1047 5.84592 23.0989 5.84843 23.093 5.85176L4.06641 16.1472L5.13206 16.123C5.54398 15.8062 5.95589 15.4109 6.36781 15.4384L25.0484 5.33061C25.0542 5.32727 25.0601 5.32394 25.0659 5.32144L25.2268 5.23305L25.2218 5.24639C25.3227 5.1947 25.4294 5.15216 25.5345 5.10547Z" fill="#D4088C"/>
<path d="M80.9455 52.262C80.9455 45.2652 76.0334 36.7575 69.9739 33.2587C69.6778 33.0877 69.386 32.9368 69.0966 32.7959C75.2404 36.3697 80.2134 44.9984 80.2134 52.0985C80.2134 55.895 78.7876 58.4791 76.5253 59.5306L76.6946 59.448L76.6871 59.4522L59.3765 69.3507L58.9062 70.112L77.4793 59.4914L77.4859 59.4872L77.3192 59.5681C79.5439 58.5349 80.9455 55.9942 80.9455 52.262Z" fill="#6EE8FC"/>
<path d="M46.5977 39.3732C44.1628 33.894 40.3071 26.9948 34.2193 25.1178C33.3062 22.3786 31.6827 17.4573 28.0305 15.0225C26.8131 14.1094 25.9 12.5876 24.3783 11.6746C24.1306 11.6746 23.481 11.4736 23.4102 11.8889L23.5002 11.9197C23.5386 20.1731 29.3279 30.1742 36.4648 34.2951L46.3383 39.9952L46.3575 40.1045C46.5926 39.9135 46.7519 39.6825 46.5977 39.3732Z" fill="#35047C"/>
<path d="M51.3059 43.7163C49.8208 42.8592 48.4058 42.3822 47.1125 42.2496C46.4846 35.9149 42.0811 28.7447 36.7395 25.6603C36.0041 25.2359 35.287 24.9099 34.594 24.6772C32.9747 19.4966 29.3008 14.4093 25.0249 11.9403C19.2597 8.61157 14.5843 11.3024 14.5726 17.9498C14.1324 17.6438 13.6854 17.3594 13.2335 17.0984C6.02409 12.9359 0.179688 16.3105 0.179688 24.6347C0.179688 32.959 6.02409 43.081 13.2335 47.2435L51.3059 69.2244C57.4063 72.7466 62.351 69.8915 62.351 62.848C62.351 55.8029 57.4063 47.2377 51.3059 43.7163Z" fill="url(#paint1_linear_4587_12237)"/>
<path d="M51.3114 43.7157C50.9703 43.519 50.6343 43.3472 50.3008 43.1904C56.3895 46.7234 61.5743 55.8131 61.5743 62.8466C61.5743 67.6337 59.2863 70.4796 55.9075 70.7097C59.7099 70.8898 62.3556 67.9939 62.3556 62.8466C62.3565 55.8023 57.4118 47.2371 51.3114 43.7157Z" fill="#6EE8FC"/>
<path d="M0.684998 24.876C0.684998 18.1828 4.42228 14.6673 9.61462 15.6062C4.16796 14.2746 0.179688 17.7592 0.179688 24.6317C0.179688 32.0838 4.86755 40.9625 11.0205 45.7313C5.10853 40.7966 0.684998 32.1605 0.684998 24.876Z" fill="#D4088C"/>
<path d="M21.5055 36.7077C21.5055 38.5205 20.233 39.2551 18.6629 38.3488C17.0936 37.4424 15.8203 35.2385 15.8203 33.4257C15.8203 31.613 17.0928 30.8784 18.6629 31.7847C20.2322 32.6911 21.5055 34.895 21.5055 36.7077Z" fill="#6DE0F6"/>
<path d="M20.0704 37.6436C18.5003 36.7372 17.2278 34.5334 17.2278 32.7206C17.2278 32.1736 17.3546 31.7384 17.5597 31.4031C16.5374 31.3106 15.8203 32.0635 15.8203 33.4244C15.8203 35.2372 17.0928 37.441 18.6629 38.3474C19.7585 38.9803 20.6983 38.7985 21.1727 38.0239C20.8342 37.993 20.4615 37.8696 20.0704 37.6436Z" fill="#267FE5"/>
<path d="M30.232 41.7468C30.232 43.5596 28.9596 44.2942 27.3894 43.3878C25.8201 42.4814 24.5469 40.2776 24.5469 38.4648C24.5469 36.652 25.8193 35.9174 27.3894 36.8238C28.9596 37.7302 30.232 39.934 30.232 41.7468Z" fill="#6DE0F6"/>
<path d="M38.9664 46.7878C38.9664 48.6006 37.6939 49.3352 36.1238 48.4288C34.5537 47.5225 33.2812 45.3186 33.2812 43.5058C33.2812 41.6931 34.5537 40.9584 36.1238 41.8648C37.6939 42.7712 38.9664 44.9751 38.9664 46.7878Z" fill="#6DE0F6"/>
<path d="M28.797 42.6856C27.2268 41.7792 25.9544 39.5754 25.9544 37.7626C25.9544 37.2156 26.0811 36.7812 26.2863 36.4451C25.264 36.3526 24.5469 37.1047 24.5469 38.4655C24.5469 40.2783 25.8193 42.4822 27.3894 43.3886C28.4851 44.0214 29.4249 43.8397 29.8993 43.065C29.5608 43.035 29.188 42.9108 28.797 42.6856Z" fill="#267FE5"/>
<path d="M37.5313 47.7286C35.9612 46.8222 34.6888 44.6183 34.6888 42.8056C34.6888 42.2586 34.8155 41.8233 35.0206 41.4881C33.9984 41.3956 33.2812 42.1485 33.2812 43.5093C33.2812 45.3221 34.5537 47.526 36.1238 48.4323C37.2195 49.0652 38.1592 48.8834 38.6337 48.1088C38.2943 48.078 37.9224 47.9546 37.5313 47.7286Z" fill="#267FE5"/>
<defs>
<linearGradient id="paint0_linear_4587_12237" x1="30.9296" y1="8.67306" x2="61.1583" y2="69.5224" gradientUnits="userSpaceOnUse">
<stop stop-color="#A31FA9"/>
<stop offset="0.0668" stop-color="#8B17A0"/>
<stop offset="0.1494" stop-color="#740F98"/>
<stop offset="0.2393" stop-color="#640A92"/>
<stop offset="0.3408" stop-color="#5B078F"/>
<stop offset="0.4785" stop-color="#58068E"/>
<stop offset="0.6264" stop-color="#4D22A3"/>
<stop offset="0.9436" stop-color="#3168DA"/>
<stop offset="1" stop-color="#2C75E4"/>
</linearGradient>
<linearGradient id="paint1_linear_4587_12237" x1="-27.0458" y1="9.4229" x2="80.1456" y2="60.642" gradientUnits="userSpaceOnUse">
<stop stop-color="#A31FA9"/>
<stop offset="0.0668" stop-color="#8B17A0"/>
<stop offset="0.1494" stop-color="#740F98"/>
<stop offset="0.2393" stop-color="#640A92"/>
<stop offset="0.3408" stop-color="#5B078F"/>
<stop offset="0.4785" stop-color="#58068E"/>
<stop offset="0.6264" stop-color="#4D22A3"/>
<stop offset="0.9436" stop-color="#3168DA"/>
<stop offset="1" stop-color="#2C75E4"/>
</linearGradient>
</defs>
</svg>
