<svg width="88" height="88" viewBox="0 0 88 88" fill="none" xmlns="http://www.w3.org/2000/svg">
<g clip-path="url(#clip0_4681_12312)">
<path d="M85.1415 52.5659C84.7171 50.8684 84.5049 50.0197 84.4578 49.3015C84.4049 48.4946 84.4213 48.1911 84.5611 47.3946C84.6855 46.6857 85.1365 45.4626 86.0383 43.0163C87.304 39.5831 88 35.8742 88 32C88 14.3253 73.6747 0 56 0C38.3253 0 24 14.3253 24 32C24 49.6747 38.3253 64 56 64C59.8742 64 63.5831 63.304 67.0163 62.0383C69.4626 61.1365 70.6857 60.6855 71.3946 60.5611C72.1911 60.4213 72.4946 60.4049 73.3015 60.4578C74.0197 60.5049 74.8684 60.7171 76.5659 61.1415L82.8259 62.7065C84.5325 63.1331 85.3858 63.3465 85.9805 63.1136C86.4996 62.9103 86.9103 62.4996 87.1136 61.9805C87.3465 61.3858 87.1331 60.5325 86.7065 58.8259L85.1415 52.5659Z" fill="url(#paint0_linear_4681_12312)"/>
<g filter="url(#filter0_b_4681_12312)">
<path d="M2.80583 76.7767C3.32115 74.7154 3.5788 73.6848 3.64215 72.83C3.71686 71.822 3.70619 71.5556 3.55113 70.5568C3.41965 69.7099 2.86874 68.075 1.76693 64.8052C0.623602 61.4122 0 57.7801 0 54C0 35.2207 15.2207 20 34 20C52.7793 20 68 35.2207 68 54C68 72.7793 52.7793 88 34 88C30.2199 88 26.5878 87.3764 23.1948 86.2331C19.925 85.1313 18.2901 84.5804 17.4432 84.4489C16.4444 84.2938 16.178 84.2831 15.17 84.3578C14.3152 84.4212 13.2846 84.6789 11.2233 85.1942L5.17409 86.7065C3.46748 87.1331 2.61418 87.3465 2.01945 87.1136C1.50039 86.9103 1.08971 86.4996 0.88644 85.9805C0.653543 85.3858 0.866869 84.5325 1.29352 82.8259L2.80583 76.7767Z" fill="#B2E7FE" fill-opacity="0.36"/>
<path d="M2.80583 76.7767C3.32115 74.7154 3.5788 73.6848 3.64215 72.83C3.71686 71.822 3.70619 71.5556 3.55113 70.5568C3.41965 69.7099 2.86874 68.075 1.76693 64.8052C0.623602 61.4122 0 57.7801 0 54C0 35.2207 15.2207 20 34 20C52.7793 20 68 35.2207 68 54C68 72.7793 52.7793 88 34 88C30.2199 88 26.5878 87.3764 23.1948 86.2331C19.925 85.1313 18.2901 84.5804 17.4432 84.4489C16.4444 84.2938 16.178 84.2831 15.17 84.3578C14.3152 84.4212 13.2846 84.6789 11.2233 85.1942L5.17409 86.7065C3.46748 87.1331 2.61418 87.3465 2.01945 87.1136C1.50039 86.9103 1.08971 86.4996 0.88644 85.9805C0.653543 85.3858 0.866869 84.5325 1.29352 82.8259L2.80583 76.7767Z" stroke="url(#paint1_linear_4681_12312)" stroke-width="0.5" stroke-linecap="round" stroke-linejoin="round"/>
<path d="M2.80583 76.7767C3.32115 74.7154 3.5788 73.6848 3.64215 72.83C3.71686 71.822 3.70619 71.5556 3.55113 70.5568C3.41965 69.7099 2.86874 68.075 1.76693 64.8052C0.623602 61.4122 0 57.7801 0 54C0 35.2207 15.2207 20 34 20C52.7793 20 68 35.2207 68 54C68 72.7793 52.7793 88 34 88C30.2199 88 26.5878 87.3764 23.1948 86.2331C19.925 85.1313 18.2901 84.5804 17.4432 84.4489C16.4444 84.2938 16.178 84.2831 15.17 84.3578C14.3152 84.4212 13.2846 84.6789 11.2233 85.1942L5.17409 86.7065C3.46748 87.1331 2.61418 87.3465 2.01945 87.1136C1.50039 86.9103 1.08971 86.4996 0.88644 85.9805C0.653543 85.3858 0.866869 84.5325 1.29352 82.8259L2.80583 76.7767Z" stroke="url(#paint2_linear_4681_12312)" stroke-width="0.5" stroke-linecap="round" stroke-linejoin="round"/>
</g>
<g filter="url(#filter1_bdii_4681_12312)">
<path fill-rule="evenodd" clip-rule="evenodd" d="M23 54C23 55.6569 21.6569 57 20 57C18.3431 57 17 55.6569 17 54C17 52.3431 18.3431 51 20 51C21.6569 51 23 52.3431 23 54ZM37 54C37 55.6569 35.6569 57 34 57C32.3431 57 31 55.6569 31 54C31 52.3431 32.3431 51 34 51C35.6569 51 37 52.3431 37 54ZM48 57C49.6569 57 51 55.6569 51 54C51 52.3431 49.6569 51 48 51C46.3431 51 45 52.3431 45 54C45 55.6569 46.3431 57 48 57Z" fill="url(#paint3_linear_4681_12312)"/>
</g>
</g>
<defs>
<filter id="filter0_b_4681_12312" x="-24.25" y="-4.25" width="116.5" height="116.5" filterUnits="userSpaceOnUse" color-interpolation-filters="sRGB">
<feFlood flood-opacity="0" result="BackgroundImageFix"/>
<feGaussianBlur in="BackgroundImageFix" stdDeviation="12"/>
<feComposite in2="SourceAlpha" operator="in" result="effect1_backgroundBlur_4681_12312"/>
<feBlend mode="normal" in="SourceGraphic" in2="effect1_backgroundBlur_4681_12312" result="shape"/>
</filter>
<filter id="filter1_bdii_4681_12312" x="3" y="37" width="63" height="35" filterUnits="userSpaceOnUse" color-interpolation-filters="sRGB">
<feFlood flood-opacity="0" result="BackgroundImageFix"/>
<feGaussianBlur in="BackgroundImageFix" stdDeviation="7"/>
<feComposite in2="SourceAlpha" operator="in" result="effect1_backgroundBlur_4681_12312"/>
<feColorMatrix in="SourceAlpha" type="matrix" values="0 0 0 0 0 0 0 0 0 0 0 0 0 0 0 0 0 0 127 0" result="hardAlpha"/>
<feOffset dx="5" dy="5"/>
<feGaussianBlur stdDeviation="5"/>
<feColorMatrix type="matrix" values="0 0 0 0 0.258824 0 0 0 0 0.631373 0 0 0 0 0.996078 0 0 0 0.12 0"/>
<feBlend mode="normal" in2="effect1_backgroundBlur_4681_12312" result="effect2_dropShadow_4681_12312"/>
<feBlend mode="normal" in="SourceGraphic" in2="effect2_dropShadow_4681_12312" result="shape"/>
<feColorMatrix in="SourceAlpha" type="matrix" values="0 0 0 0 0 0 0 0 0 0 0 0 0 0 0 0 0 0 127 0" result="hardAlpha"/>
<feOffset dy="0.2"/>
<feComposite in2="hardAlpha" operator="arithmetic" k2="-1" k3="1"/>
<feColorMatrix type="matrix" values="0 0 0 0 1 0 0 0 0 1 0 0 0 0 1 0 0 0 0.25 0"/>
<feBlend mode="normal" in2="shape" result="effect3_innerShadow_4681_12312"/>
<feColorMatrix in="SourceAlpha" type="matrix" values="0 0 0 0 0 0 0 0 0 0 0 0 0 0 0 0 0 0 127 0" result="hardAlpha"/>
<feOffset dy="-0.2"/>
<feComposite in2="hardAlpha" operator="arithmetic" k2="-1" k3="1"/>
<feColorMatrix type="matrix" values="0 0 0 0 0 0 0 0 0 0 0 0 0 0 0 0 0 0 0.25 0"/>
<feBlend mode="normal" in2="effect3_innerShadow_4681_12312" result="effect4_innerShadow_4681_12312"/>
</filter>
<linearGradient id="paint0_linear_4681_12312" x1="88" y1="-4.09742e-06" x2="29.8429" y2="36.3169" gradientUnits="userSpaceOnUse">
<stop stop-color="#39D3FD"/>
<stop offset="1" stop-color="#0064FA"/>
</linearGradient>
<linearGradient id="paint1_linear_4681_12312" x1="-9.5" y1="92.5" x2="38.5615" y2="50.5705" gradientUnits="userSpaceOnUse">
<stop stop-color="#3ABFFD" stop-opacity="0.16"/>
<stop offset="1" stop-color="white" stop-opacity="0"/>
</linearGradient>
<linearGradient id="paint2_linear_4681_12312" x1="59" y1="37" x2="28.29" y2="66.5475" gradientUnits="userSpaceOnUse">
<stop stop-color="white" stop-opacity="0.16"/>
<stop offset="1" stop-color="white" stop-opacity="0"/>
</linearGradient>
<linearGradient id="paint3_linear_4681_12312" x1="41.6667" y1="46.8148" x2="40.519" y2="73.3161" gradientUnits="userSpaceOnUse">
<stop stop-color="white" stop-opacity="0.88"/>
<stop offset="1" stop-color="white" stop-opacity="0"/>
</linearGradient>
<clipPath id="clip0_4681_12312">
<rect width="88" height="88" fill="white"/>
</clipPath>
</defs>
</svg>
