<svg width="28" height="20" viewBox="0 0 28 20" fill="none" xmlns="http://www.w3.org/2000/svg">
<path d="M26 0H16C15.4696 0 14.9609 0.210714 14.5858 0.585786C14.2107 0.960859 14 1.46957 14 2C14 2.53043 14.2107 3.03914 14.5858 3.41421C14.9609 3.78929 15.4696 4 16 4H26C26.5304 4 27.0391 3.78929 27.4142 3.41421C27.7893 3.03914 28 2.53043 28 2C28 1.46957 27.7893 0.960859 27.4142 0.585786C27.0391 0.210714 26.5304 0 26 0ZM12 16H2C1.46957 16 0.960859 16.2107 0.585787 16.5858C0.210714 16.9609 0 17.4696 0 18C0 18.5304 0.210714 19.0391 0.585787 19.4142C0.960859 19.7893 1.46957 20 2 20H12C12.5304 20 13.0391 19.7893 13.4142 19.4142C13.7893 19.0391 14 18.5304 14 18C14 17.4696 13.7893 16.9609 13.4142 16.5858C13.0391 16.2107 12.5304 16 12 16ZM26 8H2C1.46957 8 0.960859 8.21071 0.585787 8.58579C0.210714 8.96086 0 9.46957 0 10C0 10.5304 0.210714 11.0391 0.585787 11.4142C0.960859 11.7893 1.46957 12 2 12H26C26.5304 12 27.0391 11.7893 27.4142 11.4142C27.7893 11.0391 28 10.5304 28 10C28 9.46957 27.7893 8.96086 27.4142 8.58579C27.0391 8.21071 26.5304 8 26 8Z" fill="white"/>
</svg>
