<svg width="25" height="25" viewBox="0 0 36 35" fill="none" xmlns="http://www.w3.org/2000/svg">
<g clip-path="url(#clip0_19_44)">
<path d="M29.2752 11.9097L29.2632 11.3978V1.71709L26.6179 4.39351C24.453 1.71246 21.1595 0 17.4705 0C13.6313 0 10.2207 1.8539 8.06348 4.72375L12.3993 9.1565C12.8257 8.36258 13.4292 7.68135 14.1571 7.16272C14.9141 6.56503 15.9866 6.0764 17.4704 6.0764C17.6496 6.0764 17.7879 6.09742 17.8896 6.13751C19.7279 6.28427 21.3214 7.31074 22.2594 8.80047L19.1889 11.9069L29.2736 11.9089" fill="#1C3AA9"/>
<path d="M17.4017 0.000427246L16.8956 0.0140238H7.32713L9.97243 2.6903C7.32228 4.87795 5.62964 8.21121 5.62964 11.9435C5.62964 15.8263 7.46208 19.2781 10.2987 21.4594L14.6802 17.0728C13.8959 16.6433 13.2212 16.0349 12.7096 15.2959C12.119 14.53 11.6358 13.4449 11.6358 11.9438C11.6358 11.7624 11.6566 11.6225 11.6963 11.5197C11.8413 9.65987 12.8559 8.04763 14.3284 7.09867L17.3975 10.2037L17.3995 0.000987929" fill="#4285F4"/>
<path d="M5.62988 11.9432L5.64194 12.4551V22.1356L8.28724 19.4593C10.4522 22.1404 13.7458 23.8528 17.4347 23.8528C21.2725 23.8528 24.6844 21.9989 26.8405 19.1291L22.5046 14.6963C22.0801 15.4898 21.4788 16.1724 20.7483 16.69C19.9912 17.2877 18.9187 17.7763 17.435 17.7763C17.2557 17.7763 17.1175 17.7553 17.0158 17.7152C15.1775 17.5684 13.5839 16.542 12.646 15.0522L15.7151 11.9472C11.8274 11.9612 7.436 11.9717 5.63044 11.9452" fill="#ABABAB"/>
<path d="M7.62196 28.4782C7.33447 28.4782 7.07663 28.5334 6.84858 28.6436C6.62224 28.75 6.4236 28.9085 6.26848 29.1063C6.11233 29.3067 5.99207 29.5502 5.90784 29.836C5.82471 30.1194 5.78508 30.4367 5.78508 30.7892V31.8012C5.78508 32.1549 5.82595 32.4733 5.90784 32.7568C5.99207 33.0402 6.11109 33.2821 6.26474 33.4828C6.41839 33.6836 6.60418 33.8377 6.82253 33.9454C7.04088 34.0531 7.28611 34.1072 7.55878 34.1072C7.83892 34.1072 8.08429 34.0658 8.29502 33.983C8.50839 33.8989 8.6867 33.7811 8.83051 33.6255C8.97433 33.4676 9.08461 33.2769 9.16303 33.0536C9.24242 32.8305 9.28938 32.5771 9.30435 32.2939H8.61493C8.59761 32.5122 8.56782 32.7004 8.52571 32.8546C8.48359 33.0088 8.4218 33.1342 8.33977 33.2331C8.26039 33.3309 8.15634 33.4036 8.02749 33.4513C7.90113 33.4964 7.74485 33.519 7.55919 33.519C7.36107 33.519 7.19232 33.4751 7.05349 33.3872C6.91467 33.297 6.80189 33.1742 6.71516 33.0186C6.63092 32.8644 6.56885 32.6813 6.52923 32.4719C6.49209 32.2638 6.47339 32.0394 6.47339 31.7985V30.7791C6.47339 30.5208 6.49556 30.2862 6.54031 30.0754C6.58742 29.8648 6.65808 29.6855 6.75229 29.5375C6.8465 29.3894 6.96565 29.2753 7.10919 29.1952C7.253 29.1111 7.42397 29.071 7.62237 29.071C7.78863 29.071 7.93092 29.0962 8.04993 29.1462C8.16908 29.1939 8.26801 29.2692 8.34739 29.3705C8.42678 29.4709 8.48594 29.5987 8.52959 29.7542C8.57323 29.9096 8.59886 30.0952 8.61507 30.3109H9.30296C9.28911 30.0166 9.24477 29.753 9.16538 29.526C9.086 29.2989 8.97557 29.1059 8.83287 28.9504C8.69016 28.795 8.51933 28.6771 8.31608 28.5968C8.11519 28.5165 7.88353 28.4762 7.62057 28.4762L7.62196 28.4782ZM24.414 28.4782C24.1265 28.4782 23.8687 28.5334 23.6406 28.6436C23.4143 28.75 23.2157 28.9085 23.0605 29.1063C22.9044 29.3067 22.7841 29.5502 22.6999 29.836C22.6168 30.1194 22.5771 30.4367 22.5771 30.7892V31.8012C22.5771 32.1549 22.618 32.4733 22.6999 32.7568C22.7841 33.0402 22.9031 33.2821 23.0568 33.4828C23.2104 33.6836 23.3962 33.8377 23.6146 33.9454C23.8329 34.0531 24.0782 34.1072 24.3508 34.1072C24.631 34.1072 24.8763 34.0658 25.0871 33.983C25.3004 33.8989 25.4788 33.7811 25.6226 33.6255C25.7664 33.4676 25.8767 33.2769 25.9551 33.0536C26.0345 32.8305 26.0814 32.5771 26.0964 32.2939H25.4085C25.3912 32.5122 25.3614 32.7004 25.3193 32.8546C25.2772 33.0088 25.2154 33.1342 25.1333 33.2331C25.054 33.3309 24.9499 33.4036 24.8211 33.4513C24.6947 33.4964 24.5384 33.519 24.3528 33.519C24.1546 33.519 23.9859 33.4751 23.8471 33.3872C23.7082 33.297 23.5955 33.1742 23.5087 33.0186C23.4245 32.8644 23.3624 32.6813 23.3228 32.4719C23.2857 32.2638 23.267 32.0394 23.267 31.7985V30.7791C23.267 30.5208 23.2891 30.2862 23.3339 30.0754C23.381 29.8648 23.4517 29.6855 23.5459 29.5375C23.6401 29.3894 23.7592 29.2753 23.9028 29.1952C24.0466 29.1111 24.2175 29.071 24.4159 29.071C24.5822 29.071 24.7245 29.0962 24.8435 29.1462C24.9627 29.1939 25.0616 29.2692 25.141 29.3705C25.2204 29.4709 25.2795 29.5987 25.3232 29.7542C25.3668 29.9096 25.3924 30.0952 25.4086 30.3109H26.0965C26.0827 30.0166 26.0383 29.753 25.959 29.526C25.8796 29.2989 25.7691 29.1059 25.6264 28.9504C25.4837 28.795 25.3129 28.6771 25.1097 28.5968C24.9088 28.5165 24.6771 28.4762 24.4141 28.4762L24.414 28.4782ZM11.5429 28.5535L9.79744 34.0306H10.4964L10.9166 32.6012H12.746L13.1736 34.0306H13.8726L12.1249 28.5535H11.5429ZM14.6103 28.5535V34.0306H15.2892V31.8864H16.3339C16.5943 31.8864 16.8247 31.85 17.0255 31.7774C17.2264 31.7021 17.3949 31.5943 17.5312 31.4539C17.67 31.3134 17.7741 31.1404 17.8435 30.9347C17.9155 30.7265 17.9513 30.4908 17.9513 30.2275C17.9513 29.9842 17.9153 29.761 17.8435 29.5579C17.7742 29.3523 17.6713 29.1755 17.5349 29.0275C17.3986 28.8771 17.2301 28.7605 17.0255 28.6777C16.8246 28.5935 16.5942 28.5535 16.3339 28.5535H14.6103ZM18.4736 28.5535V29.1478H19.894V34.0306H20.5729V29.1478H21.9972V28.5535H18.4736ZM27.0146 28.5535V34.0306H27.6934V31.4989H29.871V34.0306H30.5552V28.5535H29.871V30.9083H27.6921V28.5535H27.0146ZM33.1384 28.5535L31.3945 34.0306H32.0935L32.5137 32.6012H34.3431L34.7706 34.0306H35.4684L33.7207 28.5535H33.1384ZM15.2906 29.1478H16.3353C16.5015 29.1478 16.6426 29.1779 16.7592 29.2381C16.8732 29.2941 16.9726 29.3766 17.0492 29.4789C17.1261 29.5792 17.1818 29.6958 17.2166 29.8287C17.2537 29.9591 17.2724 30.0946 17.2724 30.2352C17.2724 30.3894 17.2538 30.5338 17.2166 30.6641C17.1819 30.792 17.1261 30.9024 17.0492 31.0006C16.9748 31.0933 16.8781 31.166 16.7592 31.2188C16.6428 31.2715 16.5015 31.2979 16.3353 31.2979H15.2906V29.1478ZM11.8327 29.5164L12.5726 32.0067H11.0949L11.8327 29.5164ZM33.4282 29.5164L34.1681 32.0067H32.6905L33.4282 29.5164ZM1.39934 29.8851C1.22823 29.8851 1.08068 29.929 0.956814 30.0168C0.835308 30.1046 0.735137 30.2237 0.652008 30.3743L0.640924 29.9605H0V34.0308H0.658104V31.119C0.720035 30.9459 0.808014 30.8106 0.922039 30.709C1.03842 30.6086 1.18597 30.5586 1.36456 30.5586L1.51697 30.5662C1.56567 30.5692 1.61412 30.5755 1.66203 30.585L1.65828 29.9379C1.64831 29.9329 1.63224 29.9278 1.60979 29.9229C1.58803 29.9148 1.56565 29.9086 1.54287 29.9041C1.51793 29.8991 1.49203 29.8953 1.46473 29.8929C1.43979 29.8879 1.41763 29.8854 1.39781 29.8854L1.39934 29.8851ZM3.61168 29.8851C3.42239 29.8848 3.23463 29.9192 3.05748 29.9867C2.87737 30.0544 2.7204 30.1661 2.58157 30.3231C2.44524 30.4773 2.33495 30.6768 2.24905 30.925C2.16482 31.1707 2.1227 31.4717 2.1227 31.8316V32.2905C2.1227 32.6014 2.15872 32.8711 2.23049 33.0993C2.30226 33.3275 2.40506 33.517 2.53904 33.6674C2.67537 33.8155 2.84024 33.9258 3.03365 33.9985C3.22707 34.0713 3.44376 34.1076 3.68441 34.1076C3.85788 34.1076 4.01277 34.0901 4.14924 34.0549C4.28807 34.0198 4.41082 33.9746 4.51737 33.9195C4.62405 33.8617 4.71549 33.7965 4.79252 33.7238C4.86956 33.651 4.93523 33.5758 4.98954 33.4995L4.64732 33.0782C4.59274 33.1459 4.53455 33.2085 4.47275 33.2663C4.41082 33.3215 4.34252 33.3704 4.26826 33.413C4.19037 33.4538 4.10808 33.4853 4.02303 33.5069C3.93394 33.5308 3.83322 33.5409 3.72182 33.5409C3.41702 33.5409 3.18148 33.4418 3.01911 33.2437C2.85797 33.0456 2.77748 32.7283 2.77748 32.2905V32.1966H5.02196V31.8092C5.02196 31.4983 4.99591 31.2236 4.94382 30.9853C4.89172 30.747 4.80873 30.5465 4.69471 30.3834C4.58377 30.2229 4.43221 30.0956 4.25593 30.0147C4.07748 29.9295 3.86176 29.8869 3.60891 29.8869L3.61168 29.8851ZM3.61168 30.457C3.75549 30.457 3.8745 30.4833 3.96858 30.536C4.06177 30.5877 4.13898 30.6645 4.19164 30.7579C4.24872 30.8532 4.28959 30.9673 4.31439 31.1002C4.34169 31.2306 4.35901 31.375 4.36649 31.5328V31.6231H2.78122C2.79119 31.3949 2.81835 31.2053 2.86435 31.0549C2.91034 30.9045 2.96729 30.7854 3.03892 30.6975C3.11332 30.6072 3.1988 30.5433 3.29551 30.5094C3.39222 30.4755 3.49751 30.4567 3.6114 30.4567L3.61168 30.457Z" fill="#A6A6A6"/>
</g>
<defs>
<clipPath id="clip0_19_44">
<rect width="35.4684" height="34.2016" fill="white"/>
</clipPath>
</defs>
</svg>
