<svg width="387" height="216" viewBox="0 0 387 216" fill="none" xmlns="http://www.w3.org/2000/svg">
<path d="M211.887 206.182C152.565 215.657 79.7723 224.594 23.8726 196.244C-10.0064 176.491 -2.6019 139.11 18.3154 112.442C58.5882 59.1854 178.009 -4.67954 242.677 24.6652C250.161 27.505 257.876 41.7068 245.74 43.0035C242.997 42.7904 240.736 40.5798 240.252 37.8643C231.113 30.4874 218.482 29.9976 207.385 29.4608C147.811 30.099 66.6751 71.6778 28.7954 118.687C-39.3775 211.474 124.61 206.202 175.77 199.307C217.572 193.371 259.28 184.877 298.683 169.183C426.54 117.274 378.471 34.0198 265.097 15.0463C194.063 5.19893 125.5 32.2067 57.7637 49.3559C47.4786 52.3284 37.1963 55.5857 27.134 59.1461C69.2288 38.4776 113.851 23.3408 158.766 10.4988C369.192 -44.2104 519.837 149.899 211.887 206.182Z" fill="url(#paint0_linear_170_175)" fill-opacity="0.3"/>
<defs>
<linearGradient id="paint0_linear_170_175" x1="174.973" y1="6.43743" x2="206.451" y2="207.042" gradientUnits="userSpaceOnUse">
<stop stop-color="#DAE9FF"/>
<stop offset="1" stop-color="#74ABFF"/>
</linearGradient>
</defs>
</svg>
