<svg width="220" height="538" viewBox="0 0 220 538" fill="none" xmlns="http://www.w3.org/2000/svg">
<path d="M104.872 535.77L209.728 475.98C213.562 473.767 213.081 469.899 208.655 467.342L148.324 432.511C143.896 429.954 137.198 429.678 133.364 431.891L28.5098 491.681C24.6756 493.894 25.1565 497.762 29.5831 500.319L89.9136 535.15C94.3383 537.707 101.038 537.984 104.872 535.77Z" fill="white"/>
<path d="M19.1547 471.555V226.764L116.47 201.295L134.396 190.945C138.51 188.571 145.696 188.868 150.446 191.61L167.17 201.265L219.074 201.236L203.704 437.546C203.821 439.154 202.924 440.705 200.948 441.846L103.833 515.124C99.7204 517.499 92.5347 517.202 87.7832 514.46L23.0614 477.094C20.3245 475.512 19.0025 473.462 19.1547 471.555Z" fill="#0052B6"/>
<path d="M141.845 189.354C144.855 189.426 147.98 190.185 150.447 191.609L167.171 201.265L219.076 201.235V446.683C219.193 448.291 218.296 449.841 216.32 450.983L103.835 515.124C101.857 516.266 99.1706 516.782 96.3872 516.715L95.2268 269.734L141.845 189.354Z" fill="black"/>
<path d="M102.801 515.627C99.2525 517.148 94.1203 517.063 89.9723 515.481V266.812H102.801V515.627Z" fill="#0081FF"/>
<path d="M103.835 269.764L216.321 205.623C220.433 203.248 219.919 199.1 215.168 196.358L150.446 158.992C145.696 156.249 138.511 155.952 134.396 158.327L21.9103 222.468C17.7957 224.843 18.3118 228.992 23.0633 231.733L87.7852 269.099C92.5348 271.84 99.7205 272.139 103.835 269.764Z" fill="white"/>
<path d="M23.0645 227.179L87.7864 264.544C92.536 267.287 99.7217 267.584 103.836 265.209L216.322 201.069C217.239 200.539 217.913 199.917 218.374 199.247C219.787 201.522 219.146 203.987 216.322 205.62L103.836 269.76C99.7236 272.135 92.5379 271.838 87.7864 269.095L23.0645 231.73C19.3733 229.598 18.2518 226.622 19.8598 224.284C20.5059 225.322 21.5773 226.319 23.0645 227.179Z" fill="#FAFDFF"/>
<path d="M100.654 243.772L175.544 200.361C177.469 199.249 177.228 197.308 175.005 196.025L144.719 178.54C142.497 177.257 139.134 177.118 137.209 178.228L62.3192 221.64C60.3937 222.75 60.635 224.692 62.8576 225.975L93.1435 243.46C95.3661 244.743 98.7287 244.883 100.654 243.772Z" fill="#7BAEFF"/>
<path d="M141.087 202.316L145.426 199.811C145.692 199.657 145.658 199.389 145.352 199.211L141.161 196.792C140.853 196.613 140.389 196.595 140.121 196.749L135.782 199.254C135.517 199.408 135.55 199.675 135.856 199.853L140.047 202.273C140.355 202.449 140.82 202.47 141.087 202.316Z" fill="black"/>
<path d="M126.591 210.65L130.93 208.146C131.196 207.992 131.162 207.722 130.856 207.546L126.665 205.127C126.357 204.948 125.893 204.93 125.625 205.084L121.286 207.589C121.021 207.743 121.054 208.012 121.36 208.188L125.551 210.608C125.861 210.784 126.325 210.803 126.591 210.65Z" fill="black"/>
<path d="M112.083 218.984L116.422 216.48C116.688 216.326 116.654 216.056 116.348 215.88L112.157 213.461C111.849 213.282 111.385 213.264 111.118 213.418L106.778 215.923C106.513 216.077 106.546 216.346 106.853 216.522L111.043 218.942C111.351 219.12 111.818 219.139 112.083 218.984Z" fill="black"/>
<path d="M97.5869 227.325L101.926 224.82C102.192 224.666 102.158 224.399 101.852 224.221L97.6612 221.801C97.353 221.623 96.8888 221.605 96.6214 221.759L92.2821 224.263C92.0166 224.418 92.05 224.685 92.3564 224.863L96.5472 227.283C96.8554 227.459 97.3214 227.479 97.5869 227.325Z" fill="black"/>
<path d="M175.544 200.36L175.455 200.41C175.308 200.306 175.173 200.199 175.004 200.1L144.718 182.615C142.495 181.332 139.132 181.193 137.207 182.303L62.4066 225.662C60.6315 224.392 60.5387 222.664 62.3175 221.635L137.207 178.224C139.132 177.111 142.495 177.251 144.718 178.535L175.004 196.021C177.228 197.308 177.469 199.248 175.544 200.36Z" fill="#0081FF"/>
<path d="M75.1451 318.258L32.5654 293.879C30.1702 292.495 28.2261 288.784 28.2261 285.59V270.362C28.2261 267.167 30.1683 265.7 32.5654 267.083L75.1451 291.463C77.5404 292.846 79.4844 296.558 79.4844 299.752V314.979C79.4844 318.174 77.5422 319.643 75.1451 318.258Z" fill="#7BAEFF"/>
<path d="M30.4541 266.625C29.7838 267.256 29.3642 268.333 29.3642 269.793V285.02C29.3642 288.216 31.3064 291.927 33.7035 293.309L76.2832 317.688C77.0519 318.132 77.7649 318.255 78.3906 318.147C77.5959 318.897 76.4429 319.01 75.1413 318.258L32.5616 293.879C30.1663 292.496 28.2223 288.784 28.2223 285.59V270.363C28.2223 268.194 29.1284 266.85 30.4541 266.625Z" fill="white"/>
<path d="M62.3283 301.709L58.4217 299.453C57.8999 299.153 57.4766 298.343 57.4766 297.647V293.475C57.4766 292.778 57.8999 292.459 58.4217 292.76L62.3283 295.014C62.8501 295.315 63.2734 296.124 63.2734 296.82V300.993C63.2734 301.691 62.8501 302.01 62.3283 301.709Z" fill="#0052B6"/>
<path d="M49.2619 294.17L45.3553 291.914C44.8335 291.613 44.4101 290.804 44.4101 290.107V285.935C44.4101 285.239 44.8335 284.918 45.3553 285.22L49.2619 287.476C49.7837 287.777 50.207 288.587 50.207 289.283V293.455C50.207 294.152 49.7837 294.471 49.2619 294.17Z" fill="white"/>
<path d="M75.1451 428.294L32.5654 403.914C30.1702 402.531 28.2261 398.819 28.2261 395.624V380.396C28.2261 377.201 30.1683 375.732 32.5654 377.115L75.1451 401.495C77.5404 402.878 79.4844 406.59 79.4844 409.785V425.013C79.4844 428.208 77.5422 429.677 75.1451 428.294Z" fill="#7BAEFF"/>
<path d="M30.4541 376.663C29.7838 377.294 29.3642 378.371 29.3642 379.831V395.058C29.3642 398.254 31.3064 401.964 33.7035 403.347L76.2832 427.726C77.0519 428.17 77.7649 428.293 78.3906 428.185C77.5959 428.935 76.4429 429.048 75.1413 428.296L32.5616 403.917C30.1663 402.534 28.2223 398.822 28.2223 395.628V380.401C28.2223 378.232 29.1284 376.888 30.4541 376.663Z" fill="white"/>
<path d="M62.3283 411.759L58.4217 409.505C57.8999 409.204 57.4766 408.395 57.4766 407.698V403.526C57.4766 402.83 57.8999 402.511 58.4217 402.811L62.3283 405.066C62.8501 405.366 63.2734 406.176 63.2734 406.872V411.044C63.2734 411.741 62.8501 412.06 62.3283 411.759Z" fill="#0052B6"/>
<path d="M49.2619 404.215L45.3553 401.959C44.8335 401.658 44.4101 400.849 44.4101 400.153V395.98C44.4101 395.284 44.8335 394.965 45.3553 395.266L49.2619 397.52C49.7837 397.82 50.207 398.63 50.207 399.326V403.498C50.207 404.197 49.7837 404.516 49.2619 404.215Z" fill="#0052B6"/>
<path d="M75.1451 483.312L32.5654 458.932C30.1702 457.549 28.2261 453.837 28.2261 450.642V435.414C28.2261 432.219 30.1683 430.752 32.5654 432.135L75.1451 456.515C77.5404 457.898 79.4844 461.61 79.4844 464.805V480.033C79.4844 483.226 77.5422 484.695 75.1451 483.312Z" fill="#7BAEFF"/>
<path d="M30.4541 431.677C29.7838 432.308 29.3642 433.385 29.3642 434.844V450.072C29.3642 453.267 31.3064 456.979 33.7035 458.362L76.2832 482.742C77.0519 483.186 77.7649 483.308 78.3906 483.201C77.5959 483.951 76.4429 484.064 75.1413 483.312L32.5616 458.932C30.1663 457.549 28.2223 453.837 28.2223 450.642V435.414C28.2223 433.246 29.1284 431.901 30.4541 431.677Z" fill="white"/>
<path d="M62.3283 466.772L58.4217 464.518C57.8999 464.217 57.4766 463.407 57.4766 462.711V458.539C57.4766 457.843 57.8999 457.523 58.4217 457.824L62.3283 460.078C62.8501 460.379 63.2734 461.189 63.2734 461.885V466.057C63.2734 466.753 62.8501 467.075 62.3283 466.772Z" fill="white"/>
<path d="M49.2619 459.228L45.3553 456.972C44.8335 456.671 44.4101 455.862 44.4101 455.165V450.993C44.4101 450.297 44.8335 449.977 45.3553 450.278L49.2619 452.534C49.7837 452.835 50.207 453.645 50.207 454.341V458.513C50.207 459.209 49.7837 459.531 49.2619 459.228Z" fill="#0052B6"/>
<path d="M75.1451 373.279L32.5654 348.9C30.1702 347.517 28.2261 343.805 28.2261 340.609V325.382C28.2261 322.186 30.1683 320.72 32.5654 322.103L75.1451 346.482C77.5404 347.866 79.4844 351.577 79.4844 354.773V370C79.4844 373.196 77.5422 374.665 75.1451 373.279Z" fill="#7BAEFF"/>
<path d="M30.4541 321.65C29.7838 322.282 29.3642 323.359 29.3642 324.818V340.046C29.3642 343.239 31.3064 346.951 33.7035 348.334L76.2832 372.714C77.0519 373.157 77.7649 373.28 78.3906 373.172C77.5959 373.922 76.4429 374.036 75.1413 373.284L32.5616 348.904C30.1663 347.521 28.2223 343.809 28.2223 340.616V325.388C28.2223 323.219 29.1284 321.875 30.4541 321.65Z" fill="white"/>
<path d="M62.3283 356.746L58.4217 354.491C57.8999 354.191 57.4766 353.381 57.4766 352.685V348.513C57.4766 347.816 57.8999 347.497 58.4217 347.798L62.3283 350.052C62.8501 350.353 63.2734 351.162 63.2734 351.859V356.031C63.2734 356.727 62.8501 357.046 62.3283 356.746Z" fill="white"/>
<path d="M49.2619 349.202L45.3553 346.946C44.8335 346.646 44.4101 345.836 44.4101 345.14V340.968C44.4101 340.271 44.8335 339.95 45.3553 340.253L49.2619 342.509C49.7837 342.809 50.207 343.619 50.207 344.315V348.487C50.207 349.184 49.7837 349.503 49.2619 349.202Z" fill="white"/>
<path d="M112.009 302.676L210.246 245.959C212.444 244.689 214.227 241.284 214.227 238.352V219.621C214.227 216.689 212.444 215.341 210.246 216.611L112.009 273.328C109.811 274.598 108.028 278.003 108.028 280.935V299.666C108.028 302.596 109.811 303.944 112.009 302.676Z" fill="#0081FF"/>
<path opacity="0.4" d="M114.829 296.103L207.425 242.643C208.541 241.998 209.445 240.272 209.445 238.784V224.702C209.445 223.215 208.541 222.532 207.425 223.176L114.829 276.637C113.713 277.281 112.809 279.008 112.809 280.497V294.579C112.809 296.064 113.713 296.747 114.829 296.103Z" fill="black"/>
<path d="M188.127 246.668L201.945 238.69C203.028 238.064 203.906 236.387 203.906 234.943C203.906 233.498 203.028 232.835 201.945 233.459L188.127 241.438C187.045 242.064 186.167 243.74 186.167 245.185C186.165 246.631 187.043 247.294 188.127 246.668Z" fill="black"/>
<path d="M176.356 250.853C176.356 252.298 177.37 252.882 178.621 252.16C179.873 251.438 180.887 249.681 180.887 248.237C180.887 246.792 179.873 246.207 178.621 246.93C177.37 247.652 176.356 249.408 176.356 250.853Z" fill="#7BAEFF"/>
<path d="M168.36 255.467C168.36 256.912 169.374 257.497 170.625 256.774C171.877 256.052 172.891 254.296 172.891 252.851C172.891 251.406 171.877 250.822 170.625 251.544C169.374 252.266 168.36 254.023 168.36 255.467Z" fill="#7BAEFF"/>
<path d="M160.372 260.083C160.372 261.527 161.386 262.112 162.637 261.39C163.889 260.667 164.902 258.911 164.902 257.466C164.902 256.022 163.889 255.437 162.637 256.159C161.386 256.883 160.372 258.64 160.372 260.083Z" fill="black"/>
<path d="M152.384 264.69C152.384 266.134 153.397 266.719 154.649 265.997C155.9 265.275 156.914 263.518 156.914 262.074C156.914 260.629 155.9 260.044 154.649 260.767C153.397 261.489 152.384 263.245 152.384 264.69Z" fill="#7BAEFF"/>
<path d="M118.719 288.269L123.374 285.583C124.068 285.181 124.633 284.105 124.633 283.178V278.254C124.633 277.327 124.07 276.9 123.374 277.303L118.719 279.99C118.025 280.391 117.46 281.468 117.46 282.394V287.319C117.46 288.243 118.023 288.67 118.719 288.269Z" fill="#7BAEFF"/>
<path d="M112.009 335.705L210.246 278.987C212.444 277.717 214.227 274.312 214.227 271.38V252.649C214.227 249.717 212.444 248.369 210.246 249.639L112.009 306.356C109.811 307.626 108.028 311.032 108.028 313.964V332.695C108.028 335.628 109.811 336.975 112.009 335.705Z" fill="#0081FF"/>
<path opacity="0.4" d="M114.829 329.133L207.425 275.673C208.541 275.029 209.445 273.3 209.445 271.813V257.731C209.445 256.244 208.541 255.56 207.425 256.205L114.829 309.665C113.713 310.309 112.809 312.036 112.809 313.523V327.605C112.809 329.094 113.713 329.778 114.829 329.133Z" fill="black"/>
<path d="M188.127 279.703L201.945 271.724C203.028 271.098 203.906 269.422 203.906 267.977C203.906 266.532 203.028 265.87 201.945 266.493L188.127 274.472C187.045 275.098 186.167 276.776 186.167 278.219C186.165 279.665 187.043 280.328 188.127 279.703Z" fill="black"/>
<path d="M176.356 283.881C176.356 285.326 177.37 285.911 178.621 285.188C179.873 284.466 180.887 282.71 180.887 281.265C180.887 279.821 179.873 279.236 178.621 279.958C177.37 280.682 176.356 282.439 176.356 283.881Z" fill="white"/>
<path d="M168.36 288.496C168.36 289.94 169.374 290.525 170.625 289.803C171.877 289.08 172.891 287.324 172.891 285.879C172.891 284.435 171.877 283.85 170.625 284.572C169.374 285.294 168.36 287.051 168.36 288.496Z" fill="#7BAEFF"/>
<path d="M160.372 293.111C160.372 294.555 161.386 295.14 162.637 294.418C163.889 293.696 164.902 291.939 164.902 290.495C164.902 289.05 163.889 288.465 162.637 289.187C161.386 289.912 160.372 291.668 160.372 293.111Z" fill="black"/>
<path d="M152.384 297.718C152.384 299.163 153.397 299.748 154.649 299.025C155.9 298.303 156.914 296.547 156.914 295.102C156.914 293.657 155.9 293.073 154.649 293.795C153.397 294.517 152.384 296.274 152.384 297.718Z" fill="#7BAEFF"/>
<path d="M118.719 321.298L123.374 318.612C124.068 318.211 124.633 317.134 124.633 316.207V311.283C124.633 310.356 124.07 309.929 123.374 310.33L118.719 313.017C118.025 313.418 117.46 314.495 117.46 315.422V320.346C117.46 321.272 118.023 321.699 118.719 321.298Z" fill="#7BAEFF"/>
<path d="M112.009 368.738L210.246 312.021C212.444 310.751 214.227 307.345 214.227 304.413V285.682C214.227 282.75 212.444 281.402 210.246 282.672L112.009 339.39C109.811 340.66 108.028 344.065 108.028 346.997V365.728C108.028 368.66 109.811 370.008 112.009 368.738Z" fill="#0081FF"/>
<path opacity="0.4" d="M114.829 362.166L207.425 308.706C208.541 308.062 209.445 306.335 209.445 304.846V290.764C209.445 289.277 208.541 288.593 207.425 289.238L114.829 342.698C113.713 343.342 112.809 345.071 112.809 346.558V360.64C112.809 362.127 113.713 362.811 114.829 362.166Z" fill="black"/>
<path d="M188.127 312.736L201.945 304.757C203.028 304.131 203.906 302.455 203.906 301.01C203.906 299.566 203.028 298.903 201.945 299.527L188.127 307.505C187.045 308.131 186.167 309.809 186.167 311.252C186.165 312.699 187.043 313.361 188.127 312.736Z" fill="black"/>
<path d="M176.356 316.915C176.356 318.359 177.37 318.944 178.621 318.222C179.873 317.499 180.887 315.743 180.887 314.298C180.887 312.854 179.873 312.269 178.621 312.991C177.37 313.715 176.356 315.472 176.356 316.915Z" fill="white"/>
<path d="M168.36 321.529C168.36 322.973 169.374 323.558 170.625 322.836C171.877 322.114 172.891 320.357 172.891 318.913C172.891 317.468 171.877 316.883 170.625 317.605C169.374 318.328 168.36 320.084 168.36 321.529Z" fill="#7BAEFF"/>
<path d="M160.372 326.144C160.372 327.589 161.386 328.173 162.637 327.451C163.889 326.729 164.902 324.972 164.902 323.528C164.902 322.083 163.889 321.498 162.637 322.221C161.386 322.943 160.372 324.699 160.372 326.144Z" fill="black"/>
<path d="M152.384 330.751C152.384 332.196 153.397 332.781 154.649 332.059C155.9 331.336 156.914 329.58 156.914 328.135C156.914 326.691 155.9 326.106 154.649 326.828C153.397 327.55 152.384 329.307 152.384 330.751Z" fill="#7BAEFF"/>
<path d="M118.719 354.331L123.374 351.644C124.068 351.243 124.633 350.166 124.633 349.24V344.315C124.633 343.389 124.07 342.962 123.374 343.365L118.719 346.051C118.025 346.453 117.46 347.529 117.46 348.456V353.38C117.46 354.305 118.023 354.732 118.719 354.331Z" fill="#7BAEFF"/>
<path d="M112.009 401.771L210.246 345.054C212.444 343.784 214.227 340.378 214.227 337.447V318.715C214.227 315.784 212.444 314.436 210.246 315.706L112.009 372.423C109.811 373.693 108.028 377.098 108.028 380.03V398.761C108.028 401.693 109.811 403.041 112.009 401.771Z" fill="#0081FF"/>
<path opacity="0.4" d="M114.829 395.204L207.425 341.743C208.541 341.099 209.445 339.372 209.445 337.885V323.803C209.445 322.316 208.541 321.632 207.425 322.277L114.829 375.737C113.713 376.382 112.809 378.108 112.809 379.596V393.677C112.809 395.165 113.713 395.848 114.829 395.204Z" fill="black"/>
<path d="M188.127 345.769L201.945 337.79C203.028 337.165 203.906 335.488 203.906 334.043C203.906 332.599 203.028 331.936 201.945 332.56L188.127 340.538C187.045 341.164 186.167 342.841 186.167 344.285C186.165 345.73 187.043 346.395 188.127 345.769Z" fill="black"/>
<path d="M176.356 349.948C176.356 351.392 177.37 351.977 178.621 351.255C179.873 350.533 180.887 348.776 180.887 347.332C180.887 345.887 179.873 345.302 178.621 346.024C177.37 346.748 176.356 348.503 176.356 349.948Z" fill="#7BAEFF"/>
<path d="M168.36 354.562C168.36 356.007 169.374 356.591 170.625 355.869C171.877 355.147 172.891 353.39 172.891 351.946C172.891 350.501 171.877 349.916 170.625 350.639C169.374 351.361 168.36 353.117 168.36 354.562Z" fill="#7BAEFF"/>
<path d="M160.372 359.177C160.372 360.622 161.386 361.207 162.637 360.484C163.889 359.762 164.902 358.006 164.902 356.561C164.902 355.116 163.889 354.532 162.637 355.254C161.386 355.978 160.372 357.733 160.372 359.177Z" fill="black"/>
<path d="M152.384 363.785C152.384 365.229 153.397 365.814 154.649 365.092C155.9 364.37 156.914 362.613 156.914 361.168C156.914 359.724 155.9 359.139 154.649 359.861C153.397 360.584 152.384 362.34 152.384 363.785Z" fill="#7BAEFF"/>
<path d="M118.719 387.364L123.374 384.677C124.068 384.276 124.633 383.199 124.633 382.273V377.349C124.633 376.422 124.07 375.995 123.374 376.398L118.719 379.085C118.025 379.486 117.46 380.563 117.46 381.489V386.413C117.46 387.338 118.023 387.765 118.719 387.364Z" fill="black"/>
<path d="M112.009 434.805L210.246 378.088C212.444 376.818 214.227 373.413 214.227 370.481V351.75C214.227 348.818 212.444 347.47 210.246 348.74L112.009 405.457C109.811 406.727 108.028 410.132 108.028 413.064V431.795C108.028 434.727 109.811 436.075 112.009 434.805Z" fill="#0081FF"/>
<path opacity="0.4" d="M114.829 428.234L207.425 374.773C208.541 374.129 209.445 372.402 209.445 370.913V356.831C209.445 355.344 208.541 354.661 207.425 355.305L114.829 408.766C113.713 409.41 112.809 411.137 112.809 412.624V426.706C112.809 428.195 113.713 428.878 114.829 428.234Z" fill="black"/>
<path d="M188.127 378.803L201.945 370.825C203.028 370.199 203.906 368.52 203.906 367.078C203.906 365.633 203.028 364.97 201.945 365.594L188.127 373.573C187.045 374.198 186.167 375.877 186.167 377.32C186.165 378.764 187.043 379.429 188.127 378.803Z" fill="black"/>
<path d="M176.356 382.982C176.356 384.426 177.37 385.011 178.621 384.289C179.873 383.567 180.887 381.81 180.887 380.366C180.887 378.921 179.873 378.336 178.621 379.059C177.37 379.783 176.356 381.537 176.356 382.982Z" fill="#7BAEFF"/>
<path d="M168.36 387.596C168.36 389.041 169.374 389.626 170.625 388.903C171.877 388.181 172.891 386.425 172.891 384.98C172.891 383.535 171.877 382.95 170.625 383.673C169.374 384.395 168.36 386.152 168.36 387.596Z" fill="white"/>
<path d="M160.372 392.211C160.372 393.656 161.386 394.241 162.637 393.519C163.889 392.796 164.902 391.04 164.902 389.595C164.902 388.151 163.889 387.566 162.637 388.288C161.386 389.01 160.372 390.767 160.372 392.211Z" fill="black"/>
<path d="M152.384 396.819C152.384 398.263 153.397 398.848 154.649 398.126C155.9 397.404 156.914 395.647 156.914 394.203C156.914 392.758 155.9 392.173 154.649 392.895C153.397 393.618 152.384 395.374 152.384 396.819Z" fill="white"/>
<path d="M118.719 420.398L123.374 417.711C124.068 417.31 124.633 416.233 124.633 415.307V410.383C124.633 409.456 124.07 409.029 123.374 409.432L118.719 412.119C118.025 412.52 117.46 413.597 117.46 414.523V419.448C117.46 420.372 118.023 420.799 118.719 420.398Z" fill="black"/>
<path d="M112.009 467.839L210.246 411.122C212.444 409.852 214.227 406.447 214.227 403.515V384.784C214.227 381.852 212.444 380.504 210.246 381.774L112.009 438.491C109.811 439.761 108.028 443.167 108.028 446.098V464.83C108.028 467.761 109.811 469.109 112.009 467.839Z" fill="#0081FF"/>
<path opacity="0.4" d="M114.829 461.268L207.425 407.808C208.541 407.163 209.445 405.436 209.445 403.947V389.866C209.445 388.378 208.541 387.695 207.425 388.339L114.829 441.8C113.713 442.444 112.809 444.171 112.809 445.66V459.742C112.809 461.229 113.713 461.912 114.829 461.268Z" fill="black"/>
<path d="M188.127 411.837L201.945 403.859C203.028 403.233 203.906 401.554 203.906 400.112C203.906 398.667 203.028 398.004 201.945 398.628L188.127 406.607C187.045 407.232 186.167 408.909 186.167 410.354C186.165 411.798 187.043 412.463 188.127 411.837Z" fill="black"/>
<path d="M176.356 416.016C176.356 417.461 177.37 418.046 178.621 417.323C179.873 416.601 180.887 414.844 180.887 413.4C180.887 411.955 179.873 411.37 178.621 412.093C177.37 412.815 176.356 414.571 176.356 416.016Z" fill="#7BAEFF"/>
<path d="M168.36 420.63C168.36 422.075 169.374 422.66 170.625 421.938C171.877 421.215 172.891 419.459 172.891 418.014C172.891 416.57 171.877 415.985 170.625 416.707C169.374 417.429 168.36 419.186 168.36 420.63Z" fill="#7BAEFF"/>
<path d="M160.372 425.246C160.372 426.69 161.386 427.275 162.637 426.553C163.889 425.83 164.902 424.074 164.902 422.629C164.902 421.185 163.889 420.6 162.637 421.322C161.386 422.044 160.372 423.801 160.372 425.246Z" fill="black"/>
<path d="M152.384 429.853C152.384 431.298 153.397 431.882 154.649 431.16C155.9 430.438 156.914 428.681 156.914 427.237C156.914 425.792 155.9 425.207 154.649 425.93C153.397 426.652 152.384 428.408 152.384 429.853Z" fill="#7BAEFF"/>
<path d="M118.719 453.427L123.374 450.741C124.068 450.339 124.633 449.263 124.633 448.336V443.412C124.633 442.485 124.07 442.058 123.374 442.459L118.719 445.146C118.025 445.547 117.46 446.624 117.46 447.551V452.475C117.46 453.403 118.023 453.83 118.719 453.427Z" fill="#7BAEFF"/>
<path d="M112.009 500.867L210.246 444.149C212.444 442.879 214.227 439.474 214.227 436.542V417.811C214.227 414.879 212.444 413.531 210.246 414.801L112.009 471.518C109.811 472.789 108.028 476.194 108.028 479.126V497.857C108.028 500.789 109.811 502.137 112.009 500.867Z" fill="#0081FF"/>
<path opacity="0.4" d="M114.829 494.299L207.425 440.839C208.541 440.195 209.445 438.468 209.445 436.981V422.899C209.445 421.411 208.541 420.728 207.425 421.372L114.829 474.833C113.713 475.477 112.809 477.204 112.809 478.691V492.773C112.809 494.26 113.713 494.944 114.829 494.299Z" fill="black"/>
<path d="M188.127 444.865L201.945 436.886C203.028 436.26 203.906 434.584 203.906 433.139C203.906 431.695 203.028 431.032 201.945 431.656L188.127 439.634C187.045 440.26 186.167 441.938 186.167 443.381C186.165 444.826 187.043 445.49 188.127 444.865Z" fill="black"/>
<path d="M176.356 449.043C176.356 450.488 177.37 451.073 178.621 450.351C179.873 449.628 180.887 447.872 180.887 446.427C180.887 444.983 179.873 444.398 178.621 445.12C177.37 445.842 176.356 447.599 176.356 449.043Z" fill="white"/>
<path d="M168.36 453.658C168.36 455.102 169.374 455.687 170.625 454.965C171.877 454.243 172.891 452.486 172.891 451.041C172.891 449.597 171.877 449.012 170.625 449.734C169.374 450.457 168.36 452.213 168.36 453.658Z" fill="#7BAEFF"/>
<path d="M160.372 458.273C160.372 459.718 161.386 460.302 162.637 459.58C163.889 458.858 164.902 457.101 164.902 455.657C164.902 454.212 163.889 453.627 162.637 454.35C161.386 455.072 160.372 456.828 160.372 458.273Z" fill="black"/>
<path d="M152.384 462.88C152.384 464.325 153.397 464.91 154.649 464.187C155.9 463.465 156.914 461.709 156.914 460.264C156.914 458.82 155.9 458.235 154.649 458.957C153.397 459.681 152.384 461.438 152.384 462.88Z" fill="#7BAEFF"/>
<path d="M118.719 486.455L123.374 483.768C124.068 483.367 124.633 482.29 124.633 481.363V476.439C124.633 475.513 124.07 475.086 123.374 475.487L118.719 478.173C118.025 478.574 117.46 479.651 117.46 480.578V485.502C117.46 486.43 118.023 486.858 118.719 486.455Z" fill="black"/>
<path d="M140.583 199.987C141.402 199.987 142.066 199.324 142.066 198.503V137.438C142.066 136.619 141.404 135.954 140.583 135.954C139.762 135.954 139.099 136.617 139.099 137.438V198.503C139.101 199.322 139.764 199.987 140.583 199.987Z" fill="#0081FF"/>
<path d="M135.297 133.6H145.906V156.494H135.297V133.6Z" fill="#0081FF"/>
<path d="M136.851 158.658C138.923 159.854 142.28 159.854 144.352 158.658C146.424 157.463 146.424 155.524 144.352 154.327C142.28 153.131 138.921 153.131 136.851 154.327C134.779 155.522 134.779 157.463 136.851 158.658Z" fill="#0081FF"/>
<path d="M132.003 101.69H149.195V137.597H132.003V101.69Z" fill="#0081FF"/>
<path d="M145.902 137.363V145.111C142.789 146.533 138.406 146.533 135.293 145.111V137.363C138.406 135.94 142.789 135.94 145.902 137.363Z" fill="#0052B6"/>
<path d="M134.521 141.103C137.878 143.042 143.32 143.042 146.678 141.103C150.035 139.165 150.035 136.023 146.678 134.085C143.32 132.146 137.878 132.146 134.521 134.085C131.164 136.023 131.166 139.165 134.521 141.103Z" fill="#0081FF"/>
<path d="M126.083 208.645C126.902 208.645 127.566 207.982 127.566 207.162V146.096C127.566 145.277 126.904 144.612 126.083 144.612C125.262 144.612 124.599 145.275 124.599 146.096V207.162C124.599 207.98 125.262 208.645 126.083 208.645Z" fill="#0081FF"/>
<path d="M120.773 142.252H131.383V165.146H120.773V142.252Z" fill="#0081FF"/>
<path d="M122.327 167.311C124.4 168.506 127.757 168.506 129.829 167.311C131.901 166.115 131.901 164.176 129.829 162.979C127.757 161.783 124.398 161.783 122.327 162.979C120.255 164.176 120.255 166.115 122.327 167.311Z" fill="#0081FF"/>
<path d="M117.48 110.35H134.672V146.256H117.48V110.35Z" fill="#0081FF"/>
<path d="M131.379 146.022V153.77C128.265 155.192 123.883 155.192 120.769 153.77V146.022C123.883 144.6 128.265 144.6 131.379 146.022Z" fill="#0052B6"/>
<path d="M119.998 149.763C123.355 151.701 128.797 151.701 132.154 149.763C135.511 147.824 135.511 144.682 132.154 142.744C128.797 140.805 123.355 140.805 119.998 142.744C116.641 144.682 116.641 147.826 119.998 149.763Z" fill="#0081FF"/>
<path d="M111.587 217.302C112.406 217.302 113.07 216.64 113.07 215.819V154.753C113.07 153.934 112.407 153.27 111.587 153.27C110.768 153.27 110.103 153.932 110.103 154.753V215.819C110.103 216.64 110.768 217.302 111.587 217.302Z" fill="#0081FF"/>
<path d="M106.297 150.915H116.906V173.809H106.297V150.915Z" fill="#0081FF"/>
<path d="M107.851 175.974C109.923 177.17 113.28 177.17 115.352 175.974C117.424 174.778 117.424 172.84 115.352 171.642C113.28 170.446 109.921 170.446 107.851 171.642C105.779 172.838 105.779 174.778 107.851 175.974Z" fill="#0081FF"/>
<path d="M103.003 119.005H120.195V154.911H103.003V119.005Z" fill="#0081FF"/>
<path d="M116.902 154.677V162.425C113.789 163.848 109.407 163.848 106.293 162.425V154.677C109.407 153.255 113.789 153.255 116.902 154.677Z" fill="#0052B6"/>
<path d="M105.521 158.425C108.878 160.363 114.32 160.363 117.678 158.425C121.035 156.486 121.035 153.344 117.678 151.406C114.32 149.468 108.878 149.468 105.521 151.406C102.164 153.344 102.164 156.486 105.521 158.425Z" fill="#0081FF"/>
<path d="M97.1024 225.96C97.9212 225.96 98.5859 225.297 98.5859 224.476V163.41C98.5859 162.591 97.9231 161.927 97.1024 161.927C96.2817 161.927 95.6188 162.59 95.6188 163.41V224.476C95.6188 225.297 96.2817 225.96 97.1024 225.96Z" fill="#0081FF"/>
<path d="M91.7888 159.573H102.398V182.467H91.7888V159.573Z" fill="#0081FF"/>
<path d="M93.343 184.632C95.4151 185.828 98.7721 185.828 100.844 184.632C102.916 183.436 102.916 181.496 100.844 180.3C98.7721 179.104 95.4133 179.104 93.343 180.3C91.2727 181.498 91.2727 183.436 93.343 184.632Z" fill="#0081FF"/>
<path d="M88.4956 127.67H105.688V163.576H88.4956V127.67Z" fill="#0081FF"/>
<path d="M102.395 163.341V171.089C99.2807 172.511 94.8987 172.511 91.7849 171.089V163.341C94.8969 161.92 99.2807 161.92 102.395 163.341Z" fill="#0052B6"/>
<path d="M91.0134 167.083C94.3704 169.021 99.8126 169.021 103.17 167.083C106.527 165.144 106.527 162.003 103.17 160.064C99.8126 158.126 94.3704 158.126 91.0134 160.064C87.6563 162.003 87.6563 165.144 91.0134 167.083Z" fill="#0081FF"/>
<path d="M29.7015 193.306L6.65142 179.729L28.6041 152.332L34.375 161.761L29.7015 193.306Z" fill="#0081FF"/>
<path d="M197.078 42.933L160.29 21.7676C160.29 21.7676 161.673 42.8903 161.673 42.933C161.673 42.9757 182.807 49.4782 182.807 49.4782L197.078 42.933Z" fill="#0081FF"/>
<path d="M23.294 124.408C26.094 122.79 28.7678 121.847 31.254 121.457C34.962 101.965 48.5277 81.2634 64.7002 71.9256C69.565 69.1163 74.1902 67.616 78.3866 67.293C80.5943 43.6654 97.0231 16.8145 116.972 5.29693C127.393 -0.719032 136.849 -1.43204 143.825 2.25367L143.823 2.2351L144.161 2.43007C144.339 2.52848 144.516 2.6306 144.69 2.73458L166.383 15.5464L159.179 21.2392C165.65 24.0671 169.738 31.3234 169.738 42.0519C169.738 61.834 155.85 85.8886 138.719 95.7797L23.294 178.2C10.4302 185.627 0.000717163 179.608 0.000717163 164.752C0.000717163 149.899 10.4302 131.835 23.294 124.408Z" fill="#0081FF"/>
<path d="M168.672 33.3413L118.882 4.25111C128.549 -0.790051 137.281 -1.20597 143.83 2.25321L143.828 2.23464L144.166 2.4296C144.344 2.52801 144.521 2.63014 144.695 2.73412L166.388 15.5459L159.184 21.2388C163.707 23.2163 167.06 27.3643 168.672 33.3413Z" fill="#0081FF"/>
<path d="M76.7169 118.919L40.389 97.6016C46.6204 86.8249 55.1987 77.4091 64.698 71.9261C65.9551 71.2001 67.1954 70.565 68.4171 70.0117L114.625 97.0334L76.7169 118.919Z" fill="#0081FF"/>
<path d="M156.148 17.9264L139.959 27.2735L110.31 9.81046C112.475 8.12822 114.7 6.60751 116.97 5.29663C120.561 3.22446 124.032 1.79474 127.331 0.944336L156.148 17.9264Z" fill="#00C2FF"/>
<path d="M44.3952 91.332L73.3906 108.416L63.3065 119.663L36.9847 104.122C39.0643 99.6653 41.5673 95.3557 44.3952 91.332Z" fill="#00C2FF"/>
<path d="M46.0714 137.826C48.8714 136.209 51.5433 135.266 54.0314 134.876C57.7394 115.383 71.305 94.6819 87.4776 85.3442C92.3423 82.5349 96.9676 81.0346 101.164 80.7115C103.372 57.084 119.8 30.2331 139.75 18.7137C161.205 6.32708 178.597 16.3686 178.597 41.1417C178.597 41.9828 178.573 42.8295 178.534 43.6818C194.224 36.4051 206.48 44.6046 206.48 63.1873C206.48 82.9694 192.592 107.024 175.461 116.915L46.0714 191.617C33.2076 199.044 22.7781 193.024 22.7781 178.168C22.7781 163.316 33.2076 145.253 46.0714 137.826Z" fill="#00C2FF"/>
<path d="M178.527 43.684C178.566 42.8318 178.59 41.9851 178.59 41.144C178.59 41.1087 178.589 41.0734 178.589 41.0381C187.256 37.6681 194.704 39.1349 199.379 44.5437C194.301 40.3641 186.916 39.7922 178.527 43.684Z" fill="white"/>
<path d="M44.1693 135.98C46.9694 134.363 49.6413 133.42 52.1294 133.03C55.8374 113.538 69.4012 92.8345 85.5756 83.4986C90.4403 80.6893 95.0656 79.189 99.2619 78.8659C101.47 55.2384 117.898 28.3875 137.848 16.868C151.215 9.15125 163.001 10.1409 169.992 17.9747C162.871 11.89 151.97 11.656 139.743 18.7155C119.794 30.2331 103.365 57.0859 101.158 80.7115C96.9613 81.0346 92.3361 82.5349 87.4713 85.3442C71.2988 94.682 57.7331 115.383 54.0252 134.878C51.5389 135.267 48.8652 136.211 46.0652 137.828C33.2014 145.255 22.7718 163.318 22.7718 178.172C22.7718 183.533 24.1458 187.721 26.4854 190.564C22.9965 187.876 20.8761 183.003 20.8761 176.326C20.8761 161.472 31.3056 143.408 44.1693 135.98Z" fill="white"/>
<path d="M181.266 49.578L171.54 54.0881L172.034 43.3782C172.069 42.6262 172.089 41.8798 172.089 41.1371C172.089 31.5765 169.202 24.647 163.962 21.6205C158.722 18.5976 151.275 19.5632 142.996 24.3425C125.191 34.6217 109.657 59.6473 107.633 81.3123L107.123 86.7712L101.656 87.1908C98.2954 87.4489 94.619 88.7208 90.7216 90.9712C76.5785 99.1373 63.8317 118.11 60.4134 136.087L59.5574 140.586L55.0324 141.296C53.2295 141.58 51.3059 142.304 49.3173 143.453C38.4533 149.725 29.2752 165.621 29.2752 178.166C29.2752 182.86 30.5768 186.304 32.8458 187.615C35.1129 188.922 38.7466 188.33 42.813 185.983L172.205 111.281C187.256 102.591 199.973 80.5658 199.973 63.1845C199.973 56.3646 197.962 51.1674 194.454 48.9282C193.012 48.0072 191.266 47.5486 189.298 47.5486C186.903 47.5486 184.177 48.2263 181.266 49.578Z" fill="#0052B6"/>
<path d="M116.699 130.675L113.286 128.962L116.645 126.416L116.699 130.675Z" fill="#0081FF"/>
<path d="M126.949 84.5674L123.637 82.8926L123.577 84.6268L126.949 84.5674Z" fill="#0081FF"/>
<path d="M106.971 119.897L103.511 118.157L110.168 111.827L106.971 119.897Z" fill="#0081FF"/>
<path d="M114.29 128.847L130.45 119.329C131.271 118.846 131.933 117.63 131.93 116.612L131.876 97.9033L112.745 109.17L112.799 127.879C112.803 128.897 113.471 129.331 114.29 128.847Z" fill="#0081FF"/>
<path d="M123.676 82.912L141.13 94.1437C141.871 94.6209 141.273 96.3978 140.147 97.0588L122.322 107.557L104.497 118.055C103.372 118.718 102.765 117.651 103.502 116.304L120.833 84.5868C121.582 83.2165 122.922 82.4274 123.676 82.912Z" fill="#0081FF"/>
<path d="M117.755 130.598L133.915 121.08C134.735 120.597 135.398 119.381 135.395 118.363L135.341 99.6543L116.21 110.921L116.264 129.63C116.268 130.648 116.934 131.08 117.755 130.598Z" fill="#00C2FF"/>
<path d="M127.141 84.663L144.595 95.8947C145.335 96.3718 144.738 98.1488 143.612 98.8098L125.787 109.308L107.962 119.806C106.837 120.469 106.23 119.402 106.967 118.055L124.298 86.3378C125.045 84.9675 126.385 84.1784 127.141 84.663Z" fill="#00C2FF"/>
</svg>
