<svg width="687" height="52" viewBox="0 0 687 52" fill="none" xmlns="http://www.w3.org/2000/svg">
<path d="M11.056 1.32V51H0.04V1.32H11.056ZM29.488 20.4V28.68H10.48V20.4H29.488ZM39.712 1.32V51H28.696V1.32H39.712ZM73.5093 1.32C74.4213 1.32 75.2133 1.584 75.8853 2.112C76.6053 2.64 77.0853 3.336 77.3253 4.2L91.7253 51H80.4933L70.3413 14.496C70.1493 13.68 69.9573 12.864 69.7653 12.048C69.5733 11.184 69.4053 10.368 69.2613 9.6H67.3173C67.1733 10.368 67.0053 11.184 66.8133 12.048C66.6693 12.864 66.4773 13.68 66.2373 14.496L56.0853 51H44.7812L59.2533 4.2C59.4933 3.336 59.9493 2.64 60.6213 2.112C61.3413 1.584 62.1573 1.32 63.0693 1.32H73.5093ZM81.1412 29.616V37.896H55.3652V29.616H81.1412ZM115.868 0.599997C120.524 0.599997 124.172 1.08 126.812 2.04C129.452 3 131.324 4.656 132.428 7.008C133.58 9.36 134.156 12.648 134.156 16.872C134.156 21.096 133.604 24.384 132.5 26.736C131.444 29.088 129.692 30.744 127.244 31.704C124.796 32.616 121.484 33.072 117.308 33.072C115.1 33.072 112.94 32.976 110.828 32.784C108.716 32.592 106.748 32.352 104.924 32.064C103.1 31.776 101.54 31.488 100.244 31.2C98.9483 30.864 98.0603 30.552 97.5803 30.264L97.7963 24.792C100.628 24.792 103.556 24.792 106.58 24.792C109.652 24.792 112.676 24.792 115.652 24.792C117.572 24.744 119.06 24.504 120.116 24.072C121.22 23.64 121.988 22.848 122.42 21.696C122.9 20.544 123.14 18.936 123.14 16.872C123.14 14.76 122.9 13.128 122.42 11.976C121.988 10.824 121.22 10.032 120.116 9.6C119.06 9.12 117.572 8.88 115.652 8.88C111.236 8.88 107.444 8.904 104.276 8.952C101.108 9 98.9723 9.096 97.8683 9.24L96.7883 1.32C98.8043 1.08 100.7 0.911997 102.476 0.815998C104.252 0.719996 106.172 0.671996 108.236 0.671996C110.348 0.623996 112.892 0.599997 115.868 0.599997ZM107.804 1.32V51H96.7883V1.32H107.804ZM160.376 0.599997C165.032 0.599997 168.68 1.08 171.32 2.04C173.96 3 175.832 4.656 176.936 7.008C178.088 9.36 178.664 12.648 178.664 16.872C178.664 21.096 178.112 24.384 177.008 26.736C175.952 29.088 174.2 30.744 171.752 31.704C169.304 32.616 165.992 33.072 161.816 33.072C159.608 33.072 157.448 32.976 155.336 32.784C153.224 32.592 151.256 32.352 149.432 32.064C147.608 31.776 146.048 31.488 144.752 31.2C143.456 30.864 142.568 30.552 142.088 30.264L142.304 24.792C145.136 24.792 148.064 24.792 151.088 24.792C154.16 24.792 157.184 24.792 160.16 24.792C162.08 24.744 163.568 24.504 164.624 24.072C165.728 23.64 166.496 22.848 166.928 21.696C167.408 20.544 167.648 18.936 167.648 16.872C167.648 14.76 167.408 13.128 166.928 11.976C166.496 10.824 165.728 10.032 164.624 9.6C163.568 9.12 162.08 8.88 160.16 8.88C155.744 8.88 151.952 8.904 148.784 8.952C145.616 9 143.48 9.096 142.376 9.24L141.296 1.32C143.312 1.08 145.208 0.911997 146.984 0.815998C148.76 0.719996 150.68 0.671996 152.744 0.671996C154.856 0.623996 157.4 0.599997 160.376 0.599997ZM152.312 1.32V51H141.296V1.32H152.312ZM196.82 1.32V51H185.876V1.32H196.82ZM248.875 1.32V47.04C248.875 49.68 247.555 51 244.915 51H238.867C237.667 51 236.755 50.736 236.131 50.208C235.507 49.632 234.931 48.792 234.403 47.688L220.651 21.624C220.075 20.52 219.499 19.296 218.923 17.952C218.395 16.608 217.939 15.312 217.555 14.064H216.763C216.907 15.36 217.027 16.68 217.123 18.024C217.219 19.32 217.267 20.616 217.267 21.912V51H206.827V5.28C206.827 2.64 208.171 1.32 210.859 1.32H216.835C217.987 1.32 218.851 1.608 219.427 2.184C220.051 2.712 220.651 3.528 221.227 4.632L234.547 29.904C235.123 31.008 235.723 32.232 236.347 33.576C236.971 34.92 237.571 36.312 238.147 37.752H239.011C238.867 36.312 238.747 34.92 238.651 33.576C238.603 32.184 238.579 30.816 238.579 29.472L238.507 1.32H248.875ZM269.012 1.104C271.7 1.104 274.412 1.128 277.148 1.176C279.884 1.176 282.572 1.224 285.212 1.32C287.852 1.416 290.324 1.584 292.628 1.824L292.124 9.816H273.044C271.844 9.816 270.932 10.128 270.308 10.752C269.732 11.376 269.444 12.288 269.444 13.488V38.832C269.444 40.032 269.732 40.944 270.308 41.568C270.932 42.192 271.844 42.504 273.044 42.504H292.124L292.628 50.496C290.324 50.688 287.852 50.856 285.212 51C282.572 51.096 279.884 51.144 277.148 51.144C274.412 51.192 271.7 51.216 269.012 51.216C265.844 51.216 263.276 50.304 261.308 48.48C259.388 46.608 258.428 44.184 258.428 41.208V11.112C258.428 8.088 259.388 5.664 261.308 3.84C263.276 2.016 265.844 1.104 269.012 1.104ZM259.724 21.264H289.46V29.04H259.724V21.264ZM316.829 0.383999C319.277 0.383999 321.941 0.527999 324.821 0.815998C327.701 1.056 330.509 1.584 333.245 2.4L332.525 9.672C330.413 9.624 327.941 9.576 325.109 9.528C322.277 9.48 319.493 9.456 316.757 9.456C315.413 9.456 314.261 9.504 313.301 9.6C312.389 9.648 311.645 9.84 311.069 10.176C310.493 10.464 310.085 10.92 309.845 11.544C309.605 12.168 309.485 13.032 309.485 14.136C309.485 15.816 309.869 17.04 310.637 17.808C311.453 18.576 312.821 19.272 314.741 19.896L324.317 22.992C328.301 24.336 331.061 26.16 332.597 28.464C334.133 30.768 334.901 33.792 334.901 37.536C334.901 40.368 334.565 42.72 333.893 44.592C333.221 46.464 332.165 47.928 330.725 48.984C329.285 50.04 327.389 50.784 325.037 51.216C322.685 51.696 319.805 51.936 316.397 51.936C314.765 51.936 312.437 51.816 309.413 51.576C306.389 51.384 302.933 50.856 299.045 49.992L299.765 42.216C302.597 42.264 305.045 42.336 307.109 42.432C309.221 42.48 311.021 42.528 312.509 42.576C313.997 42.576 315.293 42.576 316.397 42.576C318.317 42.576 319.805 42.456 320.861 42.216C321.965 41.976 322.733 41.496 323.165 40.776C323.597 40.056 323.813 39.024 323.813 37.68C323.813 36.528 323.645 35.616 323.309 34.944C323.021 34.224 322.517 33.672 321.797 33.288C321.125 32.856 320.189 32.472 318.989 32.136L308.909 28.68C305.117 27.288 302.429 25.464 300.845 23.208C299.261 20.952 298.469 17.976 298.469 14.28C298.469 11.4 298.805 9.072 299.477 7.296C300.197 5.472 301.277 4.056 302.717 3.048C304.205 2.04 306.101 1.344 308.405 0.959996C310.757 0.575998 313.565 0.383999 316.829 0.383999ZM359.017 0.383999C361.465 0.383999 364.129 0.527999 367.009 0.815998C369.889 1.056 372.697 1.584 375.433 2.4L374.713 9.672C372.601 9.624 370.129 9.576 367.297 9.528C364.465 9.48 361.681 9.456 358.945 9.456C357.601 9.456 356.449 9.504 355.489 9.6C354.577 9.648 353.833 9.84 353.257 10.176C352.681 10.464 352.273 10.92 352.033 11.544C351.793 12.168 351.673 13.032 351.673 14.136C351.673 15.816 352.057 17.04 352.825 17.808C353.641 18.576 355.009 19.272 356.929 19.896L366.505 22.992C370.489 24.336 373.249 26.16 374.785 28.464C376.321 30.768 377.089 33.792 377.089 37.536C377.089 40.368 376.753 42.72 376.081 44.592C375.409 46.464 374.353 47.928 372.913 48.984C371.473 50.04 369.577 50.784 367.225 51.216C364.873 51.696 361.993 51.936 358.585 51.936C356.953 51.936 354.625 51.816 351.601 51.576C348.577 51.384 345.121 50.856 341.233 49.992L341.953 42.216C344.785 42.264 347.233 42.336 349.297 42.432C351.409 42.48 353.209 42.528 354.697 42.576C356.185 42.576 357.481 42.576 358.585 42.576C360.505 42.576 361.993 42.456 363.049 42.216C364.153 41.976 364.921 41.496 365.353 40.776C365.785 40.056 366.001 39.024 366.001 37.68C366.001 36.528 365.833 35.616 365.497 34.944C365.209 34.224 364.705 33.672 363.985 33.288C363.313 32.856 362.377 32.472 361.177 32.136L351.097 28.68C347.305 27.288 344.617 25.464 343.033 23.208C341.449 20.952 340.657 17.976 340.657 14.28C340.657 11.4 340.993 9.072 341.665 7.296C342.385 5.472 343.465 4.056 344.905 3.048C346.393 2.04 348.289 1.344 350.593 0.959996C352.945 0.575998 355.753 0.383999 359.017 0.383999ZM411.343 1.32V51H400.399V1.32H411.343ZM463.399 1.32V47.04C463.399 49.68 462.079 51 459.439 51H453.391C452.191 51 451.279 50.736 450.655 50.208C450.031 49.632 449.455 48.792 448.927 47.688L435.175 21.624C434.599 20.52 434.023 19.296 433.447 17.952C432.919 16.608 432.463 15.312 432.079 14.064H431.287C431.431 15.36 431.551 16.68 431.647 18.024C431.743 19.32 431.791 20.616 431.791 21.912V51H421.351V5.28C421.351 2.64 422.695 1.32 425.383 1.32H431.359C432.511 1.32 433.375 1.608 433.951 2.184C434.575 2.712 435.175 3.528 435.751 4.632L449.071 29.904C449.647 31.008 450.247 32.232 450.871 33.576C451.495 34.92 452.095 36.312 452.671 37.752H453.535C453.391 36.312 453.271 34.92 453.175 33.576C453.127 32.184 453.103 30.816 453.103 29.472L453.031 1.32H463.399ZM483.896 1.104C486.44 1.104 489.032 1.128 491.672 1.176C494.36 1.176 496.976 1.248 499.52 1.392C502.112 1.488 504.512 1.656 506.72 1.896L506.144 9.816H488.144C486.848 9.816 485.864 10.128 485.192 10.752C484.52 11.376 484.184 12.288 484.184 13.488V51H473.168V11.256C473.168 8.184 474.152 5.736 476.12 3.912C478.088 2.04 480.68 1.104 483.896 1.104ZM474.464 22.128H503.48V29.904H474.464V22.128ZM553.134 1.32V31.2C553.134 36.24 552.51 40.296 551.262 43.368C550.014 46.392 547.95 48.6 545.07 49.992C542.238 51.336 538.446 52.008 533.694 52.008C528.654 52.008 524.622 51.336 521.598 49.992C518.574 48.6 516.39 46.392 515.046 43.368C513.702 40.296 513.03 36.24 513.03 31.2V1.32H524.046V31.2C524.046 34.32 524.31 36.768 524.838 38.544C525.414 40.272 526.374 41.496 527.718 42.216C529.062 42.936 530.862 43.296 533.118 43.296C535.374 43.296 537.15 42.936 538.446 42.216C539.79 41.496 540.726 40.272 541.254 38.544C541.83 36.768 542.118 34.32 542.118 31.2V1.32H553.134ZM579.165 0.383999C581.613 0.383999 584.277 0.527999 587.157 0.815998C590.037 1.056 592.845 1.584 595.581 2.4L594.861 9.672C592.749 9.624 590.277 9.576 587.445 9.528C584.613 9.48 581.829 9.456 579.093 9.456C577.749 9.456 576.597 9.504 575.637 9.6C574.725 9.648 573.981 9.84 573.405 10.176C572.829 10.464 572.421 10.92 572.181 11.544C571.941 12.168 571.821 13.032 571.821 14.136C571.821 15.816 572.205 17.04 572.973 17.808C573.789 18.576 575.157 19.272 577.077 19.896L586.653 22.992C590.637 24.336 593.397 26.16 594.933 28.464C596.469 30.768 597.237 33.792 597.237 37.536C597.237 40.368 596.901 42.72 596.229 44.592C595.557 46.464 594.501 47.928 593.061 48.984C591.621 50.04 589.725 50.784 587.373 51.216C585.021 51.696 582.141 51.936 578.733 51.936C577.101 51.936 574.773 51.816 571.749 51.576C568.725 51.384 565.269 50.856 561.381 49.992L562.101 42.216C564.933 42.264 567.381 42.336 569.445 42.432C571.557 42.48 573.357 42.528 574.845 42.576C576.333 42.576 577.629 42.576 578.733 42.576C580.653 42.576 582.141 42.456 583.197 42.216C584.301 41.976 585.069 41.496 585.501 40.776C585.933 40.056 586.149 39.024 586.149 37.68C586.149 36.528 585.981 35.616 585.645 34.944C585.357 34.224 584.853 33.672 584.133 33.288C583.461 32.856 582.525 32.472 581.325 32.136L571.245 28.68C567.453 27.288 564.765 25.464 563.181 23.208C561.597 20.952 560.805 17.976 560.805 14.28C560.805 11.4 561.141 9.072 561.813 7.296C562.533 5.472 563.613 4.056 565.053 3.048C566.541 2.04 568.437 1.344 570.741 0.959996C573.093 0.575998 575.901 0.383999 579.165 0.383999ZM615.161 1.104C617.849 1.104 620.561 1.128 623.297 1.176C626.033 1.176 628.721 1.224 631.361 1.32C634.001 1.416 636.473 1.584 638.777 1.824L638.273 9.816H619.193C617.993 9.816 617.081 10.128 616.457 10.752C615.881 11.376 615.593 12.288 615.593 13.488V38.832C615.593 40.032 615.881 40.944 616.457 41.568C617.081 42.192 617.993 42.504 619.193 42.504H638.273L638.777 50.496C636.473 50.688 634.001 50.856 631.361 51C628.721 51.096 626.033 51.144 623.297 51.144C620.561 51.192 617.849 51.216 615.161 51.216C611.993 51.216 609.425 50.304 607.457 48.48C605.537 46.608 604.577 44.184 604.577 41.208V11.112C604.577 8.088 605.537 5.664 607.457 3.84C609.425 2.016 611.993 1.104 615.161 1.104ZM605.873 21.264H635.609V29.04H605.873V21.264ZM665.714 0.599997C670.082 0.599997 673.61 1.056 676.298 1.968C679.034 2.832 681.026 4.344 682.274 6.504C683.57 8.616 684.218 11.568 684.218 15.36C684.218 17.664 683.906 19.704 683.282 21.48C682.706 23.208 681.722 24.6 680.33 25.656C678.938 26.712 677.042 27.384 674.642 27.672V28.032C675.506 28.176 676.394 28.512 677.306 29.04C678.266 29.568 679.154 30.36 679.97 31.416C680.786 32.424 681.386 33.792 681.77 35.52L686.09 51H674.498L670.682 35.88C670.25 34.248 669.602 33.12 668.738 32.496C667.922 31.872 666.77 31.56 665.282 31.56C662.018 31.56 659.258 31.56 657.002 31.56C654.794 31.512 652.922 31.464 651.386 31.416C649.898 31.368 648.554 31.32 647.354 31.272L647.57 23.28H665.498C667.418 23.28 668.93 23.088 670.034 22.704C671.186 22.272 671.978 21.528 672.41 20.472C672.89 19.416 673.13 17.952 673.13 16.08C673.13 14.16 672.89 12.696 672.41 11.688C671.978 10.632 671.186 9.912 670.034 9.528C668.93 9.096 667.418 8.88 665.498 8.88C660.986 8.88 657.17 8.904 654.05 8.952C650.93 9 648.794 9.072 647.642 9.168L646.562 1.32C648.578 1.08 650.474 0.911997 652.25 0.815998C654.026 0.719996 655.97 0.671996 658.082 0.671996C660.194 0.623996 662.738 0.599997 665.714 0.599997ZM657.434 1.32V51H646.562V1.32H657.434Z" fill="url(#paint0_linear_86_2620)"/>
<defs>
<linearGradient id="paint0_linear_86_2620" x1="-5" y1="22" x2="689" y2="22" gradientUnits="userSpaceOnUse">
<stop stop-color="#FFF500"/>
<stop offset="1" stop-color="#FF9900"/>
</linearGradient>
</defs>
</svg>
